<?xml version="1.0" encoding="UTF-8"?>
<svg xmlns="http://www.w3.org/2000/svg" width="100" height="100" viewBox="0 0 100 100" fill="none">
  <mask id="mask0_4627_273" style="mask-type:luminance" maskUnits="userSpaceOnUse" x="10" y="10" width="80" height="80">
    <path d="M90 10H10V90H90V10Z" fill="white"></path>
  </mask>
  <g mask="url(#mask0_4627_273)">
    <path d="M64.4019 10H10V64.6691L35.3309 90H90V35.5981L64.4019 10Z" fill="white"></path>
    <path d="M63.7462 11.6758L88.3485 36.2781V88.3485H36.0109L11.6758 63.9891V11.6758H63.7462ZM64.4019 10H10V64.6691L35.3309 90H90V35.5981L64.4019 10Z" fill="#A5A5A5"></path>
    <path d="M22.9933 55.0516V57.9903H21.3418V50H24.4019C25.1305 49.9514 25.8348 50.1943 26.3934 50.6558C26.782 51.0201 27.0491 51.5058 27.1463 52.0158C27.2434 52.5258 27.1949 53.0844 26.9763 53.5701C26.7577 54.0559 26.3934 54.4687 25.932 54.7359C25.4705 55.003 24.9362 55.1245 24.4019 55.0516H22.9933ZM22.9933 53.7887H24.2319C24.4019 53.813 24.5719 53.7887 24.7176 53.7401C24.8633 53.6916 25.0091 53.5944 25.1305 53.473C25.3248 53.2058 25.4219 52.8658 25.4219 52.5501C25.4219 52.2101 25.3248 51.8944 25.1305 51.6272C24.8876 51.4086 24.5719 51.2872 24.2319 51.2872H23.0176L22.9933 53.7887ZM34.1408 57.9903L33.6065 56.2174H30.8864L30.3521 57.9903H28.5792L31.3722 50H33.3151L36.0352 57.9903H34.1408ZM31.2021 54.9302H33.1936L32.1979 51.6029L31.2021 54.9302ZM38.4153 57.9903V50H41.4754C42.204 49.9514 42.9083 50.1943 43.4669 50.6558C43.9283 51.1172 44.1955 51.7729 44.1955 52.4287C44.1955 52.8901 44.0497 53.3273 43.7826 53.6916C43.5154 54.0802 43.1511 54.3716 42.714 54.5902L44.7055 58.0389H42.9326L41.1596 54.9059H40.0182V57.966H38.4153V57.9903ZM40.0668 53.643H41.2811C41.4268 53.6673 41.5482 53.6673 41.6939 53.6187C41.8397 53.5944 41.9611 53.5216 42.0582 53.4487C42.1797 53.3758 42.2525 53.2544 42.3254 53.133C42.3983 53.0115 42.4468 52.8901 42.4711 52.7444V52.4044C42.5197 52.1372 42.4468 51.8458 42.2768 51.6272C42.1068 51.4086 41.864 51.2629 41.5725 51.2143H40.1153V53.6673L40.0668 53.643ZM48.8099 57.9903V51.3843H46.3327V50H52.9386V51.3843H50.4614V57.9903H48.8099ZM57.1402 52.453V57.9903H55.6102V50H57.4802L60.7346 55.6102V50H62.2647V57.9903H60.3946L57.1402 52.453ZM65.3491 57.9903V50H70.6193V51.3358H67.0734V53.2058H69.9392V54.5416H67.0734V56.6788H70.6193V58.0146H65.3491V57.9903ZM73.6551 57.9903V50H76.7152C77.4438 49.9514 78.1481 50.1943 78.7067 50.6558C79.1681 51.1172 79.4353 51.7729 79.4353 52.4287C79.4353 52.8901 79.2896 53.3273 79.0467 53.6916C78.7796 54.0802 78.4153 54.3716 77.9781 54.5902L79.9696 58.0389H78.1967L76.4238 54.9059H75.3066V57.966H73.6551V57.9903ZM75.3309 53.643H76.5209C76.7881 53.6916 77.0795 53.6187 77.2981 53.4487C77.5167 53.2787 77.6624 53.0358 77.711 52.7444V52.4044C77.7595 52.1372 77.6867 51.8458 77.5167 51.6272C77.3467 51.4086 77.1038 51.2629 76.8366 51.2143H75.3066L75.3309 53.643Z" fill="#A5A5A5"></path>
    <path d="M27.7777 28.3121C27.7534 28.5792 27.802 28.8707 27.9234 29.1135C27.9963 29.3078 28.1177 29.575 28.1906 29.7693C28.2148 29.7936 28.2391 29.8421 28.2391 29.8664C28.2391 29.8907 28.2634 29.9393 28.2391 29.9636C28.2391 30.085 28.1663 30.1578 28.0448 30.2307L27.4377 30.6193H27.2434C27.1948 30.6193 27.1462 30.6193 27.0977 30.595C27.0491 30.5707 27.0005 30.5464 26.9762 30.4979C26.8548 30.3764 26.7334 30.255 26.6362 30.1093C26.5391 29.9393 26.4419 29.7693 26.3691 29.575C26.0533 29.9636 25.6405 30.3036 25.179 30.5221C24.7176 30.7407 24.2076 30.8622 23.6975 30.8622C23.3818 30.8864 23.0418 30.8379 22.7261 30.7164C22.4104 30.595 22.1432 30.425 21.9003 30.1821C21.6818 29.9393 21.4875 29.6721 21.3903 29.3564C21.2689 29.0407 21.2203 28.7249 21.2446 28.4092C21.2446 28.0692 21.2932 27.7049 21.4389 27.3892C21.5846 27.0735 21.7789 26.782 22.0461 26.5391C22.6775 26.0534 23.4547 25.8106 24.2561 25.8106C24.5476 25.8106 24.8633 25.8348 25.1547 25.8834L26.1505 26.0777V25.422C26.1748 25.1548 26.1748 24.8877 26.1019 24.6448C26.0291 24.4019 25.9076 24.1591 25.7376 23.9648C25.5433 23.7948 25.3005 23.6733 25.0333 23.6248C24.7904 23.5519 24.5233 23.5276 24.2561 23.5762C23.9161 23.6005 23.5761 23.6248 23.2604 23.6976C22.9204 23.7705 22.5804 23.8919 22.2646 24.0376C22.1432 24.1105 22.0703 24.1105 21.9246 24.1833H21.8032C21.6818 24.1833 21.6089 24.1105 21.6089 23.9162V23.4305C21.6089 23.309 21.6332 23.1876 21.6818 23.0905C21.7546 23.0176 21.8518 22.9447 21.9489 22.8962C22.2889 22.7019 22.6775 22.5561 23.0661 22.5076C23.5275 22.3861 23.989 22.3133 24.4747 22.3133C25.3247 22.2404 26.1505 22.5076 26.8062 23.0419C27.0734 23.3333 27.2677 23.6976 27.3891 24.0619C27.5105 24.4505 27.5591 24.8391 27.5348 25.2277L27.7777 28.3121ZM24.1347 29.6478C24.4261 29.6235 24.7419 29.5993 25.0333 29.5264C25.3733 29.3807 25.6648 29.1864 25.9319 28.9192C26.1019 28.7492 26.1991 28.5306 26.2719 28.3121C26.3205 28.0449 26.3448 27.7778 26.3448 27.5106V27.0977C25.7862 26.9763 25.2276 26.9034 24.669 26.9034C24.2076 26.8549 23.7218 26.9763 23.3332 27.2435C23.0661 27.5106 22.9204 27.8506 22.8961 28.2149C22.8718 28.5792 22.9932 28.9435 23.2118 29.235C23.309 29.3807 23.4547 29.5021 23.6247 29.575C23.7947 29.6478 23.9647 29.6721 24.159 29.6235H24.1347V29.6478ZM31.3964 30.6679C31.275 30.6679 31.1292 30.6679 31.0564 30.595C30.9835 30.4979 30.9107 30.3764 30.8621 30.255L28.7249 23.2605C28.6763 23.1633 28.652 23.0419 28.652 22.9204C28.652 22.799 28.7249 22.7262 28.7734 22.7262H29.672C29.7935 22.7262 29.9392 22.7262 30.0121 22.799C30.1092 22.8962 30.1578 23.0176 30.2063 23.139L31.7364 29.065L33.145 23.139C33.145 23.0662 33.1693 23.0176 33.1936 22.9447C33.2179 22.8962 33.2665 22.8476 33.3393 22.799C33.4365 22.7504 33.5579 22.7262 33.6793 22.7262H34.4079C34.5294 22.7019 34.6508 22.7262 34.7479 22.799C34.8208 22.8962 34.8937 23.0176 34.9422 23.139L36.3508 29.2107L37.8809 23.139C37.8809 23.0662 37.9052 22.9933 37.9295 22.9447C37.9538 22.8962 38.0023 22.8476 38.0752 22.799C38.1723 22.7504 38.2938 22.7262 38.4152 22.7262H39.3138C39.4352 22.7262 39.5081 22.799 39.5081 22.8719V23.0662C39.5081 23.139 39.4352 23.1876 39.4352 23.2605L37.298 30.1821C37.298 30.255 37.2737 30.3279 37.2495 30.3764C37.2252 30.425 37.1523 30.4736 37.1037 30.5221C37.0309 30.6436 36.9094 30.6436 36.7637 30.6436H35.9623C35.8408 30.6436 35.6951 30.6436 35.6223 30.5707C35.5494 30.4979 35.5008 30.3764 35.428 30.2307L34.0193 24.4262L32.635 30.2307C32.635 30.3036 32.6107 30.3764 32.5864 30.425C32.5621 30.4736 32.4893 30.5221 32.4407 30.5707C32.3679 30.6193 32.2707 30.6436 32.1736 30.6436H31.3964V30.6679ZM42.9325 30.935C42.4711 30.935 42.0096 30.8864 41.5482 30.8136C41.1839 30.7407 40.8196 30.6193 40.4796 30.4736C40.3824 30.425 40.2853 30.3521 40.2367 30.2793C40.1881 30.1821 40.1396 30.0607 40.1638 29.9636V29.5021C40.1638 29.3078 40.2367 29.235 40.3581 29.235H40.4796C40.5524 29.235 40.601 29.3078 40.6739 29.3078C40.9896 29.4535 41.3296 29.5507 41.6696 29.6478C42.0096 29.7207 42.3739 29.7693 42.7382 29.7693C43.1997 29.7936 43.6611 29.6721 44.074 29.4293C44.2197 29.3321 44.3411 29.1864 44.414 29.0407C44.4869 28.8949 44.5354 28.7249 44.5354 28.5306C44.5597 28.4092 44.5354 28.2878 44.4869 28.1906C44.4383 28.0935 44.3654 27.9963 44.2683 27.9235C44.0011 27.7049 43.7097 27.5349 43.3697 27.462L42.0339 27.0735C41.4753 26.9277 40.9653 26.612 40.5767 26.1749C40.2853 25.7863 40.1153 25.3248 40.1153 24.8391C40.1153 24.4748 40.2124 24.1348 40.3824 23.8433C40.7467 23.2605 41.3296 22.8476 41.9853 22.6533C42.3496 22.5319 42.7382 22.4833 43.1025 22.5076C43.2968 22.5076 43.5154 22.5319 43.7097 22.5804C43.904 22.6047 44.1226 22.629 44.3169 22.7019C44.5111 22.7747 44.6569 22.7747 44.8512 22.8233C45.0454 22.8962 45.1183 22.8962 45.2397 22.9447C45.3369 22.9933 45.434 23.0662 45.5069 23.139C45.5555 23.2362 45.5798 23.3576 45.5798 23.479V23.8676C45.5798 24.0619 45.5069 24.1348 45.3855 24.1348C45.264 24.1348 45.1426 24.0862 45.0455 24.0133C44.4869 23.7705 43.8797 23.649 43.2725 23.6733C42.8597 23.6733 42.4468 23.7462 42.0825 23.9405C41.9368 24.0133 41.8153 24.1348 41.7425 24.2805C41.6696 24.4262 41.6453 24.5962 41.6696 24.7419C41.6696 24.8634 41.6696 24.9848 41.7182 25.1062C41.7668 25.2277 41.8396 25.3248 41.9368 25.3977C42.2039 25.6648 42.5682 25.8106 42.9325 25.8591L44.1954 26.2477C44.7297 26.4177 45.2155 26.7092 45.5798 27.1463C45.8469 27.5106 45.9926 27.9721 45.9683 28.4092C45.9683 28.7735 45.8955 29.1621 45.7012 29.4778C45.5555 29.7935 45.3126 30.085 45.0455 30.2793C44.7297 30.4979 44.3897 30.6679 44.0497 30.8136C43.6854 30.9107 43.2968 30.935 42.9082 30.935H42.9325Z" fill="#A5A5A5"></path>
    <path d="M44.6812 35.2581C41.4268 37.4438 37.5895 38.6096 33.6794 38.5853C28.7249 38.5853 23.9648 36.7638 20.2732 33.4366C20.0061 33.1694 20.2732 32.8294 20.6132 33.048C24.6691 35.4281 29.3078 36.6667 34.0194 36.6424C37.541 36.6181 41.0382 35.9381 44.2926 34.578C44.7298 34.3837 45.167 34.918 44.6812 35.2581ZM45.1427 37.2738C45.0212 37.541 45.2884 37.6624 45.5555 37.4681C47.1584 36.1324 47.547 33.3394 47.207 32.9265C46.867 32.538 44.0741 32.1979 42.3983 33.388C42.1311 33.5823 42.204 33.8494 42.4711 33.7766C43.3697 33.6551 45.5555 33.388 45.9441 33.9223C46.3327 34.4809 45.4827 36.3995 45.1427 37.2738Z" fill="#A5A5A5"></path>
  </g>
</svg>
