<?xml version="1.0" encoding="UTF-8"?>
<svg xmlns="http://www.w3.org/2000/svg" width="143" height="45" viewBox="0 0 143 45" fill="none">
  <g clip-path="url(#clip0_3716_582)">
    <path d="M0 6C0 8.72573 2.12076 10.9354 4.73684 10.9354C7.36042 10.9426 9.4934 8.73353 9.50211 6H0Z" fill="white"></path>
    <path d="M112.971 31.6045L109.807 37.3164H116.135L112.971 31.6045Z" fill="white"></path>
    <path d="M31.6386 14.8081C29.1925 14.8168 27.0533 16.5271 26.4123 18.9867V15.3148H20.8418V37.3167H26.4123V20.52H31.6386V14.8081Z" fill="white"></path>
    <path d="M8.38672 6V12.1264V18.3944V37.3166H14.412V12.1264H19.6099V6H8.38672Z" fill="white"></path>
    <path d="M44.0052 15.3145V32.3974H39.6315V15.3145H34.042V31.9927C34.0409 34.4673 35.5359 36.6744 37.7742 37.5022C40.0124 38.3301 42.5085 37.5992 44.0052 35.6778V37.3229H49.5788V15.3145H44.0052Z" fill="white"></path>
    <path d="M69.5143 20.6548C69.5176 18.1798 68.0232 15.9715 65.7848 15.1433C63.5463 14.3151 61.0499 15.0469 59.5543 16.9697V6H53.9648V37.3166H59.5543V20.2336H63.928V37.3166H69.5143V20.6548Z" fill="white"></path>
    <path d="M81.1014 14.8081C76.7751 14.8081 73.1309 18.0984 73.1309 22.9284V29.9038C73.1309 34.6944 76.6298 37.8234 80.9087 37.8234C85.1877 37.8234 88.8824 34.5331 88.8824 29.7031V22.7277C88.8824 17.8845 85.3803 14.8081 81.1014 14.8081ZM83.3687 32.4274H78.6319V20.1482H83.3687V32.4274Z" fill="white"></path>
    <path d="M100.004 14.8081C95.6745 14.8081 92.0303 18.0984 92.0303 22.9284V29.9038C92.0303 34.6944 95.5292 37.8234 99.8082 37.8234C104.087 37.8234 107.782 34.5331 107.782 29.7031V22.7277C107.782 17.8845 104.28 14.8081 100.004 14.8081ZM102.278 32.4274H97.5408V20.1482H102.278V32.4274Z" fill="white"></path>
  </g>
  <defs>
    <clipPath id="clip0_3716_582">
      <rect width="116.211" height="32" fill="white" transform="translate(0 6)"></rect>
    </clipPath>
  </defs>
</svg>
