<?xml version="1.0" encoding="UTF-8"?>
<svg xmlns="http://www.w3.org/2000/svg" width="143" height="45" viewBox="0 0 143 45" fill="none">
  <path d="M67.4865 8.57519C68.5881 8.55858 69.6827 8.75495 70.7102 9.15358C71.628 9.51425 72.465 10.0542 73.1727 10.7421C73.8488 11.4042 74.381 12.1993 74.7358 13.0774C75.101 13.985 75.2851 14.9555 75.2776 15.9341C75.3139 17.3556 74.9727 18.7613 74.2888 20.0072C73.5453 21.2238 72.4071 22.147 71.0651 22.6222V22.6982C71.7226 22.8634 72.3341 23.1763 72.8531 23.6133C73.3255 24.0223 73.7178 24.5159 74.0098 25.0688C74.3144 25.6508 74.5343 26.2736 74.6627 26.918C74.7941 27.5844 74.8846 28.2582 74.9336 28.9356C74.958 29.3592 74.9824 29.8589 75.0067 30.4318C75.0311 31.0048 75.0772 31.5886 75.1395 32.186C75.1957 32.7592 75.2944 33.3274 75.4348 33.8859C75.5534 34.3735 75.7629 34.8341 76.0524 35.2436H70.2063C69.8589 34.2696 69.658 33.2492 69.6103 32.2159C69.5363 31.0446 69.4252 29.9241 69.2771 28.8542C69.1877 27.7303 68.7437 26.6641 68.0093 25.8101C67.1219 25.0801 65.9828 24.7307 64.8397 24.838H58.9882V35.2626H53.1367V8.57519H67.4865ZM65.4005 20.6508C66.482 20.733 67.556 20.4141 68.4184 19.7547C68.7845 19.369 69.0639 18.9091 69.2377 18.406C69.4115 17.9029 69.4758 17.3684 69.4261 16.8383C69.4729 16.3229 69.4069 15.8034 69.2328 15.3162C69.0588 14.8289 68.7808 14.3855 68.4184 14.017C67.5505 13.3701 66.479 13.0587 65.4005 13.1399H58.9882V20.6508H65.4005Z" fill="white"></path>
  <path d="M92.6612 8.57471L102.612 35.2513H96.5324L94.5196 29.3099H84.5721L82.4861 35.2513H76.5967L86.6607 8.57471H92.6612ZM93.0107 24.938L89.6434 15.1488H89.5675L86.1 24.938H93.0107Z" fill="white"></path>
  <path d="M109.726 8.57471V19.632L120.125 8.57471H127.432L117.032 19.1107L128.437 35.2486H121.095L113.082 23.2571L109.726 26.6569V35.2486H103.874V8.57471H109.726Z" fill="white"></path>
  <path d="M141.988 14.7906C142.022 16.0621 141.677 17.3149 140.997 18.3888C140.317 19.4626 139.333 20.3085 138.17 20.8183C137.008 21.328 135.72 21.4783 134.471 21.25C133.223 21.0217 132.071 20.4251 131.163 19.5366C130.255 18.6482 129.632 17.5083 129.374 16.2629C129.116 15.0175 129.235 13.7233 129.715 12.546C130.196 11.3687 131.016 10.3618 132.07 9.65437C133.125 8.94693 134.366 8.57107 135.635 8.57493C136.461 8.55872 137.282 8.7073 138.05 9.01203C138.818 9.31676 139.518 9.77156 140.109 10.35C140.7 10.9284 141.171 11.6188 141.493 12.3812C141.816 13.1435 141.984 13.9625 141.988 14.7906ZM130.832 14.7906C130.812 15.4386 130.922 16.0841 131.157 16.6882C131.392 17.2924 131.746 17.8428 132.198 18.3066C132.65 18.7703 133.191 19.1378 133.788 19.3871C134.385 19.6363 135.026 19.7622 135.673 19.7571C136.309 19.7546 136.938 19.624 137.523 19.373C138.108 19.1221 138.637 18.7558 139.077 18.2961C139.518 17.8364 139.863 17.2926 140.09 16.6969C140.317 16.1013 140.423 15.4659 140.4 14.8286C140.424 14.1855 140.319 13.544 140.09 12.9425C139.862 12.341 139.515 11.7917 139.071 11.3273C138.626 10.8629 138.093 10.4929 137.503 10.2393C136.913 9.98571 136.278 9.85371 135.636 9.85116C134.993 9.84861 134.357 9.97556 133.765 10.2245C133.173 10.4734 132.637 10.8391 132.189 11.3C131.741 11.7608 131.39 12.3074 131.156 12.907C130.923 13.5067 130.813 14.1473 130.832 14.7906ZM134.651 18.0491H133.216V11.8335C134.002 11.6952 134.799 11.6325 135.597 11.6461C136.348 11.5821 137.101 11.7397 137.764 12.0996C137.96 12.2663 138.115 12.4748 138.22 12.7097C138.325 12.9447 138.375 13.2001 138.368 13.4573C138.341 13.8051 138.201 14.1344 137.969 14.3944C137.737 14.6545 137.426 14.8309 137.084 14.8965V14.9725C137.393 15.0983 137.661 15.3062 137.861 15.5737C138.061 15.8411 138.183 16.1581 138.217 16.4905C138.278 17.0306 138.432 17.556 138.672 18.0437H137.122C136.882 17.5655 136.716 17.0537 136.629 16.5258C136.515 15.8442 136.139 15.5401 135.342 15.5401H134.662L134.651 18.0491ZM134.689 14.519H135.369C136.163 14.519 136.808 14.2475 136.808 13.6067C136.808 13.0418 136.391 12.659 135.483 12.659C135.216 12.6539 134.95 12.6804 134.689 12.7377V14.519Z" fill="white"></path>
  <path d="M24.134 14.2663C25.4056 14.2278 26.6721 14.4448 27.8589 14.9044L27.8914 14.9234H27.9212C27.9537 14.9397 28.7339 15.3036 28.5822 16.8541C28.5716 17.137 28.5045 17.4149 28.385 17.6715C28.2655 17.928 28.096 18.1579 27.8864 18.3477C27.6769 18.5375 27.4315 18.6834 27.1649 18.7766C26.8982 18.8699 26.6156 18.9087 26.3337 18.8907H26.163C23.5353 18.9504 21.7771 18.9857 21.2082 18.9857C20.7314 18.9857 20.0515 19.0129 19.469 19.0455C19.4528 18.2308 19.4203 16.7645 19.3986 16.2377C19.385 15.8223 19.313 15.4109 19.1846 15.0158C20.6038 14.6349 22.0545 14.384 23.519 14.2663C23.7303 14.2554 23.9389 14.25 24.1448 14.25" fill="white"></path>
  <path d="M24.938 8.92773C25.2414 8.92773 25.5123 8.92773 25.7507 8.94674C25.9891 8.96575 26.1489 8.96304 26.3196 8.96304C27.1079 8.96304 28.1102 9.09066 28.4299 9.69892C28.7487 10.2625 28.8408 10.9269 28.6873 11.5563C28.6076 11.9998 28.4005 12.4104 28.0913 12.7375C27.9594 12.8772 27.8182 13.0079 27.6687 13.1285C26.5448 12.8224 25.3847 12.6707 24.2201 12.6778C23.8814 12.6778 23.5428 12.6778 23.2123 12.7131C21.5541 12.8539 19.9146 13.1651 18.3198 13.6418C17.9378 13.3285 17.5079 13.0791 17.0466 12.9032C16.8389 12.8185 16.6252 12.7495 16.4072 12.6968C17.655 11.4194 19.1441 10.4039 20.7877 9.70978C22.1129 9.2051 23.5177 8.94297 24.9353 8.93588" fill="white"></path>
  <path d="M24.0443 3C24.2312 3 24.4182 3 24.6051 3.01358C27.8288 3.17379 28.265 3.61369 28.2921 5.28369C28.2512 5.6931 28.1232 6.08895 27.9166 6.4445C27.71 6.80006 27.4298 7.10704 27.0947 7.34472C26.7669 7.31485 26.0842 7.25782 25.258 7.25782C23.9756 7.23089 22.6967 7.40029 21.4653 7.76018C19.5072 8.36306 17.7018 9.38185 16.1719 10.7472C15.3185 11.5238 14.476 12.447 14.1564 12.8028C13.7952 12.9356 13.4618 13.1345 13.173 13.3893C13.0782 13.4753 12.9878 13.5659 12.9021 13.6609C12.5806 13.3354 12.2081 13.0648 11.7995 12.8598C11.3453 12.6698 10.8609 12.5622 10.3691 12.5421C11.3089 10.2787 12.746 8.25708 14.5736 6.62784C17.2383 4.39339 20.572 3.11638 24.0443 3V3Z" fill="white"></path>
  <path d="M27.8534 20.2402C28.2356 21.6624 28.4868 23.1167 28.6038 24.585C28.7176 26.0622 28.5096 27.5465 27.9942 28.9351L27.9726 28.9704V29.0003C27.959 29.0274 27.6583 29.6819 26.4447 29.6819C26.3125 29.6824 26.1804 29.6752 26.0492 29.6601C25.767 29.6491 25.49 29.5816 25.2342 29.4617C24.9785 29.3418 24.7492 29.1719 24.5599 28.9619C24.3706 28.752 24.2251 28.5062 24.132 28.239C24.0388 27.9719 23.9998 27.6888 24.0174 27.4063V26.8632C23.9903 25.6114 23.9334 23.0018 23.9334 22.2687C23.9334 21.7935 23.9036 21.1119 23.8711 20.5254C25.6509 20.4873 26.3688 20.4656 26.6397 20.4548C27.0532 20.441 27.4627 20.3687 27.8561 20.2402" fill="white"></path>
  <path d="M30.1855 17.46C31.4571 18.7119 32.4698 20.2031 33.1654 21.8481C33.7643 23.4362 34.02 25.1337 33.9158 26.8283V26.9342C33.9158 27.1025 33.9158 27.2546 33.9158 27.3958C33.9158 28.1833 33.7885 29.1907 33.1817 29.5111C32.8052 29.7211 32.3825 29.834 31.9518 29.8397C31.7431 29.8374 31.5352 29.8137 31.3314 29.7691C30.8871 29.6883 30.4758 29.4798 30.1475 29.169C30.0087 29.038 29.8793 28.8973 29.7601 28.7481C30.1421 27.2921 30.2776 25.7821 30.1611 24.2812C30.0203 22.6246 29.7108 20.9868 29.2373 19.3934C29.5498 19.0094 29.7986 18.5776 29.9742 18.1144C30.059 17.9064 30.1279 17.6921 30.18 17.4735" fill="white"></path>
  <path d="M30.3343 11.4018C32.5946 12.3424 34.6135 13.7831 36.24 15.6161C38.6061 18.4228 39.8859 21.989 39.8457 25.6633C39.6859 28.8974 39.2389 29.3346 37.5539 29.359C37.1496 29.3176 36.759 29.1891 36.4089 28.9825C36.0587 28.7758 35.7571 28.4958 35.5248 28.1615C35.7267 26.2673 35.5863 24.3522 35.1104 22.5079C34.5095 20.5449 33.4931 18.7351 32.1304 17.202C31.3177 16.3194 30.3885 15.4586 30.0797 15.1817C29.9464 14.82 29.7481 14.4859 29.4945 14.196C29.409 14.1008 29.3186 14.0102 29.2236 13.9244C29.5483 13.6021 29.8183 13.2288 30.0228 12.8192C30.2131 12.365 30.3213 11.8804 30.3425 11.3882" fill="white"></path>
  <path d="M22.403 24.9405C22.4219 25.7986 22.4544 27.2296 22.4761 27.7455C22.4896 28.1609 22.5617 28.5723 22.6901 28.9675C21.2713 29.3501 19.8204 29.601 18.3557 29.717C18.1534 29.7278 17.9529 29.7333 17.7543 29.7333C16.4782 29.7718 15.2072 29.5549 14.0158 29.0951L13.9833 29.068H13.9562C13.921 29.0544 13.1435 28.6715 13.2898 27.14C13.3001 26.8572 13.3667 26.5794 13.4857 26.3228C13.6047 26.0662 13.7736 25.836 13.9826 25.6458C14.1915 25.4555 14.4363 25.3091 14.7025 25.215C14.9688 25.1209 15.2511 25.0812 15.5329 25.098H15.8038C16.8034 25.0681 19.8429 24.9948 20.68 24.9948C21.1731 24.9948 21.8828 24.9622 22.4165 24.9351" fill="white"></path>
  <path d="M23.5482 30.358C23.9313 30.6719 24.3621 30.9222 24.8242 31.0993C25.0313 31.1848 25.2451 31.2529 25.4635 31.303C24.2154 32.5787 22.7275 33.594 21.0857 34.29C19.7586 34.7944 18.3521 35.0565 16.9327 35.0639C16.6348 35.0639 16.3666 35.0639 16.12 35.0422C15.9142 35.0422 15.7299 35.0286 15.5593 35.0286C14.7736 35.0286 13.7713 34.901 13.4516 34.2927C13.1333 33.7289 13.0413 33.0648 13.1943 32.4354C13.2751 31.9914 13.482 31.5803 13.7903 31.2514C13.9225 31.112 14.0637 30.9814 14.2129 30.8604C15.3369 31.1661 16.4968 31.3186 17.6615 31.3139C17.9947 31.3139 18.336 31.3139 18.6692 31.2759C20.3219 31.1334 21.9558 30.8222 23.5455 30.3472" fill="white"></path>
  <path d="M28.9771 30.3311C29.3 30.6814 29.6911 30.9617 30.1263 31.1546C30.5615 31.3475 31.0315 31.4489 31.5074 31.4525C30.569 33.7197 29.1307 35.7445 27.3002 37.3749C24.6314 39.6092 21.294 40.8852 17.8186 41.0001C17.6371 41.0001 17.4556 41.0001 17.2768 41.0001C14.0531 40.8398 13.6169 40.3972 13.5898 38.7272C13.6305 38.3178 13.7585 37.9219 13.9651 37.5663C14.1717 37.2107 14.452 36.9037 14.7872 36.6662C15.1123 36.6988 15.7977 36.7558 16.624 36.7558C17.9062 36.7815 19.185 36.6121 20.4166 36.2534C22.3748 35.6509 24.1804 34.6321 25.71 33.2665C26.5634 32.4898 27.4086 31.5639 27.7283 31.2081C28.0886 31.0764 28.4212 30.8784 28.7089 30.6243C28.8053 30.5353 28.8958 30.4401 28.9798 30.3392" fill="white"></path>
  <path d="M15.4263 14.3478C15.5536 14.3478 15.6972 14.3478 15.8218 14.3695C16.1039 14.3802 16.3811 14.4473 16.6369 14.5669C16.8928 14.6864 17.1222 14.8561 17.3118 15.0658C17.5013 15.2755 17.6471 15.5211 17.7406 15.7881C17.8341 16.0551 17.8735 16.3382 17.8563 16.6206V16.7944C17.9159 19.5098 17.9484 21.2151 17.9484 21.761C17.9484 22.3068 17.9836 23.0155 18.008 23.5043C16.1957 23.5423 15.4832 23.564 15.2069 23.5776C14.7934 23.5893 14.3837 23.6607 13.9905 23.7894C13.61 22.3669 13.3598 20.9127 13.2428 19.4447C13.129 17.963 13.3407 16.4744 13.8632 15.0837L13.8822 15.0538V15.0239C13.8822 14.9968 14.1964 14.3369 15.41 14.3369" fill="white"></path>
  <path d="M9.90085 14.1904C10.1106 14.1924 10.3195 14.217 10.5239 14.2637C10.9674 14.3429 11.378 14.5506 11.7051 14.8611C11.8442 14.9937 11.9745 15.1352 12.0952 15.2848C11.7079 16.7399 11.5678 18.2499 11.6807 19.7517C11.8205 21.4131 12.131 23.0556 12.6072 24.6531C12.2943 25.0362 12.0446 25.4671 11.8676 25.9293C11.7828 26.1371 11.7148 26.3514 11.6644 26.5702C10.3917 25.3191 9.37889 23.8277 8.68449 22.182C8.08493 20.5959 7.82913 18.9001 7.93409 17.2073C7.93409 16.9955 7.94763 16.8054 7.94763 16.6343C7.94763 15.8469 8.07767 14.8421 8.68449 14.519C9.06013 14.3094 9.4818 14.1965 9.91168 14.1904" fill="white"></path>
  <path d="M4.29542 14.6763C4.6994 14.7199 5.08941 14.8496 5.43935 15.0566C5.78928 15.2636 6.09106 15.5431 6.32449 15.8765C6.11982 17.7696 6.25934 19.6842 6.73626 21.5273C7.33818 23.4899 8.35451 25.2995 9.71619 26.8333C10.4747 27.6697 11.3606 28.487 11.7696 28.8536C11.9022 29.215 12.0996 29.5491 12.3521 29.8393C12.4365 29.9355 12.527 30.0262 12.623 30.1109C12.2935 30.4321 12.0189 30.8055 11.8103 31.2161C11.6194 31.6702 11.5111 32.1548 11.4906 32.6471C9.23599 31.6986 7.2245 30.2514 5.60659 28.4137C3.24141 25.6066 1.9617 22.0407 2.00087 18.3666C2.16071 15.1243 2.60228 14.6763 4.26021 14.6763H4.29542Z" fill="white"></path>
</svg>
