<?xml version="1.0" encoding="UTF-8"?>
<svg xmlns="http://www.w3.org/2000/svg" width="154" height="45" viewBox="0 0 154 45" fill="none">
  <g clip-path="url(#clip0_870_6292)">
    <mask id="mask0_870_6292" style="mask-type:luminance" maskUnits="userSpaceOnUse" x="0" y="0" width="154" height="45">
      <path d="M154 0H0V45H154V0Z" fill="white"></path>
    </mask>
    <g mask="url(#mask0_870_6292)">
      <mask id="mask1_870_6292" style="mask-type:luminance" maskUnits="userSpaceOnUse" x="0" y="5" width="155" height="36">
        <path d="M154.286 5H0V40.2174H154.286V5Z" fill="white"></path>
      </mask>
      <g mask="url(#mask1_870_6292)">
        <mask id="mask2_870_6292" style="mask-type:luminance" maskUnits="userSpaceOnUse" x="0" y="5" width="155" height="36">
          <path d="M154.286 5H0V40.2174H154.286V5Z" fill="white"></path>
        </mask>
        <g mask="url(#mask2_870_6292)">
          <path d="M54.5208 16.9739C48.492 16.9739 45.1211 19.7272 45.1211 24.5296C45.1211 29.268 48.492 32.0854 54.5208 32.0854C60.6145 32.0854 63.9205 29.3321 63.9205 24.5296C63.9853 19.7272 60.6145 16.9739 54.5208 16.9739ZM54.5208 29.268C50.5016 29.268 48.4272 27.5391 48.4272 24.4656C48.4272 21.392 50.5665 19.6632 54.5208 19.6632C58.54 19.6632 60.6145 21.392 60.6145 24.4656C60.6145 27.5391 58.54 29.268 54.5208 29.268Z" fill="white"></path>
          <path d="M77.5973 19.1506L73.0595 24.5934L68.5217 19.1506H64.7617L70.1423 25.4898L64.8265 31.8289H68.4569L73.0595 26.4503L77.6621 31.8289H81.2924L75.9766 25.4898L81.3572 19.1506H77.5973Z" fill="white"></path>
          <path d="M91.082 29.5878L86.0255 19.1506H82.5898L87.9055 29.9721H90.9524C90.0448 31.7649 88.7483 32.2132 86.4145 32.2132C85.0531 32.2132 83.8864 32.021 82.9788 31.7649V34.3903C83.8214 34.6463 84.9236 34.7743 86.2849 34.7743C89.9151 34.7743 92.3137 34.006 93.8696 30.6764L99.25 19.1506H95.8143L91.082 29.5878Z" fill="white"></path>
          <path d="M107.807 27.3469C104.631 27.3469 102.816 26.5145 102.816 24.4656C102.816 22.4805 104.696 21.5841 107.807 21.5841C110.4 21.5841 112.864 22.4805 113.318 24.5935C113.188 20.6877 111.308 18.9587 106.9 18.9587C102.492 18.9587 99.5742 20.7517 99.5742 24.5935C99.5742 28.2433 102.427 29.8442 106.965 29.8442C111.114 29.8442 113.123 28.4995 113.253 24.7857C112.734 26.6426 110.53 27.3469 107.807 27.3469Z" fill="white"></path>
          <path d="M113.317 24.5934V24.8495V28.4993C113.317 31.0606 111.891 32.1492 106.835 32.1492C104.112 32.1492 101.778 31.7008 100.352 31.2526V34.07C101.843 34.4543 104.047 34.7743 106.835 34.7743C113.836 34.7743 116.688 32.9816 116.688 28.4993V19.1506H113.382V24.5934H113.317Z" fill="white"></path>
          <path d="M127.449 18.8948C122.522 18.8948 119.281 21.2639 119.281 25.554C119.281 30.0363 122.458 32.0213 128.422 32.0213C131.08 32.0213 133.283 31.6371 134.905 31.0607V28.5636C133.025 29.2039 130.82 29.46 128.551 29.46C124.726 29.46 122.847 28.6276 122.522 26.3865H135.099C135.423 21.7762 133.219 18.8948 127.449 18.8948ZM122.652 24.1453C123.171 22.2245 124.791 21.3921 127.384 21.3921C130.432 21.3921 131.793 22.3525 132.117 24.1453H122.652Z" fill="white"></path>
          <path d="M147.611 18.8948C143.916 18.8948 141.582 20.6236 141.258 24.0813C142.231 22.5446 143.916 21.6482 146.25 21.6482C148.908 21.6482 150.398 22.7366 150.398 25.1699V31.7651H153.639V24.7216C153.705 21.0078 151.695 18.8948 147.611 18.8948Z" fill="white"></path>
          <path d="M138.082 19.1506V31.8289H141.258V24.0811V19.1506H138.082Z" fill="white"></path>
          <path d="M23.0797 9.7381C21.3293 9.22585 19.3198 8.96973 17.2454 8.96973C6.87321 8.96973 0.390625 14.9887 0.390625 24.5934C0.390625 34.1983 6.87321 40.2171 17.2454 40.2171C27.6175 40.2171 34.1001 34.1983 34.1001 24.5934C34.1001 22.2883 33.7112 20.2393 33.0629 18.3823C26.7747 19.2147 22.6908 15.3088 23.0797 9.7381ZM17.2454 30.0362C13.68 30.0362 11.4759 27.9871 11.4759 24.6575C11.4759 21.3278 13.68 19.2787 17.2454 19.2787C20.8108 19.2787 23.0149 21.3278 23.0149 24.6575C23.0149 27.9871 20.746 30.0362 17.2454 30.0362Z" fill="white"></path>
          <path d="M31.5078 15.8852C34.6942 15.8852 37.2774 13.4771 37.2774 10.5065C37.2774 7.53604 34.6942 5.12793 31.5078 5.12793C28.3215 5.12793 25.7383 7.53604 25.7383 10.5065C25.7383 13.4771 28.3215 15.8852 31.5078 15.8852Z" fill="white"></path>
        </g>
      </g>
    </g>
  </g>
  <defs>
    <clipPath id="clip0_870_6292">
      <rect width="154" height="45" fill="white"></rect>
    </clipPath>
  </defs>
</svg>
