<?xml version="1.0" encoding="UTF-8"?>
<svg xmlns="http://www.w3.org/2000/svg" width="143" height="45" viewBox="0 0 143 45" fill="none">
  <path fill-rule="evenodd" clip-rule="evenodd" d="M44.8909 0C55.7383 0 64.7449 8.03562 66.2849 18.4721C66.3436 18.9639 66.1844 19.1319 65.8854 19.1319C65.476 19.1319 65.066 18.8706 64.9791 18.4721C63.5396 9.2163 55.5425 2.13291 45.8917 2.13291C43.1121 2.13291 40.4704 2.72186 38.0821 3.77958C31.9227 6.1392 27.288 11.6025 26.0907 18.2475C25.9752 18.8532 25.4294 19.3464 24.6124 19.3464C24.0146 19.3464 23.4605 18.8406 23.5306 18.2475C25.1659 7.92035 34.1209 0 44.8909 0ZM62.3871 30.544C62.6311 29.8873 63.0844 29.4493 63.9435 29.4493C64.5734 29.4493 65.3042 29.8401 65.0857 30.5423C62.117 38.9552 54.0941 45 44.6862 45C35.1942 45 27.1113 38.8476 24.2075 30.3173C24.0333 29.8213 24.2874 29.6575 24.5868 29.6575C24.9961 29.6575 25.342 29.9201 25.4931 30.3173C28.207 37.7109 35.3037 42.9855 43.6313 42.9855C46.994 42.9855 50.156 42.1248 52.9101 40.6123C57.1881 38.5611 60.5892 34.9618 62.3871 30.544ZM79.5031 35.1927C79.0313 35.1927 78.7249 34.8385 78.7249 34.2244C78.7249 32.8785 79.4793 31.2255 81.9804 29.8559C81.5557 32.5952 80.9893 35.1927 79.5031 35.1927ZM57.3043 32.8313C57.3043 34.3191 56.9976 34.9332 56.62 34.9332C56.2428 34.9332 55.8889 34.6265 55.8889 32.8788C55.8889 31.6273 56.219 29.0298 56.219 29.0298L56.2383 29.0539C56.5368 29.426 57.3043 30.3833 57.3043 32.8313ZM31.5418 26.7388C31.07 27.66 30.3148 28.0142 29.9373 28.0142C29.395 28.0142 28.9231 27.6362 28.9231 26.2903C28.9231 24.1651 30.1261 21.9686 31.353 21.9686C32.037 21.9686 32.4146 22.5355 32.4146 23.244C32.4146 23.8109 32.1316 25.6053 31.5418 26.7388ZM24.0156 21.7562C24.299 21.7562 24.5583 21.9686 24.5583 22.2994C24.5583 24.1413 23.473 25.0387 21.8454 25.0387C22.1521 23.4329 22.9778 21.7562 24.0156 21.7562ZM85.4008 27.9904C85.3274 27.9904 85.2212 28.0652 85.0886 28.1587C84.9231 28.2753 84.7164 28.4209 84.4806 28.4865C85.1531 25.1504 85.6715 23.5369 85.9686 22.6123C86.1509 22.0447 86.2499 21.7367 86.2499 21.4492C86.2499 21.1893 86.0848 21.1187 85.8726 21.1187C85.5188 21.1187 84.9524 21.2368 83.8671 21.4729C83.3956 21.5672 83.3248 21.8037 83.2777 22.1813C83.1597 23.1493 82.7821 25.1096 82.4045 25.7709C81.8856 26.6679 80.8241 27.6362 79.8333 27.6362C79.4791 27.6362 79.2436 27.3292 79.2436 26.8335C79.2436 25.9985 79.7043 24.7456 80.1167 23.6241C80.4508 22.7155 80.7532 21.8932 80.7532 21.4492C80.7532 21.1893 80.5882 21.1187 80.376 21.1187C80.0218 21.1187 79.4557 21.2368 78.3708 21.4729C77.9223 21.5672 77.8515 21.8037 77.7807 22.1813C77.7033 22.5402 77.58 22.9725 77.4452 23.4456L77.4451 23.4457C77.1432 24.5047 76.7829 25.7684 76.7477 26.873C76.323 27.2894 75.8163 27.6362 75.2566 27.6362C74.9027 27.6362 74.6668 27.3292 74.6668 26.8335C74.6668 24.4009 76.7428 18.7336 77.2851 17.4583C77.5204 16.909 77.7343 16.4929 77.8941 16.1819L77.8942 16.1818L77.8942 16.1818C78.071 15.8378 78.1816 15.6226 78.1816 15.4986C78.1816 15.2621 77.9928 15.1207 77.7573 15.1207C76.955 15.1207 75.445 15.711 75.0206 16.2304C74.5959 16.7502 72.1661 24.8263 72.1661 27.0459C72.1661 27.1003 72.1699 27.1517 72.1738 27.2032L72.1739 27.2034L72.1748 27.2153C71.8433 27.4626 71.4754 27.6362 71.0807 27.6362C70.7269 27.6362 70.491 27.3292 70.491 26.8335C70.491 24.4009 72.567 18.7336 73.1097 17.4583C73.3449 16.9091 73.5588 16.493 73.7186 16.182L73.7187 16.1819L73.7188 16.1818C73.8956 15.8378 74.0062 15.6226 74.0062 15.4986C74.0062 15.2621 73.8174 15.1207 73.5815 15.1207C72.7792 15.1207 71.2695 15.711 70.8448 16.2304C70.4201 16.7502 67.9902 24.8263 67.9902 27.0459C67.9902 27.202 68.007 27.346 68.0381 27.478C67.8276 27.5758 67.6071 27.6362 67.3768 27.6362C67.0229 27.6362 66.787 27.3292 66.787 26.8335C66.787 25.9985 67.2478 24.7456 67.6603 23.6241C67.9945 22.7155 68.297 21.8932 68.297 21.4492C68.297 21.1893 68.1319 21.1187 67.9194 21.1187C67.5656 21.1187 66.9995 21.2368 65.9142 21.4729C65.4424 21.5672 65.3716 21.8037 65.3245 22.1813C65.1831 23.1259 64.6876 25.2277 64.31 25.889C63.7911 26.786 62.8712 27.6362 61.8801 27.6362C61.5262 27.6362 61.2903 27.3292 61.2903 26.8335C61.2903 25.9985 61.7512 24.7456 62.1637 23.6241C62.4979 22.7155 62.8003 21.8932 62.8003 21.4492C62.8003 21.1893 62.6353 21.1187 62.4228 21.1187C62.0689 21.1187 61.5025 21.2368 60.4176 21.4729C59.9929 21.5672 59.922 21.8271 59.8278 22.1813C59.7649 22.4187 59.6842 22.6947 59.5957 22.9976C59.2734 24.1004 58.8469 25.5597 58.7962 26.8063C58.2389 27.3135 57.4318 27.8787 56.478 28.0376C57.0912 24.4956 58.0822 21.2368 59.0496 18.4975C59.4017 17.5106 59.7874 16.7004 60.0411 16.1675C60.2123 15.8079 60.3233 15.5746 60.3233 15.4986C60.3233 15.2621 60.1345 15.1207 59.8986 15.1207C59.0967 15.1207 57.5867 15.711 57.162 16.2304C56.7373 16.7502 54.7558 23.7162 54.3311 25.9361C54.0247 25.9361 53.3167 26.2903 53.3167 27.3292C53.3167 27.3529 53.3188 27.3774 53.323 27.4018C53.0696 27.5447 52.7988 27.6362 52.5144 27.6362C52.1605 27.6362 51.9246 27.3292 51.9246 26.8335C51.9246 26.0072 52.1855 25.1951 52.422 24.4588C52.6181 23.8483 52.7974 23.2899 52.7974 22.8188C52.7974 21.78 52.2314 21.1893 51.0044 21.1893C49.4476 21.1893 47.4658 23.1493 47.4658 23.1493C48.076 20.4122 48.6674 19.0453 49.1729 17.8771L49.1729 17.877C49.2342 17.7352 49.2943 17.5963 49.353 17.4583C49.5883 16.909 49.8023 16.4928 49.9621 16.1819C50.1389 15.8378 50.2496 15.6226 50.2496 15.4986C50.2496 15.2621 50.0608 15.1207 49.8249 15.1207C49.0229 15.1207 47.5129 15.711 47.0886 16.2304C46.7183 16.6835 44.7159 23.9223 44.2092 27.2405C43.8864 27.4748 43.5297 27.6362 43.1487 27.6362C42.7948 27.6362 42.5589 27.3292 42.5589 26.8335C42.5589 25.2494 43.1563 23.1084 43.7109 21.4523H44.4866C44.9884 21.4523 45.2247 20.643 45.2247 20.4487C45.2247 20.3998 45.1954 20.3516 45.1657 20.3516C45.1513 20.3516 45.1351 20.3656 45.1123 20.3852C45.0574 20.4326 44.9637 20.5134 44.762 20.5134H44.0563L44.0689 20.4812C44.2018 20.1198 44.3347 19.8043 44.443 19.5473C44.4692 19.4851 44.494 19.4263 44.517 19.3711C44.7522 18.822 44.966 18.4059 45.1259 18.0949L45.1259 18.0948C45.3028 17.7506 45.4135 17.5352 45.4135 17.4111C45.4135 17.175 45.2247 17.0335 44.9888 17.0335C44.1865 17.0335 42.6769 17.6238 42.2522 18.1433C42.0871 18.3323 41.757 19.2768 41.4028 20.4812L41.393 20.5134H40.3517C39.8596 20.5134 39.6331 21.3227 39.6331 21.5169C39.6331 21.5655 39.6429 21.6141 39.6823 21.6141C39.7008 21.6141 39.7202 21.5982 39.7469 21.5765C39.8056 21.5287 39.8995 21.4523 40.0955 21.4523H41.1187C40.6061 23.3257 40.1241 25.5316 40.0648 26.7996C39.6258 27.2478 39.0933 27.6362 38.5014 27.6362C38.1472 27.6362 37.9113 27.3292 37.9113 26.8335C37.9113 24.4009 39.9873 18.7336 40.53 17.4583C40.7652 16.909 40.9792 16.4928 41.139 16.1819C41.3159 15.8378 41.4265 15.6226 41.4265 15.4986C41.4265 15.2621 41.2377 15.1207 41.0018 15.1207C40.1999 15.1207 38.6898 15.711 38.2652 16.2304C37.8408 16.7502 35.4109 24.8263 35.4109 27.0459C35.4109 27.202 35.4273 27.346 35.4584 27.478C35.2479 27.5758 35.0274 27.6362 34.7974 27.6362C34.4436 27.6362 34.2076 27.3292 34.2076 26.8335C34.2076 25.8652 34.8916 23.5748 35.2926 22.6302C35.5062 22.1357 35.7198 21.8454 35.8649 21.6481C35.9763 21.4966 36.0474 21.3999 36.0474 21.3077C36.0474 21.1659 35.9532 21.0478 35.8119 21.0478C35.3163 21.0478 33.9717 21.3786 33.3111 21.9452C33.2166 22.0395 33.1223 22.087 33.0515 22.087C32.9807 22.087 32.9336 22.0633 32.8156 21.9452C32.4617 21.591 31.8957 21.1893 30.9992 21.1893C28.5218 21.1893 26.4933 23.5982 26.4933 26.1723C26.4933 26.3522 26.509 26.517 26.532 26.6749C25.9098 27.1996 24.9173 27.8015 23.6383 27.8015C22.3883 27.8015 21.7748 26.9278 21.7748 25.6528C23.9454 25.6528 26.375 24.8026 26.375 22.866C26.375 21.9218 25.573 21.1893 24.2047 21.1893C21.5389 21.1893 19.2032 23.5982 19.2032 25.9361C19.2032 26.5034 19.316 26.9645 19.5107 27.3376C19.2273 27.5154 18.9227 27.6362 18.6135 27.6362C18.0708 27.6362 17.7404 27.282 17.7404 26.5974C17.7404 25.4247 18.2216 23.4438 18.8009 21.4712H20.2669C21.7521 21.4712 22.4515 20.0132 22.4515 19.6635C22.4515 19.5758 22.3639 19.4885 22.2766 19.4885C22.234 19.4885 22.1862 19.5135 22.1188 19.549C21.9562 19.6343 21.6792 19.7798 21.0825 19.7798H19.3268C19.5875 18.9607 19.8423 18.1894 20.0602 17.53L20.0603 17.5299C20.3315 16.709 20.5455 16.0614 20.6421 15.711C20.9318 14.6677 21.2924 14.0067 21.5277 13.5752C21.6759 13.3036 21.7745 13.1229 21.7745 12.9951C21.7745 12.6646 21.6094 12.5466 21.3264 12.5466C20.9725 12.5466 19.6751 12.8536 18.7785 13.1607C17.882 13.4677 17.7641 13.8219 17.2452 15.6167C17.0278 16.3345 16.5901 17.9749 16.1536 19.7798H11.529C11.6398 19.4159 11.7511 19.0491 11.8594 18.6925C12.2428 17.4289 12.5879 16.2917 12.7392 15.8528C12.9544 15.2269 13.183 14.6455 13.3727 14.163C13.6197 13.535 13.8008 13.0744 13.8008 12.9008C13.8008 12.5941 13.6591 12.4285 13.3998 12.4285C13.0416 12.4285 12.503 12.6438 11.9158 12.8785C11.42 13.0767 10.8895 13.2887 10.4036 13.3968C9.76669 13.5386 9.60162 14.3651 9.34199 15.9C9.21287 16.6538 8.90682 18.1744 8.54982 19.7798H8.03299C6.57673 19.7798 5.9067 21.2378 5.9067 21.5875C5.9067 21.6752 5.93567 21.7625 6.05222 21.7625C6.10689 21.7625 6.16439 21.734 6.24343 21.6949C6.41718 21.6088 6.69502 21.4712 7.27572 21.4712H8.17572C7.82186 22.932 7.46626 24.2688 7.21884 24.9916C6.65246 26.5736 5.80341 27.9667 4.41136 27.9667C3.01966 27.9667 2.26448 27.1877 2.26448 26.3137C2.26448 25.7527 2.60251 25.4325 2.96358 25.0905C3.37745 24.6985 3.82159 24.2779 3.82159 23.4329C3.82159 22.6302 3.34978 21.9218 2.28821 21.9218C1.22664 21.9218 0 22.8898 0 24.6608C0 26.8098 1.69845 28.746 4.7181 28.746C6.98293 28.746 8.63427 27.849 9.53078 25.8177C9.90976 24.9531 10.4587 23.2405 11.0087 21.4712H15.7537C15.2476 23.6834 14.8153 25.7957 14.8153 26.5499C14.8153 27.7305 15.3813 28.746 17.1506 28.746C18.1595 28.746 19.0626 28.2653 19.763 27.7201C20.3939 28.49 21.4733 28.746 22.5534 28.746C24.412 28.746 25.8013 27.8951 26.6472 27.172C27.0488 28.3474 28.1676 28.746 29.1353 28.746C30.3149 28.746 31.188 28.1085 31.6361 27.7543C31.7303 27.6834 31.8011 27.66 31.8482 27.66C31.8957 27.66 31.9662 27.7071 32.037 27.8252C32.2496 28.2032 32.7214 28.746 33.7592 28.746C34.461 28.746 35.1265 28.4229 35.6946 28.0058C36.068 28.528 36.7597 28.746 37.4632 28.746C38.478 28.746 39.4178 28.0711 40.0938 27.4127C40.2777 28.3677 41.1836 28.746 42.1105 28.746C42.8423 28.746 43.535 28.3949 44.1185 27.9524C44.1014 28.1291 44.0923 28.2853 44.0923 28.4156C44.0923 28.6517 44.2102 28.746 44.399 28.746C44.6349 28.746 46.3808 28.746 46.3808 28.1791C46.3808 27.5653 46.9231 25.133 47.4187 24.2123C47.9142 23.2911 49.2117 22.2285 49.8249 22.2285C50.2495 22.2285 50.4146 22.4175 50.4146 22.7245C50.4146 23.2814 50.2029 23.8987 49.9752 24.5626C49.7103 25.3348 49.4239 26.1699 49.4239 27.0459C49.4239 28.2737 50.4383 28.746 51.4765 28.746C52.2415 28.746 52.9639 28.3621 53.563 27.8909C53.636 27.9923 53.7114 28.0832 53.7678 28.1513C53.8224 28.217 53.8593 28.2615 53.8593 28.2737C53.8593 28.3066 53.8403 28.4777 53.8111 28.7407C53.7143 29.6123 53.5055 31.4926 53.5055 32.6898C53.5055 34.2484 54.2132 35.7358 55.9587 35.7358C57.7046 35.7358 58.2473 33.6105 58.2473 32.3356C58.2473 29.8795 56.4305 28.5336 56.4305 28.5336C57.4153 28.4156 58.2291 27.9188 58.8252 27.4113C59.0084 28.3673 59.9147 28.746 60.8419 28.746C62.234 28.746 63.909 27.2349 64.2866 26.8335C64.2866 28.3684 65.3011 28.746 66.3389 28.746C67.0407 28.746 67.7065 28.4229 68.2743 28.0062C68.6477 28.528 69.3394 28.746 70.0429 28.746C70.8843 28.746 71.674 28.2818 72.3049 27.7477C72.6159 28.4568 73.4087 28.746 74.2184 28.746C75.2028 28.746 76.1171 28.111 76.7885 27.4717C76.9965 28.3845 77.8868 28.746 78.7951 28.746C80.1872 28.746 82.0507 27.0459 82.4283 26.6445C82.4283 26.6445 82.1453 28.8169 82.027 29.3601C78.8894 30.8478 77.2851 31.9576 77.2851 33.6815C77.2851 34.9331 78.2996 35.6886 79.6679 35.6886C83.1123 35.6886 83.9854 32.4299 84.4335 29.053C84.9995 28.8169 85.613 28.5336 85.613 28.2266C85.613 28.0613 85.5422 27.9904 85.4008 27.9904ZM68.4603 29.779H68.811L69.1994 30.4046L69.5882 29.779H69.9386V31.2587H69.6158V30.2925L69.1994 30.9248H69.1911L68.7793 30.2988V31.2587H68.4603V29.779ZM67.4364 30.0794H66.9866V29.7793H68.2115V30.0794H67.7617V31.259H67.4364V30.0794Z" fill="white"></path>
</svg>
