<?xml version="1.0" encoding="UTF-8"?>
<svg xmlns="http://www.w3.org/2000/svg" width="127" height="100" viewBox="0 0 127 100" fill="none">
  <path d="M63.7128 0L110.009 25L110.009 75L63.7128 100L17.4165 75L17.4166 25H17.4165L63.7128 0Z" fill="white"></path>
  <path fill-rule="evenodd" clip-rule="evenodd" d="M17.4166 25.7407L17.4165 75L63.7128 100L110.009 75L110.009 25L63.7128 0L17.4166 24.9999L17.4165 25M18.1574 25.4418L63.7128 0.841842L109.268 25.4418L109.268 74.5582L63.7128 99.1582L18.1572 74.5582L18.1574 25.4418ZM17.4166 25.7407V24.9999V25.7407Z" fill="#C5C5C5"></path>
  <path d="M63.7096 3.14795L107.135 26.5739L107.136 73.4257L63.7096 96.8516L20.2837 73.4257L20.2838 26.5739H20.2837L63.7096 3.14795Z" fill="#C5C5C5"></path>
  <path d="M20.2837 36.2964H107.136V63.7038H20.2837V36.2964Z" fill="#949494"></path>
  <path d="M103.065 28.5186L63.6211 7.03711L24.3619 28.5186L24.3619 38.7501H103.065L103.065 28.5186Z" fill="white"></path>
  <path d="M63.6211 92.963L103.066 71.4816L103.065 61.2501H24.3619L24.3618 71.4816L63.6211 92.963Z" fill="white"></path>
  <path fill-rule="evenodd" clip-rule="evenodd" d="M63.6212 7.20589L24.5101 28.6064L24.51 38.6019H102.917L102.917 28.6066L63.6212 7.20589ZM103.065 28.5186L63.6211 7.03711L24.3619 28.5186L24.3619 38.7501H103.065L103.065 28.5186ZM102.917 71.3935L102.917 61.3982H24.51L24.51 71.3938L63.6212 92.7943L102.917 71.3935ZM63.6211 92.963L103.066 71.4816L103.065 61.2501H24.3619L24.3618 71.4816L63.6211 92.963Z" fill="#949494"></path>
  <path d="M54.8026 68.2827H55.2366V70.5094C55.2366 70.7565 55.1816 70.9622 55.0716 71.1265C54.9616 71.2908 54.8154 71.4143 54.6331 71.4972C54.4522 71.5786 54.2556 71.6193 54.0431 71.6193C53.82 71.6193 53.6181 71.5786 53.4372 71.4972C53.2579 71.4143 53.1155 71.2908 53.01 71.1265C52.906 70.9622 52.854 70.7565 52.854 70.5094V68.2827H53.2858V70.5094C53.2858 70.6812 53.3174 70.8228 53.3807 70.9344C53.444 71.0459 53.5322 71.1288 53.6452 71.183C53.7597 71.2373 53.8924 71.2644 54.0431 71.2644C54.1953 71.2644 54.3279 71.2373 54.4409 71.183C54.5555 71.1288 54.6444 71.0459 54.7077 70.9344C54.771 70.8228 54.8026 70.6812 54.8026 70.5094V68.2827Z" fill="#6D6C6C"></path>
  <path d="M56.9505 68.2827V71.5741H56.5142V68.2827H56.9505ZM58.9375 68.2827L57.5699 69.8176L56.8013 70.6156L56.7289 70.1499L57.3076 69.5125L58.4131 68.2827H58.9375ZM58.517 71.5741L57.2986 69.9691L57.5586 69.6232L59.037 71.5741H58.517Z" fill="#6D6C6C"></path>
  <path d="M60.0139 68.2827H61.1034C61.3506 68.2827 61.5593 68.3204 61.7296 68.3957C61.9014 68.4711 62.0318 68.5826 62.1207 68.7303C62.2111 68.8765 62.2563 69.0566 62.2563 69.2706C62.2563 69.4213 62.2254 69.5592 62.1636 69.6843C62.1034 69.8078 62.016 69.9133 61.9014 70.0007C61.7884 70.0866 61.6528 70.1507 61.4945 70.1929L61.3725 70.2404H60.3484L60.3439 69.8855H61.117C61.2737 69.8855 61.4041 69.8583 61.5081 69.8041C61.6121 69.7483 61.6904 69.6737 61.7432 69.5803C61.7959 69.4868 61.8223 69.3836 61.8223 69.2706C61.8223 69.144 61.7974 69.0332 61.7477 68.9383C61.698 68.8433 61.6196 68.7702 61.5126 68.719C61.4071 68.6663 61.2707 68.6399 61.1034 68.6399H60.4501V71.5741H60.0139V68.2827ZM61.9376 71.5741L61.1374 70.0821L61.5917 70.0799L62.4033 71.547V71.5741H61.9376Z" fill="#6D6C6C"></path>
  <path d="M64.6777 68.5743L63.5881 71.5741H63.1428L64.3974 68.2827H64.6845L64.6777 68.5743ZM65.591 71.5741L64.4991 68.5743L64.4924 68.2827H64.7794L66.0386 71.5741H65.591ZM65.5345 70.3556V70.7128H63.6853V70.3556H65.5345Z" fill="#6D6C6C"></path>
  <path d="M67.5399 68.2827V71.5741H67.1036V68.2827H67.5399Z" fill="#6D6C6C"></path>
  <path d="M71.4578 68.2827V71.5741H71.0192L69.3623 69.0355V71.5741H68.926V68.2827H69.3623L71.026 70.8281V68.2827H71.4578Z" fill="#6D6C6C"></path>
  <path d="M74.9145 71.2192V71.5741H73.1716V71.2192H74.9145ZM73.2598 68.2827V71.5741H72.8235V68.2827H73.2598ZM74.6839 69.6978V70.0527H73.1716V69.6978H74.6839ZM74.8919 68.2827V68.6399H73.1716V68.2827H74.8919Z" fill="#6D6C6C"></path>
  <path d="M59.9544 79.6561V79.9997H57.8001V79.699L58.8784 78.4987C59.011 78.351 59.1135 78.2259 59.1858 78.1234C59.2597 78.0194 59.3109 77.9267 59.3396 77.8454C59.3697 77.7625 59.3848 77.6781 59.3848 77.5922C59.3848 77.4837 59.3622 77.3857 59.3169 77.2983C59.2732 77.2094 59.2084 77.1386 59.1225 77.0858C59.0366 77.0331 58.9327 77.0067 58.8106 77.0067C58.6644 77.0067 58.5423 77.0353 58.4444 77.0926C58.3479 77.1484 58.2756 77.2267 58.2274 77.3277C58.1791 77.4287 58.155 77.5447 58.155 77.6758H57.7368C57.7368 77.4905 57.7775 77.3209 57.8589 77.1672C57.9403 77.0135 58.0608 76.8914 58.2206 76.801C58.3803 76.7091 58.577 76.6631 58.8106 76.6631C59.0186 76.6631 59.1964 76.7 59.3441 76.7739C59.4918 76.8462 59.6048 76.9487 59.6832 77.0813C59.763 77.2124 59.803 77.3661 59.803 77.5424C59.803 77.6389 59.7864 77.7369 59.7532 77.8363C59.7216 77.9343 59.6771 78.0322 59.6199 78.1302C59.5641 78.2281 59.4985 78.3246 59.4232 78.4195C59.3493 78.5145 59.2702 78.6079 59.1858 78.6999L58.3042 79.6561H59.9544Z" fill="#6D6C6C"></path>
  <path d="M63.0608 78.0918V78.5936C63.0608 78.8634 63.0366 79.0909 62.9884 79.2763C62.9402 79.4617 62.8709 79.6109 62.7805 79.7239C62.69 79.8369 62.5808 79.919 62.4527 79.9703C62.3261 80.02 62.1829 80.0449 62.0232 80.0449C61.8966 80.0449 61.7798 80.0291 61.6728 79.9974C61.5658 79.9658 61.4693 79.9153 61.3834 79.846C61.299 79.7751 61.2267 79.6832 61.1664 79.5702C61.1061 79.4571 61.0602 79.32 61.0285 79.1587C60.9969 78.9975 60.981 78.8091 60.981 78.5936V78.0918C60.981 77.822 61.0052 77.5959 61.0534 77.4136C61.1031 77.2312 61.1732 77.0851 61.2636 76.975C61.354 76.8635 61.4625 76.7836 61.5891 76.7354C61.7172 76.6872 61.8604 76.6631 62.0186 76.6631C62.1467 76.6631 62.2643 76.6789 62.3713 76.7106C62.4798 76.7407 62.5762 76.7897 62.6606 76.8575C62.745 76.9238 62.8166 77.0127 62.8754 77.1242C62.9357 77.2343 62.9816 77.3691 63.0133 77.5289C63.0449 77.6886 63.0608 77.8763 63.0608 78.0918ZM62.6403 78.6614V78.0217C62.6403 77.874 62.6313 77.7444 62.6132 77.6329C62.5966 77.5198 62.5717 77.4234 62.5386 77.3435C62.5054 77.2636 62.4632 77.1988 62.412 77.1491C62.3622 77.0994 62.3042 77.0632 62.2379 77.0406C62.1731 77.0165 62.1 77.0044 62.0186 77.0044C61.9192 77.0044 61.831 77.0233 61.7542 77.0609C61.6773 77.0971 61.6125 77.1551 61.5597 77.235C61.5085 77.3149 61.4693 77.4196 61.4422 77.5492C61.4151 77.6788 61.4015 77.8363 61.4015 78.0217V78.6614C61.4015 78.8091 61.4098 78.9395 61.4264 79.0525C61.4445 79.1655 61.4708 79.2635 61.5055 79.3464C61.5402 79.4278 61.5824 79.4948 61.6321 79.5476C61.6818 79.6003 61.7391 79.6395 61.8039 79.6651C61.8702 79.6892 61.9433 79.7013 62.0232 79.7013C62.1256 79.7013 62.2153 79.6817 62.2922 79.6425C62.369 79.6033 62.4331 79.5423 62.4843 79.4594C62.5371 79.375 62.5762 79.2673 62.6019 79.1361C62.6275 79.0035 62.6403 78.8453 62.6403 78.6614Z" fill="#6D6C6C"></path>
  <path d="M66.3479 79.6561V79.9997H64.1936V79.699L65.2719 78.4987C65.4045 78.351 65.507 78.2259 65.5794 78.1234C65.6532 78.0194 65.7044 77.9267 65.7331 77.8454C65.7632 77.7625 65.7783 77.6781 65.7783 77.5922C65.7783 77.4837 65.7557 77.3857 65.7105 77.2983C65.6668 77.2094 65.602 77.1386 65.5161 77.0858C65.4302 77.0331 65.3262 77.0067 65.2041 77.0067C65.0579 77.0067 64.9358 77.0353 64.8379 77.0926C64.7414 77.1484 64.6691 77.2267 64.6209 77.3277C64.5726 77.4287 64.5485 77.5447 64.5485 77.6758H64.1303C64.1303 77.4905 64.171 77.3209 64.2524 77.1672C64.3338 77.0135 64.4543 76.8914 64.6141 76.801C64.7738 76.7091 64.9705 76.6631 65.2041 76.6631C65.4121 76.6631 65.5899 76.7 65.7376 76.7739C65.8853 76.8462 65.9983 76.9487 66.0767 77.0813C66.1565 77.2124 66.1965 77.3661 66.1965 77.5424C66.1965 77.6389 66.1799 77.7369 66.1468 77.8363C66.1151 77.9343 66.0706 78.0322 66.0134 78.1302C65.9576 78.2281 65.8921 78.3246 65.8167 78.4195C65.7429 78.5145 65.6637 78.6079 65.5794 78.6999L64.6977 79.6561H66.3479Z" fill="#6D6C6C"></path>
  <path d="M67.9985 78.1483H68.2969C68.4431 78.1483 68.5636 78.1242 68.6586 78.0759C68.755 78.0262 68.8266 77.9591 68.8733 77.8747C68.9215 77.7888 68.9457 77.6924 68.9457 77.5854C68.9457 77.4588 68.9246 77.3526 68.8824 77.2667C68.8402 77.1808 68.7769 77.116 68.6925 77.0722C68.6081 77.0285 68.5011 77.0067 68.3715 77.0067C68.2539 77.0067 68.1499 77.0301 68.0595 77.0768C67.9706 77.122 67.9005 77.1868 67.8493 77.2712C67.7995 77.3556 67.7747 77.455 67.7747 77.5696H67.3565C67.3565 77.4023 67.3987 77.2501 67.4831 77.1129C67.5675 76.9758 67.6858 76.8665 67.838 76.7852C67.9917 76.7038 68.1695 76.6631 68.3715 76.6631C68.5704 76.6631 68.7445 76.6985 68.8937 76.7693C69.0429 76.8387 69.1589 76.9426 69.2418 77.0813C69.3247 77.2184 69.3661 77.3895 69.3661 77.5944C69.3661 77.6773 69.3465 77.7662 69.3073 77.8612C69.2697 77.9546 69.2101 78.042 69.1288 78.1234C69.0489 78.2048 68.9449 78.2719 68.8168 78.3246C68.6887 78.3758 68.535 78.4015 68.3556 78.4015H67.9985V78.1483ZM67.9985 78.4919V78.241H68.3556C68.5651 78.241 68.7384 78.2658 68.8756 78.3156C69.0127 78.3653 69.1205 78.4316 69.1988 78.5145C69.2787 78.5974 69.3345 78.6885 69.3661 78.788C69.3993 78.886 69.4158 78.9839 69.4158 79.0819C69.4158 79.2356 69.3895 79.372 69.3367 79.491C69.2855 79.6101 69.2124 79.7111 69.1175 79.794C69.024 79.8769 68.914 79.9394 68.7874 79.9816C68.6608 80.0238 68.5229 80.0449 68.3737 80.0449C68.2306 80.0449 68.0957 80.0245 67.9691 79.9839C67.844 79.9432 67.7332 79.8844 67.6368 79.8075C67.5403 79.7292 67.465 79.6335 67.4107 79.5204C67.3565 79.4059 67.3294 79.2755 67.3294 79.1294H67.7476C67.7476 79.2439 67.7724 79.3441 67.8222 79.43C67.8734 79.5159 67.9457 79.583 68.0392 79.6312C68.1341 79.6779 68.2456 79.7013 68.3737 79.7013C68.5018 79.7013 68.6118 79.6794 68.7038 79.6357C68.7972 79.5905 68.8688 79.5227 68.9185 79.4323C68.9698 79.3419 68.9954 79.2281 68.9954 79.0909C68.9954 78.9538 68.9668 78.8415 68.9095 78.7541C68.8522 78.6652 68.7708 78.5996 68.6653 78.5574C68.5614 78.5137 68.4385 78.4919 68.2969 78.4919H67.9985Z" fill="#6D6C6C"></path>
  <path d="M60.4673 12.3032V15.4629H60.055V12.3032H60.4673ZM61.4829 12.3032V12.6461H59.0415V12.3032H61.4829Z" fill="#6D6C6C"></path>
  <path d="M65.0644 13.7832V13.9829C65.0644 14.2201 65.0347 14.4328 64.9754 14.6209C64.9161 14.809 64.8307 14.9688 64.7193 15.1005C64.6079 15.2321 64.4741 15.3327 64.3178 15.4021C64.163 15.4716 63.9894 15.5063 63.797 15.5063C63.6104 15.5063 63.4389 15.4716 63.2827 15.4021C63.1279 15.3327 62.9933 15.2321 62.879 15.1005C62.7662 14.9688 62.6787 14.809 62.6164 14.6209C62.5542 14.4328 62.5231 14.2201 62.5231 13.9829V13.7832C62.5231 13.5459 62.5535 13.334 62.6143 13.1474C62.6765 12.9593 62.764 12.7994 62.8769 12.6678C62.9897 12.5346 63.1235 12.4334 63.2783 12.3639C63.4346 12.2945 63.606 12.2598 63.7927 12.2598C63.9851 12.2598 64.1587 12.2945 64.3135 12.3639C64.4697 12.4334 64.6036 12.5346 64.715 12.6678C64.8278 12.7994 64.9139 12.9593 64.9732 13.1474C65.034 13.334 65.0644 13.5459 65.0644 13.7832ZM64.6499 13.9829V13.7789C64.6499 13.5908 64.6303 13.4244 64.5913 13.2797C64.5537 13.1351 64.498 13.0135 64.4242 12.9151C64.3504 12.8168 64.26 12.7423 64.1529 12.6916C64.0473 12.641 63.9272 12.6157 63.7927 12.6157C63.6625 12.6157 63.5445 12.641 63.4389 12.6916C63.3348 12.7423 63.2451 12.8168 63.1698 12.9151C63.096 13.0135 63.0389 13.1351 62.9984 13.2797C62.9579 13.4244 62.9376 13.5908 62.9376 13.7789V13.9829C62.9376 14.1724 62.9579 14.3402 62.9984 14.4863C63.0389 14.631 63.0968 14.7533 63.172 14.8531C63.2487 14.9515 63.3391 15.026 63.4433 15.0766C63.5489 15.1272 63.6668 15.1526 63.797 15.1526C63.933 15.1526 64.0538 15.1272 64.1594 15.0766C64.265 15.026 64.354 14.9515 64.4263 14.8531C64.5001 14.7533 64.5558 14.631 64.5934 14.4863C64.6311 14.3402 64.6499 14.1724 64.6499 13.9829Z" fill="#6D6C6C"></path>
  <path d="M67.5976 14.2237H66.7535V13.883H67.5976C67.7611 13.883 67.8935 13.857 67.9948 13.8049C68.096 13.7528 68.1698 13.6805 68.2161 13.5879C68.2639 13.4953 68.2877 13.3897 68.2877 13.2711C68.2877 13.1625 68.2639 13.0605 68.2161 12.9651C68.1698 12.8696 68.096 12.7929 67.9948 12.735C67.8935 12.6757 67.7611 12.6461 67.5976 12.6461H66.8511V15.4629H66.4323V12.3032H67.5976C67.8364 12.3032 68.0382 12.3444 68.2031 12.4269C68.368 12.5093 68.4932 12.6236 68.5785 12.7697C68.6639 12.9144 68.7066 13.0801 68.7066 13.2667C68.7066 13.4693 68.6639 13.6421 68.5785 13.7854C68.4932 13.9286 68.368 14.0378 68.2031 14.1131C68.0382 14.1868 67.8364 14.2237 67.5976 14.2237Z" fill="#6D6C6C"></path>
  <path d="M58.0024 20.6828C58.0024 20.6091 57.9909 20.5439 57.9677 20.4875C57.946 20.4297 57.907 20.3776 57.8505 20.3313C57.7956 20.285 57.7189 20.2408 57.6205 20.1989C57.5236 20.1569 57.4006 20.1143 57.2516 20.0709C57.0953 20.0246 56.9543 19.9732 56.8284 19.9168C56.7025 19.8589 56.5947 19.7931 56.505 19.7193C56.4153 19.6455 56.3466 19.5609 56.2989 19.4654C56.2511 19.3699 56.2273 19.2607 56.2273 19.1377C56.2273 19.0147 56.2526 18.9012 56.3032 18.797C56.3539 18.6928 56.4262 18.6024 56.5202 18.5257C56.6157 18.4476 56.7293 18.3868 56.8609 18.3434C56.9926 18.3 57.1394 18.2783 57.3015 18.2783C57.5388 18.2783 57.7399 18.3239 57.9048 18.415C58.0712 18.5047 58.1978 18.6226 58.2846 18.7688C58.3714 18.9134 58.4148 19.0683 58.4148 19.2332H57.9981C57.9981 19.1145 57.9728 19.0097 57.9221 18.9185C57.8715 18.8259 57.7948 18.7536 57.6921 18.7015C57.5894 18.648 57.4592 18.6212 57.3015 18.6212C57.1525 18.6212 57.0295 18.6436 56.9326 18.6885C56.8356 18.7333 56.7633 18.7941 56.7155 18.8708C56.6693 18.9474 56.6461 19.035 56.6461 19.1334C56.6461 19.1999 56.6598 19.2607 56.6873 19.3156C56.7163 19.3692 56.7604 19.4191 56.8197 19.4654C56.8805 19.5117 56.9572 19.5544 57.0498 19.5934C57.1438 19.6325 57.2559 19.6701 57.3861 19.7063C57.5655 19.7569 57.7203 19.8133 57.8505 19.8755C57.9807 19.9378 58.0878 20.0079 58.1717 20.086C58.2571 20.1627 58.32 20.2503 58.3605 20.3486C58.4025 20.4456 58.4234 20.5555 58.4234 20.6785C58.4234 20.8073 58.3974 20.9237 58.3453 21.0279C58.2932 21.1321 58.2187 21.221 58.1218 21.2948C58.0249 21.3686 57.9084 21.4257 57.7724 21.4663C57.6379 21.5053 57.4874 21.5248 57.321 21.5248C57.1749 21.5248 57.0309 21.5046 56.8892 21.4641C56.7488 21.4236 56.6208 21.3628 56.505 21.2818C56.3908 21.2008 56.2989 21.1009 56.2294 20.9823C56.1614 20.8622 56.1274 20.7233 56.1274 20.5656H56.5441C56.5441 20.6742 56.5651 20.7675 56.607 20.8456C56.649 20.9223 56.7061 20.9859 56.7785 21.0366C56.8523 21.0872 56.9355 21.1248 57.028 21.1494C57.1221 21.1726 57.2197 21.1841 57.321 21.1841C57.4671 21.1841 57.5908 21.1639 57.6921 21.1234C57.7934 21.0829 57.8701 21.025 57.9221 20.9498C57.9757 20.8745 58.0024 20.7856 58.0024 20.6828Z" fill="#6D6C6C"></path>
  <path d="M60.8656 18.3217V21.4814H60.4533V18.3217H60.8656ZM61.8812 18.3217V18.6646H59.4398V18.3217H61.8812Z" fill="#6D6C6C"></path>
  <path d="M64.0868 18.6017L63.0408 21.4814H62.6133L63.8177 18.3217H64.0933L64.0868 18.6017ZM64.9635 21.4814L63.9153 18.6017L63.9088 18.3217H64.1844L65.3932 21.4814H64.9635ZM64.9093 20.3117V20.6546H63.1341V20.3117H64.9093Z" fill="#6D6C6C"></path>
  <path d="M66.976 18.3217V21.4814H66.5571V18.3217H66.976ZM68.2998 19.7432V20.086H66.8848V19.7432H68.2998ZM68.5146 18.3217V18.6646H66.8848V18.3217H68.5146Z" fill="#6D6C6C"></path>
  <path d="M70.1733 18.3217V21.4814H69.7545V18.3217H70.1733ZM71.4971 19.7432V20.086H70.0822V19.7432H71.4971ZM71.7119 18.3217V18.6646H70.0822V18.3217H71.7119Z" fill="#6D6C6C"></path>
  <path d="M44.6244 24.6201L43.5784 27.4999H43.1509L44.3553 24.3402H44.6309L44.6244 24.6201ZM45.5011 27.4999L44.453 24.6201L44.4465 24.3402H44.7221L45.9308 27.4999H45.5011ZM45.4469 26.3302V26.6731H43.6717V26.3302H45.4469Z" fill="#6D6C6C"></path>
  <path d="M48.8634 24.3402H49.2801V26.4777C49.2801 26.715 49.2273 26.9125 49.1217 27.0702C49.016 27.2279 48.8757 27.3465 48.7006 27.4261C48.527 27.5042 48.3382 27.5433 48.1342 27.5433C47.9201 27.5433 47.7263 27.5042 47.5526 27.4261C47.3805 27.3465 47.2438 27.2279 47.1425 27.0702C47.0427 26.9125 46.9927 26.715 46.9927 26.4777V24.3402H47.4072V26.4777C47.4072 26.6427 47.4376 26.7787 47.4984 26.8857C47.5592 26.9928 47.6438 27.0724 47.7523 27.1244C47.8623 27.1765 47.9896 27.2026 48.1342 27.2026C48.2804 27.2026 48.4077 27.1765 48.5162 27.1244C48.6261 27.0724 48.7115 26.9928 48.7723 26.8857C48.833 26.7787 48.8634 26.6427 48.8634 26.4777V24.3402Z" fill="#6D6C6C"></path>
  <path d="M53.0134 25.9265V27.0832C52.9744 27.1411 52.9122 27.2062 52.8268 27.2785C52.7414 27.3494 52.6235 27.4116 52.4731 27.4652C52.3241 27.5172 52.1316 27.5433 51.8958 27.5433C51.7034 27.5433 51.5262 27.51 51.3641 27.4435C51.2035 27.3755 51.0639 27.2771 50.9453 27.1483C50.8281 27.0181 50.737 26.8604 50.6719 26.6752C50.6082 26.4886 50.5764 26.2774 50.5764 26.0415V25.7963C50.5764 25.5605 50.6039 25.35 50.6588 25.1648C50.7153 24.9796 50.7977 24.8227 50.9062 24.6939C51.0147 24.5637 51.1478 24.4653 51.3055 24.3987C51.4632 24.3308 51.6441 24.2968 51.8481 24.2968C52.0897 24.2968 52.2915 24.3387 52.4535 24.4226C52.617 24.5051 52.7443 24.6194 52.8355 24.7655C52.9281 24.9116 52.9874 25.078 53.0134 25.2646H52.5946C52.5758 25.1503 52.5382 25.0462 52.4818 24.9521C52.4268 24.8581 52.3479 24.7829 52.2452 24.7264C52.1425 24.6686 52.0101 24.6396 51.8481 24.6396C51.702 24.6396 51.5754 24.6664 51.4683 24.7199C51.3612 24.7735 51.273 24.8501 51.2035 24.95C51.1341 25.0498 51.082 25.1706 51.0473 25.3124C51.014 25.4542 50.9974 25.614 50.9974 25.792V26.0415C50.9974 26.2238 51.0184 26.3866 51.0603 26.5298C51.1037 26.6731 51.1652 26.7953 51.2448 26.8966C51.3243 26.9964 51.4191 27.0724 51.5291 27.1244C51.6405 27.1765 51.7634 27.2026 51.898 27.2026C52.047 27.2026 52.1678 27.1903 52.2604 27.1657C52.353 27.1396 52.4253 27.1093 52.4774 27.0745C52.5295 27.0384 52.5693 27.0044 52.5968 26.9725V26.2651H51.8654V25.9265H53.0134Z" fill="#6D6C6C"></path>
  <path d="M54.581 24.3402H54.9868L56.022 26.9161L57.055 24.3402H57.4629L56.1782 27.4999H55.8614L54.581 24.3402ZM54.4486 24.3402H54.8067L54.8653 26.2672V27.4999H54.4486V24.3402ZM57.2351 24.3402H57.5932V27.4999H57.1765V26.2672L57.2351 24.3402Z" fill="#6D6C6C"></path>
  <path d="M61.077 27.1592V27.4999H59.4038V27.1592H61.077ZM59.4884 24.3402V27.4999H59.0696V24.3402H59.4884ZM60.8556 25.6987V26.0394H59.4038V25.6987H60.8556ZM61.0553 24.3402V24.683H59.4038V24.3402H61.0553Z" fill="#6D6C6C"></path>
  <path d="M64.7669 24.3402V27.4999H64.3459L62.7552 25.0628V27.4999H62.3364V24.3402H62.7552L64.3524 26.7837V24.3402H64.7669Z" fill="#6D6C6C"></path>
  <path d="M67.3523 24.3402V27.4999H66.9399V24.3402H67.3523ZM68.3679 24.3402V24.683H65.9265V24.3402H68.3679Z" fill="#6D6C6C"></path>
  <path d="M70.5735 24.6201L69.5275 27.4999H69.1L70.3044 24.3402H70.58L70.5735 24.6201ZM71.4502 27.4999L70.402 24.6201L70.3955 24.3402H70.6711L71.8799 27.4999H71.4502ZM71.396 26.3302V26.6731H69.6208V26.3302H71.396Z" fill="#6D6C6C"></path>
  <path d="M73.9292 24.3402V27.4999H73.5169V24.3402H73.9292ZM74.9449 24.3402V24.683H72.5035V24.3402H74.9449Z" fill="#6D6C6C"></path>
  <path d="M76.6036 24.3402V27.4999H76.1847V24.3402H76.6036Z" fill="#6D6C6C"></path>
  <path d="M80.5388 25.8202V26.0198C80.5388 26.2571 80.5091 26.4698 80.4498 26.6579C80.3905 26.8459 80.3051 27.0058 80.1937 27.1375C80.0823 27.2691 79.9485 27.3697 79.7922 27.4391C79.6374 27.5086 79.4638 27.5433 79.2714 27.5433C79.0848 27.5433 78.9133 27.5086 78.7571 27.4391C78.6023 27.3697 78.4677 27.2691 78.3534 27.1375C78.2406 27.0058 78.1531 26.8459 78.0908 26.6579C78.0286 26.4698 77.9975 26.2571 77.9975 26.0198V25.8202C77.9975 25.5829 78.0279 25.371 78.0887 25.1843C78.1509 24.9963 78.2384 24.8364 78.3513 24.7047C78.4641 24.5716 78.5979 24.4704 78.7527 24.4009C78.909 24.3315 79.0804 24.2968 79.2671 24.2968C79.4595 24.2968 79.6331 24.3315 79.7879 24.4009C79.9441 24.4704 80.078 24.5716 80.1894 24.7047C80.3022 24.8364 80.3883 24.9963 80.4476 25.1843C80.5084 25.371 80.5388 25.5829 80.5388 25.8202ZM80.1243 26.0198V25.8159C80.1243 25.6278 80.1047 25.4614 80.0657 25.3167C80.0281 25.172 79.9724 25.0505 79.8986 24.9521C79.8248 24.8538 79.7344 24.7792 79.6273 24.7286C79.5217 24.678 79.4016 24.6527 79.2671 24.6527C79.1369 24.6527 79.0189 24.678 78.9133 24.7286C78.8092 24.7792 78.7195 24.8538 78.6442 24.9521C78.5704 25.0505 78.5133 25.172 78.4728 25.3167C78.4323 25.4614 78.412 25.6278 78.412 25.8159V26.0198C78.412 26.2094 78.4323 26.3772 78.4728 26.5233C78.5133 26.668 78.5712 26.7902 78.6464 26.8901C78.7231 26.9884 78.8135 27.063 78.9177 27.1136C79.0233 27.1642 79.1412 27.1895 79.2714 27.1895C79.4074 27.1895 79.5282 27.1642 79.6338 27.1136C79.7394 27.063 79.8284 26.9884 79.9007 26.8901C79.9745 26.7902 80.0302 26.668 80.0678 26.5233C80.1055 26.3772 80.1243 26.2094 80.1243 26.0198Z" fill="#6D6C6C"></path>
  <path d="M84.3372 24.3402V27.4999H83.9162L82.3255 25.0628V27.4999H81.9067V24.3402H82.3255L83.9227 26.7837V24.3402H84.3372Z" fill="#6D6C6C"></path>
  <path d="M53.446 32.5138H53.8627C53.841 32.7134 53.7838 32.8921 53.6912 33.0498C53.5987 33.2075 53.4677 33.3326 53.2984 33.4252C53.1292 33.5164 52.918 33.562 52.6648 33.562C52.4796 33.562 52.311 33.5272 52.1591 33.4578C52.0087 33.3883 51.8792 33.29 51.7707 33.1627C51.6622 33.0339 51.5783 32.8798 51.5189 32.7004C51.4611 32.5196 51.4321 32.3185 51.4321 32.0971V31.7824C51.4321 31.5611 51.4611 31.3607 51.5189 31.1813C51.5783 31.0005 51.6629 30.8457 51.7728 30.7169C51.8842 30.5881 52.0181 30.489 52.1743 30.4196C52.3306 30.3502 52.5063 30.3154 52.7017 30.3154C52.9404 30.3154 53.1422 30.3603 53.3071 30.45C53.4721 30.5397 53.6001 30.6641 53.6912 30.8232C53.7838 30.9809 53.841 31.164 53.8627 31.3723H53.446C53.4258 31.2247 53.3881 31.0981 53.3332 30.9925C53.2782 30.8855 53.2001 30.803 53.0988 30.7451C52.9975 30.6872 52.8651 30.6583 52.7017 30.6583C52.5613 30.6583 52.4376 30.6851 52.3306 30.7386C52.225 30.7921 52.136 30.8681 52.0636 30.9665C51.9927 31.0649 51.9392 31.1828 51.903 31.3202C51.8669 31.4576 51.8488 31.6103 51.8488 31.7781V32.0971C51.8488 32.2519 51.8647 32.3973 51.8965 32.5333C51.9298 32.6693 51.9797 32.7887 52.0463 32.8914C52.1128 32.9941 52.1975 33.0751 52.3002 33.1344C52.4029 33.1923 52.5244 33.2212 52.6648 33.2212C52.8427 33.2212 52.9845 33.193 53.0901 33.1366C53.1957 33.0802 53.2753 32.9992 53.3288 32.8936C53.3838 32.7879 53.4229 32.6614 53.446 32.5138Z" fill="#6D6C6C"></path>
  <path d="M57.6069 31.8389V32.0385C57.6069 32.2758 57.5772 32.4885 57.5179 32.6765C57.4586 32.8646 57.3732 33.0245 57.2618 33.1561C57.1504 33.2878 57.0166 33.3883 56.8604 33.4578C56.7056 33.5272 56.532 33.562 56.3395 33.562C56.1529 33.562 55.9815 33.5272 55.8252 33.4578C55.6704 33.3883 55.5359 33.2878 55.4216 33.1561C55.3087 33.0245 55.2212 32.8646 55.159 32.6765C55.0968 32.4885 55.0657 32.2758 55.0657 32.0385V31.8389C55.0657 31.6016 55.096 31.3896 55.1568 31.203C55.219 31.0149 55.3066 30.8551 55.4194 30.7234C55.5322 30.5903 55.6661 30.489 55.8209 30.4196C55.9771 30.3502 56.1486 30.3154 56.3352 30.3154C56.5276 30.3154 56.7012 30.3502 56.856 30.4196C57.0123 30.489 57.1461 30.5903 57.2575 30.7234C57.3704 30.8551 57.4564 31.0149 57.5158 31.203C57.5765 31.3896 57.6069 31.6016 57.6069 31.8389ZM57.1924 32.0385V31.8345C57.1924 31.6464 57.1729 31.4801 57.1338 31.3354C57.0962 31.1907 57.0405 31.0692 56.9667 30.9708C56.8929 30.8724 56.8025 30.7979 56.6954 30.7473C56.5898 30.6967 56.4697 30.6713 56.3352 30.6713C56.205 30.6713 56.0871 30.6967 55.9815 30.7473C55.8773 30.7979 55.7876 30.8724 55.7124 30.9708C55.6386 31.0692 55.5814 31.1907 55.5409 31.3354C55.5004 31.4801 55.4802 31.6464 55.4802 31.8345V32.0385C55.4802 32.228 55.5004 32.3959 55.5409 32.542C55.5814 32.6867 55.6393 32.8089 55.7145 32.9087C55.7912 33.0071 55.8816 33.0816 55.9858 33.1323C56.0914 33.1829 56.2093 33.2082 56.3395 33.2082C56.4755 33.2082 56.5963 33.1829 56.7019 33.1323C56.8076 33.0816 56.8965 33.0071 56.9689 32.9087C57.0427 32.8089 57.0984 32.6867 57.136 32.542C57.1736 32.3959 57.1924 32.228 57.1924 32.0385Z" fill="#6D6C6C"></path>
  <path d="M59.1072 30.3588H59.513L60.5482 32.9348L61.5811 30.3588H61.9891L60.7044 33.5186H60.3876L59.1072 30.3588ZM58.9748 30.3588H59.3329L59.3915 32.2859V33.5186H58.9748V30.3588ZM61.7613 30.3588H62.1193V33.5186H61.7027V32.2859L61.7613 30.3588Z" fill="#6D6C6C"></path>
  <path d="M64.7611 32.2794H63.9169V31.9387H64.7611C64.9246 31.9387 65.057 31.9127 65.1583 31.8606C65.2595 31.8085 65.3333 31.7361 65.3796 31.6436C65.4274 31.551 65.4512 31.4453 65.4512 31.3267C65.4512 31.2182 65.4274 31.1162 65.3796 31.0207C65.3333 30.9252 65.2595 30.8486 65.1583 30.7907C65.057 30.7314 64.9246 30.7017 64.7611 30.7017H64.0146V33.5186H63.5958V30.3588H64.7611C64.9998 30.3588 65.2017 30.4001 65.3666 30.4825C65.5315 30.565 65.6567 30.6793 65.742 30.8254C65.8274 30.9701 65.8701 31.1357 65.8701 31.3224C65.8701 31.5249 65.8274 31.6978 65.742 31.841C65.6567 31.9843 65.5315 32.0935 65.3666 32.1687C65.2017 32.2425 64.9998 32.2794 64.7611 32.2794Z" fill="#6D6C6C"></path>
  <path d="M68.0105 30.6388L66.9645 33.5186H66.537L67.7414 30.3588H68.0171L68.0105 30.6388ZM68.8873 33.5186L67.8391 30.6388L67.8326 30.3588H68.1082L69.317 33.5186H68.8873ZM68.833 32.3489V32.6917H67.0579V32.3489H68.833Z" fill="#6D6C6C"></path>
  <path d="M72.9114 30.3588V33.5186H72.4904L70.8997 31.0815V33.5186H70.4809V30.3588H70.8997L72.4969 32.8024V30.3588H72.9114Z" fill="#6D6C6C"></path>
  <path d="M74.479 30.3588L75.2993 31.9452L76.1218 30.3588H76.5971L75.5076 32.338V33.5186H75.0888V32.338L73.9994 30.3588H74.479Z" fill="#6D6C6C"></path>
  <path fill-rule="evenodd" clip-rule="evenodd" d="M96.9538 36.2962H30.5649V36.2036H96.9538V36.2962Z" fill="#949494"></path>
  <path fill-rule="evenodd" clip-rule="evenodd" d="M96.9538 63.7039H30.5649V63.6113H96.9538V63.7039Z" fill="#949494"></path>
  <path d="M52.5103 43.9351H54.7825V55.7295H52.5103V43.9351Z" fill="white"></path>
  <path d="M62.0808 52.1634C62.0808 54.048 60.4475 54.2194 59.903 54.2194C58.6326 54.2194 58.266 53.1057 58.266 52.506V47.9795H56.5493V52.4204C56.5493 53.534 56.9123 54.562 57.6382 55.1617C58.2734 55.7614 58.9049 56.0184 59.903 56.0184C60.6289 56.0184 61.5364 55.8471 62.0808 55.3331V55.7406H64.0752V47.9795H62.0808V52.1634Z" fill="white"></path>
  <path d="M68.159 45.2588H66.0719V47.9794H64.8071V49.4937H66.0719V55.7405H68.159V49.4937H69.7016V47.9794H68.159V45.2588Z" fill="white"></path>
  <path d="M76.2556 53.5795C75.8032 53.9159 75.17 54.1681 74.5367 54.1681C73.0893 54.1681 72.0942 53.1591 72.0942 51.8136C72.0942 50.4682 73.0893 49.5432 74.5367 49.5432C75.17 49.5432 75.8032 49.7114 76.2556 50.1318L76.527 50.3841L77.9744 49.1228L77.6125 48.8705C76.7983 48.1978 75.7128 47.7773 74.5367 47.7773C72.0038 47.7773 70.104 49.5432 70.104 51.8977C70.104 54.2522 72.0038 56.0181 74.5367 56.0181C75.7128 56.0181 76.7983 55.5976 77.6125 54.9249L77.9744 54.6727L76.527 53.3272L76.2556 53.5795Z" fill="white"></path>
  <path d="M85.3977 48.7573C84.7625 48.1577 83.8495 47.9007 82.8514 47.9007C82.1255 47.9007 81.307 48.072 80.7625 48.586V43.8535H78.7681V55.7405H80.7625V51.4779C80.7625 50.0924 82.2162 49.6997 82.7607 49.6997C84.031 49.6997 84.2181 50.5356 84.2181 51.1353V55.6549H86.3051V51.2209C86.3051 50.1072 86.0329 49.357 85.3977 48.7573Z" fill="white"></path>
  <path d="M74.148 52.963C74.9662 52.963 75.6295 52.2997 75.6295 51.4815C75.6295 50.6633 74.9662 50 74.148 50C73.3298 50 72.6665 50.6633 72.6665 51.4815C72.6665 52.2997 73.3298 52.963 74.148 52.963Z" fill="white"></path>
  <path d="M50.0548 53.0383C49.333 53.7195 48.2504 54.1452 47.0776 54.1452C44.8221 54.1452 43.1982 52.4423 43.1982 50.1435C43.1982 47.8446 44.8221 46.1418 47.1678 46.1418C48.2504 46.1418 49.333 46.5675 50.145 47.3338L50.4157 47.5892L51.7689 46.312L51.4983 46.0566C50.3254 44.9498 48.7917 44.3538 47.1678 44.3538C43.7395 44.2686 41.2134 46.8229 41.2134 50.1435C41.2134 53.4641 43.7395 56.0184 47.0776 56.0184C48.7015 56.0184 50.3254 55.4223 51.4081 54.3155L51.6787 54.0601L50.3254 52.7829L50.0548 53.0383Z" fill="white"></path>
</svg>
