<?xml version="1.0" encoding="UTF-8"?>
<svg xmlns="http://www.w3.org/2000/svg" width="24" height="16" viewBox="0 0 24 16" fill="none">
  <rect x="0.25" y="0.25" width="23.5" height="15.5" rx="0.75" fill="white"></rect>
  <path d="M12.3617 13.8816C12.3574 13.88 12.3536 13.8775 12.3504 13.8744L12.3464 13.871C12.3283 13.8558 12.3111 13.8397 12.2949 13.8229C12.2516 13.7786 12.1934 13.7137 12.1423 13.6564C12.0409 13.5427 11.9572 13.4448 11.9414 13.4263L11.9156 13.3961L11.6629 13.326L11.4784 13.2486L11.577 13.1488L11.9156 13.2793L12.1683 13.326L12.6356 13.6353L12.6353 13.6356C12.6343 13.6363 12.5673 13.6865 12.5007 13.741C12.471 13.7653 12.4336 13.7966 12.4071 13.8225C12.3962 13.833 12.3861 13.8442 12.3768 13.8559C12.3713 13.8642 12.3662 13.8728 12.3617 13.8817M10.6263 13.4125C10.3983 13.4107 10.1749 13.3544 9.97896 13.2495H9.97873V13.2493C10.0026 13.2135 10.0345 13.1826 10.0724 13.1585C10.1355 13.1168 10.2494 13.0669 10.4335 13.0663H10.4373C10.6553 13.0663 10.9221 13.133 11.2303 13.2646C11.0476 13.3623 10.8388 13.4134 10.6263 13.4125ZM9.67069 13.2219C9.63171 13.2226 9.59426 13.2084 9.56755 13.1829C9.54448 13.1588 9.5286 13.1297 9.52135 13.0986C9.51094 13.0581 9.50706 13.0165 9.50993 12.9751C9.526 12.9688 9.54324 12.9653 9.56075 12.9647H9.56439C9.64609 12.9647 9.71048 13.0285 9.73807 13.0917C9.7531 13.1197 9.75629 13.1516 9.74698 13.1815C9.73312 13.2077 9.70296 13.2236 9.67085 13.2217L9.67069 13.2219ZM11.3521 13.0465C10.7873 12.9739 10.5479 12.7902 10.4466 12.6488C10.3824 12.563 10.3522 12.4603 10.3609 12.3571V12.3567H10.3613C10.3897 12.3509 10.4187 12.348 10.4478 12.3481C10.598 12.3481 10.9823 12.4162 11.3523 13.0463L11.3525 13.0467L11.3518 13.0464L11.3521 13.0465ZM10.1945 12.9458C9.95323 12.9458 9.76953 12.9083 9.6485 12.8345C9.59703 12.8049 9.55557 12.7631 9.52857 12.7137C9.51871 12.695 9.5122 12.675 9.50924 12.6545C9.58964 12.6252 9.67518 12.6088 9.76188 12.6062C9.77434 12.6057 9.7869 12.6053 9.80008 12.6053C9.98658 12.6053 10.2702 12.6601 10.5694 12.921L10.5697 12.9212H10.5694C10.445 12.9367 10.3197 12.9449 10.1942 12.9458L10.1945 12.9458ZM9.02615 12.9054C8.77172 12.9054 8.42219 12.8355 8.2042 12.6393L8.20398 12.6391H8.20463C8.37033 12.6038 8.53952 12.5836 8.70968 12.5787C8.72556 12.5783 8.74156 12.5782 8.75767 12.5781C8.99622 12.5781 9.17881 12.6198 9.30043 12.7018C9.3344 12.7202 9.35964 12.7493 9.37129 12.7833C9.37399 12.8085 9.36069 12.8329 9.33693 12.8463C9.28218 12.8835 9.18428 12.9034 9.0459 12.9054L9.02638 12.9059L9.02615 12.9054ZM8.2017 12.5247C8.1705 12.5248 8.14089 12.5122 8.12104 12.4905C8.10269 12.4688 8.09033 12.4435 8.08499 12.4167C8.0767 12.3814 8.07351 12.3452 8.07552 12.3091V12.3086C8.08795 12.3034 8.10146 12.3007 8.11512 12.3005C8.14704 12.3016 8.17723 12.3137 8.19936 12.3344C8.22398 12.3562 8.24276 12.3826 8.25428 12.4119C8.26579 12.4363 8.26788 12.4635 8.26013 12.489C8.25063 12.5106 8.22737 12.5247 8.20157 12.5245L8.2017 12.5247ZM10.106 12.4861C10.067 12.4867 10.0296 12.4726 10.0029 12.447C9.97981 12.4229 9.9639 12.3939 9.95661 12.3628C9.9462 12.3223 9.94233 12.2807 9.94519 12.2393C9.96126 12.233 9.97851 12.2295 9.99601 12.2289H9.99966C10.0814 12.2289 10.1457 12.2927 10.1733 12.3559C10.1884 12.3839 10.1916 12.4158 10.1822 12.4457C10.1684 12.4719 10.1382 12.4878 10.1061 12.4858L10.106 12.4861ZM9.17842 12.4515C8.66641 12.4353 8.40082 12.3043 8.26794 12.1973C8.21113 12.1525 8.16431 12.0983 8.12999 12.0378C8.1172 12.015 8.10731 11.9911 8.10045 11.9664L8.10113 11.9661C8.14212 11.9549 8.18471 11.9492 8.22753 11.9491H8.2395C8.41217 11.9491 8.76369 12.0144 9.17823 12.4514V12.4517L9.17842 12.4515ZM9.73446 12.405C9.32252 12.3485 9.08914 12.1893 8.9659 12.0657C8.88983 11.9922 8.83201 11.905 8.79629 11.8099C8.83793 11.8013 8.88046 11.7966 8.92318 11.7961C8.92868 11.7961 8.9344 11.7959 8.94023 11.7959C8.94605 11.7959 8.9521 11.7959 8.95822 11.7961C9.16541 11.8002 9.54171 11.8846 9.73436 12.4047H9.73468L9.73446 12.405ZM7.61963 12.2269C7.48851 12.2273 7.35782 12.2132 7.23051 12.185C7.01483 12.1364 6.9223 12.0623 6.88267 12.0087C6.86559 11.9865 6.85417 11.9611 6.84912 11.9345C6.84733 11.9241 6.84697 11.9135 6.84811 11.9031L6.84912 11.9027C6.96052 11.8779 7.07479 11.8648 7.18958 11.8638C7.19735 11.8638 7.20519 11.8637 7.21316 11.8637C7.3067 11.8635 7.40005 11.8717 7.4918 11.888C7.69993 11.9271 7.88539 12.0326 8.0141 12.1849V12.1852H8.01367C7.88464 12.2136 7.75218 12.2275 7.61934 12.2267L7.61963 12.2269ZM8.57586 11.9142C8.53704 11.9151 8.49956 11.9013 8.47266 11.8761C8.44952 11.8517 8.43361 11.8224 8.42645 11.791C8.41601 11.7508 8.41217 11.7096 8.41503 11.6684C8.43111 11.6622 8.44835 11.6586 8.46586 11.6581H8.4695C8.55103 11.6581 8.61552 11.7219 8.64321 11.7851C8.65795 11.8128 8.66074 11.8444 8.65111 11.8739C8.6379 11.9002 8.60794 11.9163 8.57596 11.9143L8.57586 11.9142ZM7.85682 11.8255C7.71991 11.7906 7.58895 11.7391 7.46746 11.6725C7.28709 11.5725 7.06643 11.3957 7.03952 11.1211H7.03998C7.05367 11.1184 7.06757 11.1169 7.08156 11.1166C7.08481 11.1166 7.08862 11.1164 7.09242 11.1164C7.1463 11.1164 7.2566 11.13 7.39003 11.2213C7.55987 11.3379 7.71669 11.5411 7.85692 11.826L7.85682 11.8255ZM8.32631 11.8099C8.21458 11.7643 8.11083 11.7043 8.01823 11.6318C7.77893 11.4464 7.59243 11.2122 7.47436 10.9486C7.50384 10.9362 7.53572 10.9291 7.56826 10.9276C7.57151 10.9274 7.57477 10.9273 7.57822 10.9273C7.5831 10.9273 7.58814 10.9273 7.59328 10.9276C7.67172 10.9296 7.79119 10.9589 7.92365 11.0876C8.07578 11.2354 8.21159 11.4782 8.32709 11.8094L8.32742 11.8103L8.32644 11.8101L8.32631 11.8099ZM7.1098 11.778C6.95294 11.778 6.89926 11.7014 6.88345 11.6685C6.8677 11.6342 6.86152 11.5969 6.86542 11.56V11.5594C6.89096 11.5536 6.91719 11.5506 6.94351 11.5502H6.94888C7.05143 11.5479 7.14907 11.5896 7.2119 11.6626C7.22019 11.6737 7.24564 11.7123 7.22458 11.7423C7.20767 11.766 7.16927 11.778 7.10973 11.778L7.1098 11.778ZM6.76232 11.3836C6.64083 11.3838 6.51954 11.3745 6.39984 11.3557C6.26013 11.3328 6.18094 11.2259 6.13913 11.1403C6.11102 11.0817 6.09133 11.0202 6.08056 10.9572H6.08095C6.51309 10.9686 6.71719 11.0822 6.81229 11.1755C6.87121 11.2307 6.90795 11.3021 6.9166 11.3782H6.91631C6.91566 11.3782 6.85482 11.3835 6.76209 11.3835L6.76232 11.3836ZM7.21229 10.9789C7.2117 10.9782 7.16234 10.9232 7.1136 10.8551C7.06243 10.7835 7.01509 10.7087 7.01509 10.6476C7.01509 10.5886 6.99966 10.4642 6.99046 10.3953C6.97881 10.3079 6.96703 10.233 6.96606 10.2267H6.96648C6.97744 10.2303 7.23679 10.3179 7.23679 10.5368C7.23679 10.7558 7.21277 10.9765 7.21255 10.9786V10.979H7.21222L7.21229 10.9789ZM6.87619 10.9581C6.87346 10.9581 6.87076 10.9579 6.86806 10.9575C6.7914 10.946 6.65658 10.8932 6.50779 10.8164C6.34244 10.7311 6.20817 10.6396 6.12972 10.559C6.05815 10.4854 6.01585 10.3699 6.00349 10.2156C5.99802 10.1457 5.999 10.0756 6.00632 10.0059C6.02014 10.0019 6.03459 9.99986 6.0491 10C6.10649 10.0009 6.16776 10.0241 6.25046 10.0754C6.32585 10.1237 6.39648 10.1777 6.46162 10.2368C6.54433 10.3108 6.62251 10.3887 6.69588 10.4702L6.69692 10.4714C6.70554 10.4853 6.77946 10.6053 6.83705 10.722C6.86585 10.7757 6.88794 10.8322 6.9029 10.8903C6.90857 10.9073 6.90857 10.9254 6.9029 10.9424C6.9005 10.9479 6.89607 10.9526 6.89038 10.9555C6.88586 10.9573 6.88097 10.9582 6.87606 10.9582L6.87619 10.9581Z" fill="#4E5B31"></path>
  <path d="M11.5094 13.8816C11.5137 13.88 11.5175 13.8775 11.5207 13.8744L11.5247 13.871C11.5428 13.8558 11.56 13.8397 11.5762 13.8229C11.6195 13.7786 11.6777 13.7137 11.7288 13.6564C11.8301 13.5427 11.9139 13.4448 11.9297 13.4263L11.9555 13.3961L12.2082 13.326L12.3927 13.2486L12.2941 13.1488L11.9555 13.2793L11.7028 13.326L11.2355 13.6353C11.2355 13.6353 11.3038 13.6865 11.3704 13.741C11.4001 13.7653 11.4375 13.7966 11.464 13.8225C11.4749 13.833 11.485 13.8442 11.4942 13.8559C11.4998 13.8642 11.5049 13.8728 11.5094 13.8816ZM13.2448 13.4125C13.4728 13.4107 13.6962 13.3544 13.8921 13.2495C13.8683 13.2138 13.8366 13.1826 13.7987 13.1585C13.7356 13.1168 13.6217 13.0669 13.4376 13.0663H13.4338C13.2158 13.0663 12.949 13.133 12.6408 13.2646C12.8235 13.3623 13.0323 13.4134 13.2448 13.4125ZM14.2004 13.2219C14.2394 13.2226 14.2768 13.2084 14.3035 13.1829C14.3266 13.1588 14.3425 13.1297 14.3497 13.0986C14.3602 13.0581 14.364 13.0165 14.3612 12.9751C14.3451 12.9688 14.3279 12.9653 14.3103 12.9647H14.3067C14.225 12.9647 14.1606 13.0285 14.133 13.0917C14.118 13.1197 14.1148 13.1516 14.1241 13.1815C14.138 13.2077 14.1683 13.2238 14.2004 13.2219ZM12.519 13.0465C13.0837 12.9739 13.3231 12.7902 13.4245 12.6488C13.4887 12.563 13.5189 12.4603 13.5102 12.3571C13.4819 12.3513 13.4524 12.348 13.4233 12.3481C13.2731 12.3481 12.8889 12.4164 12.519 13.0465ZM13.6766 12.9458C13.9179 12.9458 14.1016 12.9083 14.2226 12.8345C14.2741 12.8049 14.3155 12.7631 14.3425 12.7137C14.3524 12.695 14.3589 12.675 14.3618 12.6545C14.2815 12.6252 14.1959 12.6088 14.1092 12.6062C14.0967 12.6057 14.0842 12.6053 14.071 12.6053C13.8845 12.6053 13.6009 12.6601 13.3017 12.921C13.426 12.9364 13.5511 12.9448 13.6766 12.9458ZM14.8449 12.9054C15.0994 12.9054 15.4489 12.8355 15.6669 12.6393C15.5012 12.6041 15.3316 12.5836 15.1614 12.5787C15.1455 12.5783 15.1295 12.5782 15.1134 12.5781C14.8749 12.5781 14.6923 12.6198 14.5707 12.7018C14.5367 12.7202 14.5114 12.7493 14.4998 12.7833C14.4971 12.8085 14.5104 12.8329 14.5342 12.8463C14.5889 12.8835 14.6868 12.9034 14.8252 12.9054L14.8449 12.9054ZM15.6694 12.5247C15.7006 12.5248 15.7302 12.5122 15.7501 12.4905C15.7684 12.4688 15.7808 12.4435 15.7861 12.4167C15.7944 12.3814 15.7976 12.3452 15.7956 12.3091C15.7831 12.304 15.7696 12.3007 15.756 12.3005C15.7241 12.3016 15.6939 12.3137 15.6717 12.3344C15.6471 12.3562 15.6283 12.3826 15.6168 12.4119C15.6053 12.4363 15.6032 12.4635 15.611 12.489C15.6205 12.5106 15.6436 12.5249 15.6694 12.5247ZM13.7651 12.4861C13.8041 12.4867 13.8415 12.4726 13.8682 12.447C13.8913 12.4229 13.9072 12.3939 13.9145 12.3628C13.9249 12.3223 13.9288 12.2807 13.9259 12.2393C13.9098 12.233 13.8926 12.2295 13.8751 12.2289H13.8714C13.7897 12.2289 13.7254 12.2927 13.6978 12.3559C13.6827 12.3839 13.6795 12.4158 13.6888 12.4457C13.7027 12.4719 13.733 12.488 13.7651 12.4861ZM14.6927 12.4515C15.2047 12.4353 15.4703 12.3043 15.6032 12.1973C15.66 12.1525 15.7068 12.0983 15.7411 12.0378C15.7539 12.015 15.7638 11.9911 15.7706 11.9664C15.7297 11.9552 15.6864 11.9492 15.6436 11.9491H15.6316C15.4589 11.9491 15.1072 12.0145 14.6927 12.4515ZM14.1366 12.405C14.5486 12.3485 14.782 12.1893 14.9052 12.0657C14.9813 11.9922 15.0391 11.905 15.0748 11.8099C15.0332 11.8013 14.9906 11.7966 14.9479 11.7961C14.9424 11.7961 14.9367 11.7959 14.9309 11.7959C14.925 11.7959 14.919 11.7959 14.9129 11.7961C14.7057 11.8002 14.3293 11.8848 14.1366 12.405ZM16.2515 12.2269C16.3826 12.2273 16.5133 12.2132 16.6406 12.185C16.8563 12.1364 16.9488 12.0623 16.9884 12.0087C17.0055 11.9865 17.0169 11.9611 17.022 11.9345C17.0238 11.9241 17.0241 11.9135 17.023 11.9031L17.022 11.9027C16.9106 11.8779 16.7963 11.8648 16.6815 11.8638C16.6737 11.8638 16.6659 11.8637 16.6579 11.8637C16.5644 11.8635 16.471 11.8717 16.3793 11.888C16.1712 11.9271 15.9857 12.0326 15.857 12.1849C15.986 12.2133 16.1186 12.2277 16.2515 12.2269ZM15.2952 11.9142C15.3341 11.9151 15.3715 11.9013 15.3984 11.8761C15.4216 11.8517 15.4375 11.8224 15.4446 11.791C15.4551 11.7508 15.4589 11.7096 15.4561 11.6684C15.44 11.6622 15.4227 11.6586 15.4052 11.6581H15.4016C15.3201 11.6581 15.2556 11.7219 15.2279 11.7851C15.2131 11.8128 15.2103 11.8444 15.22 11.8739C15.2332 11.9002 15.2633 11.9162 15.2952 11.9142ZM16.0143 11.8255C16.1512 11.7906 16.2821 11.7391 16.4036 11.6725C16.584 11.5725 16.8047 11.3957 16.8316 11.1211C16.8179 11.1184 16.8035 11.1169 16.7895 11.1166C16.7863 11.1166 16.7825 11.1164 16.7787 11.1164C16.7248 11.1164 16.6145 11.13 16.4811 11.2213C16.3112 11.3379 16.1545 11.5405 16.0143 11.8255ZM15.5448 11.8099C15.6565 11.7643 15.7603 11.7043 15.8529 11.6318C16.0922 11.4464 16.2787 11.2122 16.3967 10.9486C16.3673 10.9362 16.3354 10.9291 16.3028 10.9276C16.2996 10.9274 16.2963 10.9273 16.2929 10.9273C16.288 10.9273 16.283 10.9273 16.2778 10.9276C16.1994 10.9296 16.0799 10.9589 15.9474 11.0876C15.7953 11.2354 15.6603 11.4787 15.5448 11.8099ZM16.7613 11.778C16.9182 11.778 16.9718 11.7014 16.9876 11.6685C17.0034 11.6342 17.0096 11.5969 17.0057 11.56C16.9801 11.5542 16.9539 11.5506 16.9276 11.5502H16.9222C16.8197 11.5479 16.722 11.5896 16.6592 11.6626C16.6509 11.6737 16.6255 11.7123 16.6465 11.7423C16.6634 11.766 16.7018 11.778 16.7613 11.778ZM17.1088 11.3836C17.2303 11.3838 17.3516 11.3745 17.4713 11.3557C17.611 11.3328 17.6902 11.2259 17.732 11.1403C17.7601 11.0817 17.7798 11.0202 17.7905 10.9572C17.3584 10.9686 17.1539 11.0822 17.0588 11.1755C16.9999 11.2307 16.9631 11.3021 16.9545 11.3782C16.9545 11.3782 17.0161 11.3836 17.1088 11.3836ZM16.6588 10.9789C16.6588 10.9789 16.7088 10.9232 16.7575 10.8551C16.8087 10.7835 16.856 10.7087 16.856 10.6476C16.856 10.5886 16.8714 10.4642 16.8806 10.3953C16.8923 10.3079 16.9041 10.233 16.905 10.2267C16.8941 10.2303 16.6343 10.3179 16.6343 10.5368C16.6343 10.7558 16.6586 10.9767 16.6588 10.9789ZM16.9949 10.9581C16.9976 10.9581 17.0003 10.9579 17.003 10.9575C17.0797 10.946 17.2145 10.8932 17.3633 10.8164C17.5287 10.7311 17.6629 10.6396 17.7414 10.559C17.8129 10.4854 17.8552 10.3699 17.8676 10.2156C17.8731 10.1457 17.8721 10.0756 17.8648 10.0059C17.8509 10.0019 17.8365 9.99986 17.822 10C17.7646 10.0009 17.7033 10.0241 17.6206 10.0754C17.5452 10.1237 17.4746 10.1777 17.4095 10.2368C17.3268 10.3108 17.2486 10.3887 17.1752 10.4702L17.1742 10.4714C17.1656 10.4853 17.0916 10.6053 17.034 10.722C17.0052 10.7757 16.9832 10.8322 16.9682 10.8903C16.9625 10.9073 16.9625 10.9254 16.9682 10.9424C16.9706 10.9479 16.975 10.9526 16.9807 10.9555C16.9852 10.9573 16.99 10.9581 16.9949 10.9581Z" fill="#4E5B31"></path>
  <path d="M21.4939 2.00091L21.4173 2.02837L21.3872 2.03915L21.2944 2.03455L21.2074 2.07212L21.0532 2.16697L21.0464 2.17136L20.9889 2.18486L20.9355 2.16413L20.9052 2.17654L20.8947 2.23276L20.8659 2.27314L20.8303 2.2956L20.7073 2.30694L20.6035 2.3551L20.4685 2.32257L20.4057 2.34468L20.2723 2.45279L20.2042 2.48184L20.1804 2.48061L20.09 2.47642L20.0518 2.48767L19.9948 2.53724L19.8869 2.54479L19.8533 2.56573L19.8007 2.66119L19.7437 2.71413L19.7111 2.72034L19.6758 2.70863L19.6492 2.71284L19.6371 2.77393L19.6113 2.79952L19.5391 2.82189L19.4815 2.86514L19.4308 2.88857L19.363 2.88704H19.3474L19.2799 2.9206L19.153 2.93062L19.1002 2.97597L19.0885 2.98567L19.0639 2.99908L19.0235 3.02075L19.0137 3.02613L18.9649 3.01832L18.908 3.03861L18.885 3.00672L18.8456 3.02801L18.7935 3.03003L18.7284 3.004L18.6789 2.98414L18.6427 2.98886L18.6301 3.04567L18.6289 3.0517L18.5908 3.09729L18.5197 3.13603L18.51 3.14736L18.4291 3.2413L18.2755 3.38672L18.1456 3.4461L18.0109 3.48297L17.9165 3.55266L17.6693 3.66296L17.279 3.83787L17.1992 3.86088L17.0847 3.87734L16.8804 3.94504L16.7002 3.99397L16.6902 3.99672L16.6544 4.00644L16.4003 4.07564L16.282 4.06439L16.212 4.08729L16.0296 4.06908L15.9027 4.07133L15.8224 4.08635L15.6716 4.15148L15.4169 4.26164L15.3328 4.33092L15.2018 4.39241L15.0484 4.43613L15.0487 4.37812L15.0478 4.37566L14.9946 4.3908L14.9562 4.40172L14.8317 4.419H14.7625L14.7195 4.40776L14.713 4.40978L14.4586 4.485L14.1749 4.50966L14.033 4.55065L13.9269 4.54913L13.8606 4.56687L13.7305 4.58119L13.684 4.57004L13.6735 4.56746L13.2912 4.58239L13.1165 4.56462L13.033 4.58169L12.8931 4.53935L12.6892 4.51806L12.6415 4.50521L12.5341 4.47657L12.4856 4.50172L12.4493 4.50521L12.3625 4.47689L12.3313 4.47619L12.2597 4.49961L12.2185 4.4901L12.1802 4.46263L12.0904 4.45059L12.0356 4.40919L11.7298 4.44568L11.6468 4.42371L11.3685 4.35074L11.3242 4.35276L11.2689 4.38998L11.186 4.41718L11.114 4.43402L11.016 4.43695L10.9022 4.41007L10.7848 4.35888L10.7415 4.3496L10.6447 4.35839L10.6151 4.36079L10.4373 4.27493L10.2081 4.14609L10.0527 4.07874L9.99432 4.07022L9.98648 4.0952L10.0154 4.17719L10.0252 4.25842L10.0222 4.33347L10.0206 4.37994L10.0352 4.42166L10.0913 4.47765L10.1147 4.53387L10.1318 4.6886L10.1316 4.84561L10.1043 5.096L10.0951 5.13407L10.0626 5.26379L10.0328 5.38294L9.91744 5.70015L9.88575 5.73948L9.80796 5.78724L9.63165 5.89523L9.50183 5.96258L9.46074 5.97789L9.35535 5.98507L9.2897 5.98214L9.20794 5.94229L9.12767 5.92369L9.02251 5.85564L8.90539 5.83385L8.77716 5.76715L8.74378 5.73105L8.67396 5.72519L8.57713 5.69904L8.54157 5.68932L8.51701 5.68288L8.39337 5.67995L8.27819 5.6321L8.21755 5.61892L8.13468 5.61515L8.04794 5.65143L8.00398 5.66985L7.94844 5.64999L7.90826 5.65225L7.86271 5.71418L7.85712 5.72364L7.82575 5.73857L7.78671 5.73807L7.75616 5.73734L7.7231 5.75034L7.67859 5.76771L7.63929 5.78314L7.62009 5.7906L7.60796 5.79245L7.58697 5.79573L7.56094 5.80021L7.51507 5.77608L7.49067 5.76314L7.44977 5.75564L7.42774 5.76996L7.42342 5.83731L7.40331 5.87766L7.33951 5.92844L7.27466 5.97983L7.22947 6.03977L7.10987 6.28544L7.03504 6.38456L7.01177 6.40767L6.9331 6.48556L6.8636 6.53408L6.70346 6.64579L6.55188 6.69677L6.42131 6.72078L6.35784 6.72102L6.23745 6.70661L6.12934 6.67674L6.01058 6.60992L5.88044 6.51572L5.69193 6.34811L5.66525 6.33367L5.65969 6.33033L5.60031 6.29616L5.55625 6.29719L5.53901 6.32278L5.52958 6.35976L5.5216 6.39256L5.5 6.579L5.50159 6.5898L5.51295 6.66658L5.65611 6.84667L5.70029 6.94233L5.70755 6.95325L5.73709 6.99791L5.75957 7.03196L5.76182 7.03542L5.81062 7.16684L5.77623 7.24104L5.7936 7.29082L5.75013 7.32118L5.74216 7.36408L5.87071 7.50912L5.89876 7.5731L5.86743 7.66179L5.81745 7.71072L5.80349 7.72411L5.81052 7.76159L5.86967 7.80946L5.97017 7.88999L6.02376 8.00964L6.06453 8.04185L6.1119 8.03277L6.13825 8.05087L6.17821 8.05025L6.21751 8.08562L6.24295 8.09672L6.28317 8.11476L6.31496 8.15201L6.32198 8.26653L6.38126 8.40884L6.38217 8.486L6.3825 8.49695L6.4194 8.55399L6.43098 8.59903L6.41146 8.71818L6.45847 8.75642L6.50945 8.74705L6.54238 8.75173L6.59528 8.79138L6.65935 8.87923L6.72201 8.87097L6.76177 8.88822L6.95373 9.04441L6.99729 9.0642L6.9997 9.06543L7.03103 9.07958L7.07008 9.11495L7.13046 9.07887L7.13717 9.07826L7.20282 9.07305L7.23165 9.09062L7.28696 9.12426L7.35964 9.12341L7.51725 9.1669L7.58619 9.1828L7.72483 9.26034L7.78375 9.29313L7.81863 9.31864L7.86496 9.35263L7.95752 9.38847L8.03691 9.40558L8.07992 9.41477L8.11246 9.42601L8.28486 9.48528L8.37798 9.50484L8.46414 9.53339L8.52683 9.55389L8.57284 9.55456L8.63791 9.50531L8.70093 9.50203L8.75328 9.51374L8.80436 9.50604L8.88521 9.46121L8.90099 9.44016L8.95832 9.41559L9.15171 9.39398L9.20823 9.41049L9.35334 9.35369L9.45055 9.37802L9.53661 9.35055L9.72463 9.38815L9.77461 9.41981L9.83047 9.47735L9.83731 9.47761L9.89951 9.47869L9.87349 9.51767L9.95557 9.59518L10.0297 9.69605L10.0347 9.70938L10.0886 9.85181L10.1287 9.90226L10.1568 9.97268L10.1581 10.0186L10.1145 10.0485L10.1074 10.0656L10.1049 10.0719L10.1138 10.0911L10.1302 10.083L10.1616 10.0674L10.1997 10.0621L10.2669 10.0685L10.3113 10.0727L10.3814 10.0414L10.4278 10.0206L10.5024 10.0495L10.5844 10.0487L10.6188 10.0625L10.7164 10.1023L10.7662 10.1065L10.7846 10.0956L10.7963 10.0705L10.7902 10.0413L10.7528 10.0026L10.6704 9.91661L10.6367 9.87239L10.6111 9.80838L10.6031 9.72651L10.5975 9.67131L10.6077 9.59878L10.6298 9.57289L10.6461 9.51527L10.6506 9.50019L10.6963 9.44555L10.8175 9.37547L10.9476 9.27059L11.0505 9.20953L11.1566 9.16818L11.1594 9.15647L11.1712 9.16075L11.441 9.0782L11.4454 9.07773L11.5656 9.0589L12.3764 9.11029L12.4064 9.10212L12.4334 9.03372L12.448 9.02107L12.4577 9.01281L12.5469 8.9775L12.5886 8.97214L12.7043 8.99785L12.7516 9.00836L12.8275 8.97009L12.8813 8.97091L12.9925 8.91627L13.0612 8.91782L13.0872 8.90842L13.221 8.82189L13.3499 8.78866L13.3834 8.77261L13.3952 8.76676L13.5273 8.70397L13.6112 8.64597L13.6836 8.61133L13.7629 8.59291L13.9705 8.57976L14.0123 8.51715L14.1015 8.50644L14.1554 8.45168L14.2173 8.4291L14.2615 8.37177L14.2985 8.32372L14.3503 8.29675L14.5162 8.28738L14.7129 8.30931L14.7389 8.29511L14.7834 8.15236L14.8299 8.12556L14.9552 7.96123L14.9556 7.90135V7.85134L14.9762 7.78012L14.9622 7.65154L14.9788 7.52136L15.0567 7.35591L15.1253 7.28918L15.236 7.22183L15.2922 7.19978L15.3719 7.18772L15.3836 7.18596L15.4039 7.18283L15.6783 7.17943C15.6821 7.17688 15.7781 7.1782 15.7781 7.1782L15.8696 7.17709L16.1011 7.2141L16.1175 7.21668L16.1956 7.23949L16.2859 7.30265L16.3815 7.38666L16.3994 7.40232L16.4612 7.42575L16.4799 7.4331L16.531 7.42575L16.6038 7.39164L16.6587 7.34985L16.7336 7.31304L16.7354 7.3107L16.7775 7.25366L16.7788 7.25249L16.7956 7.22968L16.9403 7.17893L17.1105 7.17015L17.1296 7.16083L17.1402 7.15571L17.1852 7.10818L17.2273 7.10789L17.3293 7.1411L17.4009 7.12827L17.4579 7.14877L17.5021 7.14406L17.5856 7.13527L17.6752 7.19199L17.7274 7.19785L17.9115 7.29477L17.921 7.29618L17.926 7.297L17.9365 7.29858L17.9584 7.29272L17.9909 7.28426L17.9952 7.28312L17.9993 7.28824L18.0202 7.3148L18.0489 7.31849L18.0829 7.2777L18.0694 7.25919L18.0643 7.25246L17.9985 7.24042L17.9395 7.14965L17.9957 7.09515L17.9075 6.99776L17.8928 6.98163L17.8879 6.97478L17.8574 6.93311L17.703 6.72125L17.5018 6.57674L17.4314 6.52603L17.4063 6.50816L17.2989 6.40983L17.2222 6.31818L17.2121 6.29845L17.1963 6.26735L17.1503 6.17722L17.0702 6.12158L17.0049 6.05742L17.0017 6.05365L16.867 5.88891L16.8449 5.86129L16.813 5.84475L16.7458 5.84434L16.7393 5.83848L16.7355 5.83494L16.7378 5.83277L16.7701 5.80393L16.806 5.79579L16.8215 5.7639L16.7529 5.58528L16.7524 5.57904L16.7473 5.52194L16.8032 5.26265L16.8104 5.23105L16.9057 5.05659L16.9647 5.01308L17.0291 4.89911L17.0844 4.82626L17.1373 4.77993L17.1465 4.77501L17.242 4.72301L17.3222 4.71285L17.3986 4.70315L17.532 4.74017L17.6589 4.73794L17.6836 4.73557L17.7412 4.72971L17.8359 4.70286L17.8806 4.67803L17.9038 4.64602L17.9522 4.49999L17.9678 4.45352L17.9976 4.40304L18.1702 4.22419L18.3007 4.11555L18.5942 3.92191L18.7378 3.84463L18.8111 3.80519L19.466 3.54323L19.6361 3.38803L19.7248 3.30727L19.8816 3.21255L20.0652 3.14487L20.2231 3.03237L20.2576 2.99331L20.3011 2.8674L20.3373 2.85952L20.3698 2.79586L20.3791 2.77776L20.508 2.69601L20.5226 2.68948L21.0232 2.46371L21.096 2.4727L21.135 2.4202L21.2807 2.39821L21.3075 2.39411L21.3433 2.37797L21.3738 2.33112V2.32187L21.378 2.19675L21.4091 2.16293L21.4261 2.08047L21.4421 2.06143L21.4587 2.04164L21.5 2.01555L21.4928 2L21.4939 2.00091Z" fill="#D57800"></path>
  <rect x="0.25" y="0.25" width="23.5" height="15.5" rx="0.75" stroke="#C7C7CA" stroke-width="0.5"></rect>
</svg>
