<?xml version="1.0" encoding="UTF-8"?>
<svg xmlns="http://www.w3.org/2000/svg" width="24" height="24" viewBox="0 0 24 24" fill="none">
  <g id="Icon/24/DOU">
    <g clip-path="url(#clip0_5912_5119)">
      <path id="Subtract" fill-rule="evenodd" clip-rule="evenodd" d="M4 0C1.79086 0 0 1.79086 0 4V20C0 22.2091 1.79086 24 4 24H20C22.2091 24 24 22.2091 24 20V4C24 1.79086 22.2091 0 20 0H4ZM4.11034 9.09829H4V14.8257H4.13462C4.43811 14.8257 4.80658 14.8311 5.12082 14.8356C5.35443 14.839 5.55807 14.842 5.68276 14.842C7.792 14.842 8.85048 13.5169 8.85048 11.9129C8.85048 10.3909 7.95779 9.07371 5.74621 9.07371C5.55416 9.07371 5.19101 9.08055 4.84776 9.08701C4.54016 9.0928 4.24854 9.09829 4.11034 9.09829ZM5.264 13.5986V10.3257V10.3254C5.42207 10.3009 5.59586 10.3009 5.73021 10.3009C6.75724 10.3009 7.50759 10.8571 7.50759 11.9129C7.50759 13.0014 6.81241 13.6151 5.72193 13.6151C5.54041 13.6151 5.43007 13.6151 5.264 13.5986ZM15.0149 11.962C15.0149 10.1371 13.7592 9 12.0764 9C10.3145 9 9.13766 10.3009 9.13738 11.962C9.13738 13.7871 10.3934 14.9243 12.0761 14.9243C13.7586 14.9243 15.0149 13.6969 15.0149 11.962ZM13.672 11.9617C13.672 12.9273 13.1275 13.6964 12.0767 13.6966C11.192 13.6966 10.4808 12.944 10.4808 11.9617C10.4808 10.9143 11.1603 10.2269 12.0767 10.2269C12.9691 10.2269 13.672 10.9143 13.672 11.9617ZM17.7407 14.924C18.9255 14.924 20 14.212 20 12.4611V9.09829H18.7357V12.1994C18.7357 13.116 18.5068 13.6971 17.7404 13.6971C16.8557 13.6971 16.5956 13.0177 16.5956 12.1257V9.09829H15.3316V12.404C15.3316 14.0811 16.3189 14.924 17.7407 14.924Z" fill="#9E9FA4"></path>
    </g>
  </g>
  <defs>
    <clipPath id="clip0_5912_5119">
      <rect width="24" height="24" rx="4" fill="white"></rect>
    </clipPath>
  </defs>
</svg>
