<svg width="8" height="16" viewBox="0 0 8 16" fill="none" xmlns="http://www.w3.org/2000/svg">
<path fill-rule="evenodd" clip-rule="evenodd" d="M2.90909 0C1.31103 0 0 1.31103 0 2.90909V12C0 14.2004 1.79958 16 4 16C6.20042 16 8 14.2004 8 12V3.63636H6.54545V12C6.54545 13.4141 5.41413 14.5455 4 14.5455C2.58587 14.5455 1.45455 13.4141 1.45455 12V2.90909C1.45455 2.09697 2.09697 1.45455 2.90909 1.45455C3.72121 1.45455 4.36364 2.09697 4.36364 2.90909V10.5455C4.36364 10.7541 4.20868 10.9091 4 10.9091C3.79132 10.9091 3.63636 10.7541 3.63636 10.5455V3.63636H2.18182V10.5455C2.18182 11.5411 3.00432 12.3636 4 12.3636C4.99568 12.3636 5.81818 11.5411 5.81818 10.5455V2.90909C5.81818 1.31103 4.50715 0 2.90909 0Z" fill="#9E9FA4"/>
</svg>
