<?xml version="1.0" encoding="UTF-8"?>
<svg xmlns="http://www.w3.org/2000/svg" width="24" height="24" viewBox="0 0 24 24" fill="none">
  <path d="M12.2362 24C12.1567 24 12.0773 24 11.9973 23.9996C10.116 24.0042 8.37781 23.9564 6.68738 23.8535C5.13757 23.7592 3.7229 23.2236 2.59607 22.3048C1.50879 21.4182 0.766296 20.2194 0.389282 18.7421C0.0611573 17.456 0.0437622 16.1935 0.0270996 14.9723C0.0150146 14.0962 0.00256348 13.058 0 12.0022C0.00256348 10.942 0.0150146 9.9038 0.0270996 9.02764C0.0437622 7.8067 0.0611573 6.54418 0.389282 5.25787C0.766296 3.78057 1.50879 2.58178 2.59607 1.69518C3.7229 0.776361 5.13757 0.240777 6.68756 0.146478C8.37799 0.0437559 10.1166 -0.00421772 12.0018 0.000359916C13.8836 -0.0036684 15.6213 0.0437559 17.3117 0.146478C18.8615 0.240777 20.2762 0.776361 21.403 1.69518C22.4905 2.58178 23.2328 3.78057 23.6098 5.25787C23.9379 6.544 23.9553 7.8067 23.972 9.02764C23.9841 9.9038 23.9967 10.942 23.9991 11.9978V12.0022C23.9967 13.058 23.9841 14.0962 23.972 14.9723C23.9553 16.1933 23.9381 17.4558 23.6098 18.7421C23.2328 20.2194 22.4905 21.4182 21.403 22.3048C20.2762 23.2236 18.8615 23.7592 17.3117 23.8535C15.6929 23.952 14.0299 24 12.2362 24ZM11.9973 22.1246C13.8479 22.129 15.5471 22.0823 17.1978 21.982C18.3697 21.9108 19.3857 21.5305 20.2181 20.8517C20.9875 20.2242 21.5175 19.3585 21.793 18.2785C22.0662 17.2079 22.082 16.0583 22.0972 14.9467C22.1091 14.0764 22.1215 13.0455 22.1241 12C22.1215 10.9543 22.1091 9.92358 22.0972 9.05328C22.082 7.94164 22.0662 6.79211 21.793 5.72131C21.5175 4.64135 20.9875 3.77563 20.2181 3.14813C19.3857 2.46954 18.3697 2.08923 17.1978 2.018C15.5471 1.91747 13.8479 1.87115 12.0016 1.87518C10.1514 1.87078 8.45197 1.91747 6.80127 2.018C5.62939 2.08923 4.61334 2.46954 3.78094 3.14813C3.01154 3.77563 2.48163 4.64135 2.20605 5.72131C1.93286 6.79211 1.91711 7.94146 1.90192 9.05328C1.89001 9.92431 1.87756 10.9557 1.875 12.0022C1.87756 13.0441 1.89001 14.0757 1.90192 14.9467C1.91711 16.0583 1.93286 17.2079 2.20605 18.2785C2.48163 19.3585 3.01154 20.2242 3.78094 20.8517C4.61334 21.5303 5.62939 21.9106 6.80127 21.9818C8.45197 22.0823 10.1517 22.1292 11.9973 22.1246ZM11.9526 17.8594C8.72186 17.8594 6.0932 15.2309 6.0932 12C6.0932 8.7691 8.72186 6.14062 11.9526 6.14062C15.1835 6.14062 17.812 8.7691 17.812 12C17.812 15.2309 15.1835 17.8594 11.9526 17.8594ZM11.9526 8.01562C9.75568 8.01562 7.9682 9.80309 7.9682 12C7.9682 14.1969 9.75568 15.9844 11.9526 15.9844C14.1497 15.9844 15.937 14.1969 15.937 12C15.937 9.80309 14.1497 8.01562 11.9526 8.01562ZM18.4682 4.26562C17.6917 4.26562 17.062 4.89514 17.062 5.67187C17.062 6.4486 17.6917 7.07812 18.4682 7.07812C19.2449 7.07812 19.8745 6.4486 19.8745 5.67187C19.8745 4.89514 19.2449 4.26562 18.4682 4.26562Z" fill="#9E9FA4"></path>
</svg>
