<svg width="10" height="13" viewBox="0 0 10 13" fill="none" xmlns="http://www.w3.org/2000/svg">
<path d="M5.00143 0.166687C2.42846 0.166687 0.334961 2.1853 0.334961 4.66646C0.334961 5.31365 0.47234 5.93157 0.743076 6.5032C1.90982 8.96498 4.1468 11.5641 4.80477 12.302C4.85406 12.3571 4.92593 12.3889 5.00156 12.3889C5.07719 12.3889 5.14906 12.3571 5.19836 12.302C5.85606 11.5642 8.09304 8.96523 9.26018 6.5032C9.53104 5.93157 9.66829 5.31365 9.66829 4.66646C9.66803 2.1853 7.57453 0.166687 5.00143 0.166687ZM5.00143 7.00366C3.66487 7.00366 2.57739 5.95508 2.57739 4.66634C2.57739 3.37747 3.66487 2.32889 5.00143 2.32889C6.33799 2.32889 7.42548 3.37747 7.42548 4.66634C7.42561 5.95508 6.33812 7.00366 5.00143 7.00366Z" fill="#FF6300"/>
</svg>
