<?xml version="1.0" encoding="UTF-8"?>
<svg xmlns="http://www.w3.org/2000/svg" width="126" height="100" viewBox="0 0 126 100" fill="none">
  <path d="M106.49 50.2111C106.49 73.7998 87.377 92.9222 63.8003 92.9222C40.2236 92.9222 21.1108 73.7998 21.1108 50.2111C21.1108 26.6224 40.2236 7.5 63.8003 7.5C87.377 7.5 106.49 26.6224 106.49 50.2111Z" fill="white"></path>
  <path fill-rule="evenodd" clip-rule="evenodd" d="M63.8003 88.5443C84.9604 88.5443 102.114 71.3819 102.114 50.2111C102.114 29.0402 84.9604 11.8779 63.8003 11.8779C42.6402 11.8779 25.4865 29.0402 25.4865 50.2111C25.4865 71.3819 42.6402 88.5443 63.8003 88.5443ZM63.8003 92.9222C87.377 92.9222 106.49 73.7998 106.49 50.2111C106.49 26.6224 87.377 7.5 63.8003 7.5C40.2236 7.5 21.1108 26.6224 21.1108 50.2111C21.1108 73.7998 40.2236 92.9222 63.8003 92.9222Z" fill="#A5A5A5"></path>
  <path fill-rule="evenodd" clip-rule="evenodd" d="M63.8004 85.5545C83.3101 85.5545 99.1259 69.7307 99.1259 50.2111C99.1259 30.6914 83.3101 14.8676 63.8004 14.8676C44.2906 14.8676 28.4749 30.6914 28.4749 50.2111C28.4749 69.7307 44.2906 85.5545 63.8004 85.5545ZM63.8004 86.4087C83.7817 86.4087 99.9797 70.2025 99.9797 50.2111C99.9797 30.2197 83.7817 14.0134 63.8004 14.0134C43.8191 14.0134 27.6211 30.2197 27.6211 50.2111C27.6211 70.2025 43.8191 86.4087 63.8004 86.4087Z" fill="#A5A5A5"></path>
  <path fill-rule="evenodd" clip-rule="evenodd" d="M63.8005 73.5954C76.7087 73.5954 87.1729 63.1259 87.1729 50.2111C87.1729 37.2963 76.7087 26.8268 63.8005 26.8268C50.8922 26.8268 40.428 37.2963 40.428 50.2111C40.428 63.1259 50.8922 73.5954 63.8005 73.5954ZM63.8005 74.4496C77.1803 74.4496 88.0267 63.5977 88.0267 50.2111C88.0267 36.8245 77.1803 25.9725 63.8005 25.9725C50.4207 25.9725 39.5742 36.8245 39.5742 50.2111C39.5742 63.5977 50.4207 74.4496 63.8005 74.4496Z" fill="#A5A5A5"></path>
  <path d="M63.6404 28.8556L64.5029 30.6042L66.4316 30.8846L65.036 32.2457L65.3655 34.1676L63.6404 33.2602L61.9153 34.1676L62.2447 32.2457L60.8491 30.8846L62.7778 30.6042L63.6404 28.8556Z" fill="#A5A5A5"></path>
  <path d="M69.9369 30.7776L70.4858 31.8903L71.7132 32.0688L70.825 32.9349L71.0347 34.1579L69.9369 33.5805L68.8391 34.1579L69.0488 32.9349L68.1606 32.0688L69.388 31.8903L69.9369 30.7776Z" fill="#A5A5A5"></path>
  <path d="M57.1303 30.7776L57.6791 31.8903L58.9065 32.0688L58.0184 32.9349L58.228 34.1579L57.1303 33.5805L56.0325 34.1579L56.2421 32.9349L55.354 32.0688L56.5814 31.8903L57.1303 30.7776Z" fill="#A5A5A5"></path>
  <path d="M63.6404 70.7124L64.5029 68.9638L66.4316 68.6834L65.036 67.3223L65.3655 65.4004L63.6404 66.3078L61.9153 65.4004L62.2447 67.3223L60.8491 68.6834L62.7778 68.9638L63.6404 70.7124Z" fill="#A5A5A5"></path>
  <path d="M69.9369 68.7904L70.4858 67.6777L71.7132 67.4992L70.825 66.6331L71.0347 65.4101L69.9369 65.9875L68.8391 65.4101L69.0488 66.6331L68.1606 67.4992L69.388 67.6777L69.9369 68.7904Z" fill="#A5A5A5"></path>
  <path d="M57.1303 68.7904L57.6791 67.6777L58.9065 67.4992L58.0184 66.6331L58.228 65.4101L57.1303 65.9875L56.0325 65.4101L56.2421 66.6331L55.354 67.4992L56.5814 67.6777L57.1303 68.7904Z" fill="#A5A5A5"></path>
  <path fill-rule="evenodd" clip-rule="evenodd" d="M84.7952 64.5193C80.2221 71.2233 72.525 75.6241 63.8005 75.6241C55.076 75.6241 47.3789 71.2233 42.8058 64.5193H33.0137C38.4099 76.1225 50.1663 84.1664 63.8005 84.1664C77.4347 84.1664 89.1911 76.1225 94.5873 64.5193H84.7952ZM43.2574 35.2622C47.8759 28.9199 55.3571 24.798 63.8005 24.798C72.2439 24.798 79.7252 28.9199 84.3436 35.2622H94.2812C88.7552 24.0046 77.1823 16.2557 63.8005 16.2557C50.4187 16.2557 38.8458 24.0046 33.3198 35.2622H43.2574Z" fill="#A5A5A5"></path>
  <path d="M13 36.9707H113L109.798 50.2111L113 63.4516H13L16.2017 50.2111L13 36.9707Z" fill="#A5A5A5"></path>
  <path d="M37.9908 45.3749L38.4922 45.2365V42.7398L38.0081 42.7802L37.5816 43.2934L37.1609 43.2588C37.1609 42.9397 37.1763 42.538 37.207 42.0537H40.8147C40.8454 42.538 40.8608 42.9397 40.8608 43.2588L40.4459 43.2934L40.0136 42.7802L39.5411 42.7398V45.0059C39.5411 45.0981 39.5468 45.1577 39.5584 45.1846C39.5699 45.2115 39.6025 45.2384 39.6563 45.2653L40.0136 45.4787L39.9906 45.94H38.0196L37.9908 45.3749Z" fill="white"></path>
  <path d="M43.0018 46.0207C42.364 46.0207 41.8876 45.8592 41.5725 45.5363C41.2613 45.2134 41.1057 44.7233 41.1057 44.066C41.1057 43.6393 41.1845 43.2703 41.342 42.9589C41.4995 42.6437 41.7243 42.4016 42.0163 42.2324C42.3083 42.0633 42.656 41.9787 43.0594 41.9787C44.3427 41.9787 44.9843 42.6341 44.9843 43.9449C44.9843 44.3755 44.9055 44.7464 44.748 45.0578C44.5905 45.3691 44.3619 45.6075 44.0622 45.7727C43.7664 45.938 43.4129 46.0207 43.0018 46.0207ZM43.1228 45.225C43.3418 45.225 43.5512 45.1692 43.751 45.0578C43.7932 44.9386 43.8259 44.7906 43.849 44.6138C43.872 44.4331 43.8835 44.2563 43.8835 44.0833C43.8835 43.6566 43.8029 43.3337 43.6415 43.1146C43.484 42.8955 43.2515 42.786 42.9442 42.786C42.7252 42.786 42.5138 42.8263 42.3102 42.907C42.268 42.9801 42.2353 43.1012 42.2122 43.2703C42.1892 43.4356 42.1777 43.6259 42.1777 43.8411C42.1777 44.287 42.2584 44.6292 42.4197 44.8675C42.5811 45.1058 42.8154 45.225 43.1228 45.225Z" fill="white"></path>
  <path d="M45.2552 45.3518L45.6759 45.2365V43.0397C45.6759 42.9397 45.6682 42.8744 45.6528 42.8436C45.6375 42.809 45.5971 42.7783 45.5318 42.7514L45.2321 42.5842L45.2667 42.1171C45.5587 42.071 45.8353 42.0383 46.0966 42.0191C46.3579 41.996 46.6383 41.9845 46.938 41.9845C47.353 41.9845 47.6853 42.0287 47.935 42.1171C48.1886 42.2055 48.373 42.3439 48.4883 42.5323C48.6074 42.7206 48.6669 42.9705 48.6669 43.2818C48.6669 43.6855 48.5209 44.0026 48.2289 44.2332C47.9408 44.4639 47.5451 44.5792 47.0417 44.5792L46.7248 44.5677V45.0059C46.7248 45.0981 46.7305 45.1577 46.7421 45.1846C46.7574 45.2115 46.792 45.2384 46.8458 45.2653L47.1973 45.4729L47.1743 45.94H45.284L45.2552 45.3518ZM47.0936 43.9392C47.3011 43.9392 47.4528 43.918 47.5489 43.8757C47.5912 43.6874 47.6123 43.4894 47.6123 43.2818C47.6123 43.055 47.5681 42.8936 47.4797 42.7975C47.3952 42.7014 47.2569 42.6533 47.0648 42.6533C46.9995 42.6533 46.8861 42.661 46.7248 42.6764V43.9046C46.8285 43.9276 46.9515 43.9392 47.0936 43.9392Z" fill="white"></path>
  <path d="M50.1164 45.3345L50.4795 45.2365V43.0281C50.4795 42.9282 50.4718 42.8628 50.4565 42.8321C50.4449 42.7975 50.4084 42.7667 50.347 42.7398L50.1049 42.6015L50.1222 42.0537H51.9203L51.9491 42.6418L51.5226 42.7571V43.599L52.8366 43.5644V43.0281C52.8366 42.9282 52.8289 42.8628 52.8136 42.8321C52.7982 42.7975 52.7578 42.7667 52.6925 42.7398L52.4101 42.5784L52.439 42.0537H54.2082L54.2313 42.6591L53.8797 42.7571V45.0059C53.8797 45.0981 53.8855 45.1577 53.897 45.1846C53.9124 45.2115 53.947 45.2384 54.0007 45.2653L54.237 45.4037L54.214 45.94H52.462L52.4332 45.3461L52.8366 45.2365V44.3774L51.5226 44.3197V45.0059C51.5226 45.0981 51.5284 45.1577 51.5399 45.1846C51.5553 45.2115 51.5918 45.2384 51.6494 45.2653L51.9549 45.4441L51.9318 45.94H50.1453L50.1164 45.3345Z" fill="white"></path>
  <path d="M54.5232 45.3518L54.9439 45.2365V43.0281C54.9439 42.9282 54.9362 42.8628 54.9208 42.8321C54.9054 42.7975 54.8651 42.7667 54.7998 42.7398L54.5116 42.5726L54.5289 42.0537H57.6583C57.6852 42.4573 57.6986 42.8513 57.6986 43.2357L57.2721 43.2645L56.863 42.7571L55.9927 42.7341V43.6739L57.2203 43.5701V44.4581L55.9927 44.3255V45.2538L56.9494 45.2365L57.3932 44.7291L57.8196 44.7579C57.8043 45.1616 57.7755 45.5556 57.7332 45.94H54.552L54.5232 45.3518Z" fill="white"></path>
  <path d="M58.0504 45.4268L58.2291 45.3172L59.5776 42.0479L60.5574 41.9614L61.71 45.0751C61.7484 45.175 61.7753 45.2404 61.7907 45.2711C61.806 45.3019 61.8349 45.3441 61.8771 45.398L61.9808 45.5306L61.9463 45.94H60.3268L60.2692 45.3922L60.6784 45.2884L60.494 44.706L59.3241 44.7233L59.1973 45.0866C59.1858 45.1212 59.18 45.15 59.18 45.1731C59.18 45.2 59.1838 45.2211 59.1915 45.2365C59.203 45.248 59.2203 45.2577 59.2434 45.2653L59.641 45.4326L59.5834 45.94H58.0735L58.0504 45.4268ZM59.935 42.9474L59.5546 44.0545L60.298 44.0891L59.935 42.9474Z" fill="white"></path>
  <path d="M62.2166 45.3345L62.5797 45.2365V43.0281C62.5797 42.9282 62.572 42.8628 62.5567 42.8321C62.5451 42.7975 62.5086 42.7667 62.4472 42.7398L62.2051 42.6015L62.2224 42.0537H64.0205L64.0493 42.6418L63.6228 42.7571V45.248L64.349 45.2307L64.8388 44.6714L65.2826 44.6945C65.2749 45.0174 65.248 45.4326 65.2019 45.94H62.2455L62.2166 45.3345Z" fill="white"></path>
  <path d="M65.6412 45.3749L66.1426 45.2365V42.7398L65.6585 42.7802L65.232 43.2934L64.8113 43.2588C64.8113 42.9397 64.8266 42.538 64.8574 42.0537H68.4651C68.4958 42.538 68.5112 42.9397 68.5112 43.2588L68.0962 43.2934L67.664 42.7802L67.1914 42.7398V45.0059C67.1914 45.0981 67.1972 45.1577 67.2087 45.1846C67.2202 45.2115 67.2529 45.2384 67.3067 45.2653L67.664 45.4787L67.641 45.94H65.67L65.6412 45.3749Z" fill="white"></path>
  <path d="M68.8352 45.3345L69.1982 45.2365V43.0281C69.1982 42.9282 69.1906 42.8628 69.1752 42.8321C69.1637 42.7975 69.1272 42.7667 69.0657 42.7398L68.8236 42.6015L68.8409 42.0537H70.639L70.6678 42.6418L70.2414 42.7571V43.599L71.5553 43.5644V43.0281C71.5553 42.9282 71.5477 42.8628 71.5323 42.8321C71.5169 42.7975 71.4766 42.7667 71.4113 42.7398L71.1289 42.5784L71.1577 42.0537H72.927L72.95 42.6591L72.5985 42.7571V45.0059C72.5985 45.0981 72.6042 45.1577 72.6157 45.1846C72.6311 45.2115 72.6657 45.2384 72.7195 45.2653L72.9558 45.4037L72.9327 45.94H71.1807L71.1519 45.3461L71.5553 45.2365V44.3774L70.2414 44.3197V45.0059C70.2414 45.0981 70.2471 45.1577 70.2586 45.1846C70.274 45.2115 70.3105 45.2384 70.3681 45.2653L70.6736 45.4441L70.6505 45.94H68.864L68.8352 45.3345Z" fill="white"></path>
  <path d="M75.0515 46.0265C74.4675 46.0265 74.018 45.8477 73.7029 45.4902C73.3879 45.1327 73.2304 44.6272 73.2304 43.9738C73.2304 43.5586 73.3053 43.2011 73.4551 42.9013C73.6088 42.5976 73.8297 42.367 74.1179 42.2094C74.406 42.0479 74.748 41.9672 75.1437 41.9672C75.5932 41.9672 76.0562 42.0691 76.5326 42.2728C76.498 42.6187 76.4423 43.0012 76.3655 43.4202L75.9275 43.4491L75.5298 42.8667C75.3608 42.8167 75.1744 42.7917 74.9708 42.7917C74.8171 42.7917 74.6711 42.8052 74.5328 42.8321C74.4714 42.9513 74.4214 43.1089 74.383 43.3049C74.3446 43.5009 74.3253 43.6989 74.3253 43.8988C74.3253 44.3255 74.4022 44.6426 74.5559 44.8502C74.7134 45.0539 74.9612 45.1596 75.2993 45.1673C75.4338 45.1673 75.6028 45.1481 75.8065 45.1097C76.0139 45.0674 76.2156 45.0136 76.4116 44.9482L76.5902 45.5825C76.3905 45.7132 76.1484 45.8208 75.8641 45.9054C75.5836 45.9861 75.3128 46.0265 75.0515 46.0265Z" fill="white"></path>
  <path d="M76.8254 45.4268L77.0041 45.3172L78.3527 42.0479L79.3324 41.9614L80.485 45.0751C80.5234 45.175 80.5503 45.2404 80.5657 45.2711C80.581 45.3019 80.6099 45.3441 80.6521 45.398L80.7559 45.5306L80.7213 45.94H79.1019L79.0442 45.3922L79.4534 45.2884L79.269 44.706L78.0991 44.7233L77.9723 45.0866C77.9608 45.1212 77.955 45.15 77.955 45.1731C77.955 45.2 77.9589 45.2211 77.9665 45.2365C77.9781 45.248 77.9953 45.2577 78.0184 45.2653L78.4161 45.4326L78.3584 45.94H76.8485L76.8254 45.4268ZM78.71 42.9474L78.3296 44.0545L79.073 44.0891L78.71 42.9474Z" fill="white"></path>
  <path d="M80.993 45.3518L81.4137 45.2365V43.0397C81.4137 42.9397 81.406 42.8744 81.3907 42.8436C81.3753 42.809 81.3349 42.7783 81.2696 42.7514L80.97 42.5842L81.0045 42.1113C81.5808 42.0268 82.136 41.9845 82.6701 41.9845C83.085 41.9845 83.4193 42.0268 83.6728 42.1113C83.9264 42.1921 84.1108 42.3208 84.2261 42.4977C84.3452 42.6706 84.4047 42.9013 84.4047 43.1896C84.4047 43.4279 84.3433 43.6374 84.2203 43.8181C84.0974 43.9949 83.9226 44.1314 83.6959 44.2275L84.618 45.7151L84.6122 45.94H83.5633L82.7104 44.4004L82.4568 44.3947V45.0405C82.4568 45.1327 82.4626 45.1923 82.4741 45.2192C82.4895 45.2423 82.5241 45.2692 82.5779 45.2999L82.8257 45.4441L82.8026 45.94H81.0218L80.993 45.3518ZM82.8257 43.7489C83.0293 43.7489 83.1791 43.7297 83.2752 43.6912C83.3136 43.5528 83.3328 43.3875 83.3328 43.1953C83.3328 43.0031 83.2906 42.8667 83.206 42.786C83.1253 42.7052 82.989 42.6649 82.7968 42.6649C82.6893 42.6649 82.5798 42.6706 82.4684 42.6822V43.7143C82.5682 43.7374 82.6873 43.7489 82.8257 43.7489Z" fill="white"></path>
  <path d="M84.8187 45.3518L85.2394 45.2365V43.0281C85.2394 42.9282 85.2317 42.8628 85.2164 42.8321C85.201 42.7975 85.1606 42.7667 85.0953 42.7398L84.8072 42.5726L84.8245 42.0537H87.9538C87.9807 42.4573 87.9941 42.8513 87.9941 43.2357L87.5677 43.2645L87.1585 42.7571L86.2883 42.7341V43.6739L87.5158 43.5701V44.4581L86.2883 44.3255V45.2538L87.245 45.2365L87.6887 44.7291L88.1152 44.7579C88.0998 45.1616 88.071 45.5556 88.0287 45.94H84.8475L84.8187 45.3518Z" fill="white"></path>
  <path d="M36.0761 49.0282L35.8801 48.7572L35.9032 48.3536H37.5572L37.5918 48.9013L37.1768 49.0109L37.8914 51.2423L38.462 49.4664L38.2084 48.7226L38.2315 48.3536H39.7644L39.799 48.9013L39.4187 49.0109L40.1275 51.2423L40.7903 49.2012C40.8018 49.1704 40.8076 49.1435 40.8076 49.1204C40.8076 49.0705 40.7826 49.0378 40.7326 49.0224L40.3408 48.861L40.3753 48.3536H41.8853L41.9141 48.8437L41.6778 49.1666L40.4675 52.2629L39.459 52.3609L38.8539 50.5965L38.2315 52.2629L37.1653 52.3609L36.0761 49.0282Z" fill="white"></path>
  <path d="M42.1838 51.6517L42.6045 51.5364V49.328C42.6045 49.2281 42.5968 49.1627 42.5814 49.132C42.5661 49.0974 42.5257 49.0666 42.4604 49.0397L42.1722 48.8725L42.1895 48.3536H45.3189C45.3458 48.7572 45.3592 49.1512 45.3592 49.5356L44.9328 49.5644L44.5236 49.057L43.6534 49.034V49.9738L44.8809 49.87V50.758L43.6534 50.6254V51.5537L44.61 51.5364L45.0538 51.029L45.4802 51.0578C45.4649 51.4614 45.4361 51.8554 45.3938 52.2398H42.2126L42.1838 51.6517Z" fill="white"></path>
  <path d="M47.0077 52.2571C46.5928 52.2571 46.2105 52.2398 45.8609 52.2053L45.8321 51.6517L46.2528 51.5364V49.3396C46.2528 49.2396 46.2451 49.1743 46.2297 49.1435C46.2143 49.1089 46.174 49.0782 46.1087 49.0513L45.809 48.884L45.8436 48.4055C46.2432 48.3747 46.5793 48.3516 46.8521 48.3363C47.1249 48.317 47.3439 48.3074 47.5091 48.3074C48.0393 48.3074 48.4639 48.3689 48.7828 48.492C49.1055 48.615 49.3399 48.8091 49.4859 49.0743C49.6357 49.3396 49.7106 49.6913 49.7106 50.1295C49.7106 50.683 49.5838 51.1309 49.3302 51.473C49.1036 51.769 48.802 51.9746 48.4254 52.0899C48.0528 52.2014 47.5802 52.2571 47.0077 52.2571ZM47.7339 51.4326C48.0566 51.4326 48.3121 51.3942 48.5004 51.3173C48.5349 51.2212 48.5657 51.0713 48.5926 50.8675C48.6233 50.6638 48.6387 50.4735 48.6387 50.2967C48.6387 49.8623 48.5484 49.5414 48.3678 49.3338C48.1911 49.1262 47.9202 49.0224 47.5552 49.0224C47.5053 49.0224 47.4592 49.0243 47.4169 49.0282C47.3746 49.032 47.3343 49.0359 47.2959 49.0397V51.4038C47.4496 51.423 47.5956 51.4326 47.7339 51.4326Z" fill="white"></path>
  <path d="M50.7931 51.7267L50.9718 51.6171L52.3203 48.3478L53.3001 48.2613L54.4527 51.3749C54.4911 51.4749 54.518 51.5402 54.5334 51.571C54.5487 51.6017 54.5775 51.644 54.6198 51.6978L54.7235 51.8305L54.689 52.2398H53.0695L53.0119 51.6921L53.4211 51.5883L53.2367 51.0059L52.0668 51.0232L51.94 51.3865C51.9284 51.4211 51.9227 51.4499 51.9227 51.473C51.9227 51.4999 51.9265 51.521 51.9342 51.5364C51.9457 51.5479 51.963 51.5575 51.9861 51.5652L52.3837 51.7324L52.3261 52.2398H50.8162L50.7931 51.7267ZM52.6776 49.2473L52.2973 50.3544L53.0407 50.389L52.6776 49.2473Z" fill="white"></path>
  <path d="M54.9607 51.6517L55.3814 51.5364V49.3396C55.3814 49.2396 55.3737 49.1743 55.3583 49.1435C55.343 49.1089 55.3026 49.0782 55.2373 49.0513L54.9376 48.884L54.9722 48.417C55.2642 48.3709 55.5408 48.3382 55.8021 48.319C56.0633 48.2959 56.3438 48.2844 56.6435 48.2844C57.0584 48.2844 57.3908 48.3286 57.6405 48.417C57.8941 48.5054 58.0785 48.6438 58.1938 48.8321C58.3129 49.0205 58.3724 49.2704 58.3724 49.5817C58.3724 49.9853 58.2264 50.3025 57.9344 50.5331C57.6463 50.7638 57.2505 50.8791 56.7472 50.8791L56.4303 50.8675V51.3058C56.4303 51.398 56.436 51.4576 56.4476 51.4845C56.4629 51.5114 56.4975 51.5383 56.5513 51.5652L56.9028 51.7728L56.8798 52.2398H54.9895L54.9607 51.6517ZM56.7991 50.239C57.0066 50.239 57.1583 50.2179 57.2544 50.1756C57.2966 49.9873 57.3178 49.7893 57.3178 49.5817C57.3178 49.3549 57.2736 49.1935 57.1852 49.0974C57.1007 49.0013 56.9624 48.9532 56.7703 48.9532C56.705 48.9532 56.5916 48.9609 56.4303 48.9763V50.2045C56.534 50.2275 56.6569 50.239 56.7991 50.239Z" fill="white"></path>
  <path d="M58.6358 51.6517L59.0565 51.5364V49.3396C59.0565 49.2396 59.0488 49.1743 59.0334 49.1435C59.0181 49.1089 58.9777 49.0782 58.9124 49.0513L58.6127 48.884L58.6473 48.417C58.9393 48.3709 59.2159 48.3382 59.4772 48.319C59.7384 48.2959 60.0189 48.2844 60.3186 48.2844C60.7335 48.2844 61.0659 48.3286 61.3156 48.417C61.5692 48.5054 61.7536 48.6438 61.8689 48.8321C61.988 49.0205 62.0475 49.2704 62.0475 49.5817C62.0475 49.9853 61.9015 50.3025 61.6095 50.5331C61.3214 50.7638 60.9256 50.8791 60.4223 50.8791L60.1054 50.8675V51.3058C60.1054 51.398 60.1111 51.4576 60.1226 51.4845C60.138 51.5114 60.1726 51.5383 60.2264 51.5652L60.5779 51.7728L60.5549 52.2398H58.6646L58.6358 51.6517ZM60.4742 50.239C60.6817 50.239 60.8334 50.2179 60.9295 50.1756C60.9717 49.9873 60.9929 49.7893 60.9929 49.5817C60.9929 49.3549 60.9487 49.1935 60.8603 49.0974C60.7758 49.0013 60.6375 48.9532 60.4454 48.9532C60.3801 48.9532 60.2667 48.9609 60.1054 48.9763V50.2045C60.2091 50.2275 60.332 50.239 60.4742 50.239Z" fill="white"></path>
  <path d="M62.3095 51.6344L62.6726 51.5364V49.328C62.6726 49.2281 62.6649 49.1627 62.6495 49.132C62.638 49.0974 62.6015 49.0666 62.54 49.0397L62.298 48.9013L62.3153 48.3536H64.1133L64.1422 48.9417L63.7157 49.057V51.5479L64.4418 51.5306L64.9317 50.9713L65.3755 50.9944C65.3678 51.3173 65.3409 51.7324 65.2948 52.2398H62.3383L62.3095 51.6344Z" fill="white"></path>
  <path d="M65.7039 51.6517L66.1246 51.5364V49.328C66.1246 49.2281 66.1169 49.1627 66.1015 49.132C66.0861 49.0974 66.0458 49.0666 65.9805 49.0397L65.6808 48.8667L65.7096 48.3536H67.5596L67.5826 48.9417L67.1677 49.057V51.3058C67.1677 51.398 67.1734 51.4576 67.185 51.4845C67.2003 51.5114 67.2368 51.5383 67.2945 51.5652L67.5884 51.744L67.5711 52.2398H65.7327L65.7039 51.6517Z" fill="white"></path>
  <path d="M69.6908 52.3263C69.1068 52.3263 68.6573 52.1476 68.3423 51.7901C68.0272 51.4326 67.8697 50.9271 67.8697 50.2736C67.8697 49.8585 67.9446 49.501 68.0945 49.2012C68.2481 48.8975 68.4691 48.6669 68.7572 48.5092C69.0454 48.3478 69.3873 48.2671 69.783 48.2671C70.2326 48.2671 70.6955 48.3689 71.1719 48.5727C71.1374 48.9186 71.0816 49.3011 71.0048 49.7201L70.5668 49.7489L70.1692 49.1666C70.0001 49.1166 69.8138 49.0916 69.6101 49.0916C69.4565 49.0916 69.3105 49.1051 69.1722 49.132C69.1107 49.2511 69.0607 49.4087 69.0223 49.6048C68.9839 49.8008 68.9647 49.9988 68.9647 50.1987C68.9647 50.6254 69.0415 50.9425 69.1952 51.1501C69.3527 51.3538 69.6005 51.4595 69.9386 51.4672C70.0731 51.4672 70.2422 51.448 70.4458 51.4095C70.6533 51.3673 70.855 51.3134 71.0509 51.2481L71.2296 51.8824C71.0298 52.0131 70.7877 52.1207 70.5034 52.2053C70.223 52.286 69.9521 52.3263 69.6908 52.3263Z" fill="white"></path>
  <path d="M71.4648 51.7267L71.6434 51.6171L72.992 48.3478L73.9717 48.2613L75.1243 51.3749C75.1627 51.4749 75.1896 51.5402 75.205 51.571C75.2204 51.6017 75.2492 51.644 75.2915 51.6978L75.3952 51.8305L75.3606 52.2398H73.7412L73.6836 51.6921L74.0927 51.5883L73.9083 51.0059L72.7384 51.0232L72.6116 51.3865C72.6001 51.4211 72.5943 51.4499 72.5943 51.473C72.5943 51.4999 72.5982 51.521 72.6059 51.5364C72.6174 51.5479 72.6347 51.5575 72.6577 51.5652L73.0554 51.7324L72.9977 52.2398H71.4878L71.4648 51.7267ZM73.3493 49.2473L72.9689 50.3544L73.7124 50.389L73.3493 49.2473Z" fill="white"></path>
  <path d="M75.8307 51.6748L76.332 51.5364V49.0397L75.848 49.0801L75.4215 49.5933L75.0008 49.5587C75.0008 49.2396 75.0161 48.8379 75.0469 48.3536H78.6546C78.6853 48.8379 78.7007 49.2396 78.7007 49.5587L78.2857 49.5933L77.8535 49.0801L77.3809 49.0397V51.3058C77.3809 51.398 77.3867 51.4576 77.3982 51.4845C77.4097 51.5114 77.4424 51.5383 77.4962 51.5652L77.8535 51.7786L77.8304 52.2398H75.8595L75.8307 51.6748Z" fill="white"></path>
  <path d="M79.0535 51.6517L79.4742 51.5364V49.328C79.4742 49.2281 79.4665 49.1627 79.4511 49.132C79.4358 49.0974 79.3954 49.0666 79.3301 49.0397L79.0304 48.8667L79.0592 48.3536H80.9092L80.9322 48.9417L80.5173 49.057V51.3058C80.5173 51.398 80.5231 51.4576 80.5346 51.4845C80.55 51.5114 80.5865 51.5383 80.6441 51.5652L80.938 51.744L80.9207 52.2398H79.0823L79.0535 51.6517Z" fill="white"></path>
  <path d="M83.1154 52.3206C82.4776 52.3206 82.0012 52.1591 81.6861 51.8362C81.3749 51.5133 81.2193 51.0232 81.2193 50.3659C81.2193 49.9392 81.2981 49.5702 81.4556 49.2588C81.6131 48.9436 81.8379 48.7014 82.1299 48.5323C82.4219 48.3632 82.7696 48.2786 83.173 48.2786C84.4562 48.2786 85.0979 48.934 85.0979 50.2448C85.0979 50.6753 85.0191 51.0463 84.8616 51.3577C84.7041 51.669 84.4755 51.9073 84.1758 52.0726C83.8799 52.2379 83.5265 52.3206 83.1154 52.3206ZM83.2364 51.5249C83.4554 51.5249 83.6648 51.4691 83.8646 51.3577C83.9068 51.2385 83.9395 51.0905 83.9625 50.9137C83.9856 50.733 83.9971 50.5562 83.9971 50.3832C83.9971 49.9565 83.9164 49.6336 83.7551 49.4145C83.5975 49.1954 83.3651 49.0858 83.0577 49.0858C82.8387 49.0858 82.6274 49.1262 82.4238 49.2069C82.3815 49.28 82.3489 49.4011 82.3258 49.5702C82.3028 49.7355 82.2912 49.9258 82.2912 50.141C82.2912 50.5869 82.3719 50.929 82.5333 51.1674C82.6947 51.4057 82.929 51.5249 83.2364 51.5249Z" fill="white"></path>
  <path d="M86.3876 49.7835L86.4856 51.2942C86.4894 51.3826 86.499 51.4403 86.5144 51.4672C86.5298 51.4941 86.5644 51.5229 86.6181 51.5537L86.9178 51.7555L86.8948 52.2398H85.3964L85.3676 51.6114L85.6788 51.5364L85.7018 49.2646C85.7018 49.1916 85.6961 49.1416 85.6845 49.1147C85.673 49.0878 85.6461 49.057 85.6038 49.0224L85.3906 48.861L85.431 48.3536H86.6239L88.3644 50.585L88.2837 49.2992C88.2798 49.2069 88.2702 49.1474 88.2549 49.1204C88.2395 49.0935 88.2049 49.0647 88.1511 49.034L87.8514 48.8379L87.8687 48.3536H89.3556L89.3787 48.9417L89.0847 49.0686L89.0617 52.188L88.3989 52.4071L86.3876 49.7835Z" fill="white"></path>
  <path d="M24.6533 58.557C24.2384 58.557 23.8561 58.5397 23.5065 58.5051L23.4776 57.9516L23.8983 57.8363V55.6394C23.8983 55.5395 23.8907 55.4741 23.8753 55.4434C23.8599 55.4088 23.8196 55.378 23.7543 55.3511L23.4546 55.1839L23.4892 54.7053C23.8887 54.6746 24.2249 54.6515 24.4977 54.6362C24.7705 54.6169 24.9895 54.6073 25.1547 54.6073C25.6849 54.6073 26.1094 54.6688 26.4283 54.7918C26.7511 54.9148 26.9854 55.109 27.1314 55.3742C27.2813 55.6394 27.3562 55.9912 27.3562 56.4294C27.3562 56.9829 27.2294 57.4307 26.9758 57.7729C26.7491 58.0688 26.4475 58.2745 26.071 58.3898C25.6983 58.5013 25.2258 58.557 24.6533 58.557ZM25.3795 57.7325C25.7022 57.7325 25.9577 57.6941 26.1459 57.6172C26.1805 57.5211 26.2113 57.3712 26.2382 57.1674C26.2689 56.9637 26.2843 56.7734 26.2843 56.5966C26.2843 56.1622 26.194 55.8412 26.0134 55.6337C25.8367 55.4261 25.5658 55.3223 25.2008 55.3223C25.1509 55.3223 25.1047 55.3242 25.0625 55.3281C25.0202 55.3319 24.9799 55.3358 24.9415 55.3396V57.7037C25.0951 57.7229 25.2411 57.7325 25.3795 57.7325Z" fill="white"></path>
  <path d="M27.6016 57.9516L28.0223 57.8363V55.6279C28.0223 55.528 28.0146 55.4626 27.9993 55.4319C27.9839 55.3973 27.9436 55.3665 27.8782 55.3396L27.5901 55.1724L27.6074 54.6535H30.7367C30.7636 55.0571 30.7771 55.4511 30.7771 55.8355L30.3506 55.8643L29.9414 55.3569L29.0712 55.3338V56.2737L30.2987 56.1699V57.0579L29.0712 56.9253V57.8536L30.0279 57.8363L30.4716 57.3289L30.8981 57.3577C30.8827 57.7613 30.8539 58.1553 30.8116 58.5397H27.6304L27.6016 57.9516Z" fill="white"></path>
  <path d="M31.3147 55.3281L31.1245 55.0571L31.1475 54.6535H32.8073L32.8649 55.2012L32.4557 55.305L33.2222 57.4903L33.908 55.5011C33.9196 55.4703 33.9253 55.4434 33.9253 55.4203C33.9253 55.3704 33.9023 55.3377 33.8562 55.3223L33.4585 55.1609L33.4989 54.6535H35.003L35.0376 55.1436L34.784 55.4665L33.5277 58.557L32.5364 58.6435L31.3147 55.3281Z" fill="white"></path>
  <path d="M35.3007 57.9516L35.7214 57.8363V55.6279C35.7214 55.528 35.7137 55.4626 35.6984 55.4319C35.683 55.3973 35.6427 55.3665 35.5774 55.3396L35.2892 55.1724L35.3065 54.6535H38.4358C38.4627 55.0571 38.4762 55.4511 38.4762 55.8355L38.0497 55.8643L37.6405 55.3569L36.7703 55.3338V56.2737L37.9978 56.1699V57.0579L36.7703 56.9253V57.8536L37.727 57.8363L38.1707 57.3289L38.5972 57.3577C38.5818 57.7613 38.553 58.1553 38.5108 58.5397H35.3295L35.3007 57.9516Z" fill="white"></path>
  <path d="M38.8914 57.9343L39.2545 57.8363V55.6279C39.2545 55.528 39.2468 55.4626 39.2314 55.4319C39.2199 55.3973 39.1834 55.3665 39.1219 55.3396L38.8799 55.2012L38.8972 54.6535H40.6952L40.724 55.2416L40.2976 55.3569V57.8478L41.0237 57.8305L41.5136 57.2712L41.9573 57.2943C41.9497 57.6172 41.9228 58.0323 41.8767 58.5397H38.9202L38.8914 57.9343Z" fill="white"></path>
  <path d="M44.1415 58.6205C43.5037 58.6205 43.0273 58.459 42.7122 58.1361C42.401 57.8132 42.2454 57.3231 42.2454 56.6658C42.2454 56.2391 42.3242 55.8701 42.4817 55.5587C42.6392 55.2435 42.864 55.0013 43.156 54.8322C43.448 54.6631 43.7957 54.5785 44.1991 54.5785C45.4823 54.5785 46.124 55.2339 46.124 56.5447C46.124 56.9752 46.0452 57.3462 45.8877 57.6575C45.7301 57.9689 45.5015 58.2072 45.2019 58.3725C44.906 58.5378 44.5526 58.6205 44.1415 58.6205ZM44.2625 57.8248C44.4815 57.8248 44.6909 57.769 44.8907 57.6575C44.9329 57.5384 44.9656 57.3904 44.9886 57.2136C45.0117 57.0329 45.0232 56.8561 45.0232 56.6831C45.0232 56.2564 44.9425 55.9335 44.7812 55.7144C44.6236 55.4953 44.3912 55.3857 44.0838 55.3857C43.8648 55.3857 43.6535 55.4261 43.4499 55.5068C43.4076 55.5799 43.375 55.7009 43.3519 55.8701C43.3289 56.0354 43.3173 56.2256 43.3173 56.4409C43.3173 56.8868 43.398 57.2289 43.5594 57.4673C43.7208 57.7056 43.9551 57.8248 44.2625 57.8248Z" fill="white"></path>
  <path d="M46.3949 57.9516L46.8156 57.8363V55.6394C46.8156 55.5395 46.8079 55.4741 46.7925 55.4434C46.7771 55.4088 46.7368 55.378 46.6715 55.3511L46.3718 55.1839L46.4064 54.7169C46.6984 54.6707 46.975 54.6381 47.2363 54.6189C47.4975 54.5958 47.778 54.5843 48.0777 54.5843C48.4926 54.5843 48.825 54.6285 49.0747 54.7169C49.3283 54.8053 49.5127 54.9437 49.6279 55.132C49.7471 55.3204 49.8066 55.5702 49.8066 55.8816C49.8066 56.2852 49.6606 56.6024 49.3686 56.833C49.0805 57.0636 48.6847 57.179 48.1814 57.179L47.8644 57.1674V57.6056C47.8644 57.6979 47.8702 57.7575 47.8817 57.7844C47.8971 57.8113 47.9317 57.8382 47.9855 57.8651L48.337 58.0727L48.314 58.5397H46.4237L46.3949 57.9516ZM48.2333 56.5389C48.4408 56.5389 48.5925 56.5178 48.6886 56.4755C48.7308 56.2872 48.752 56.0892 48.752 55.8816C48.752 55.6548 48.7078 55.4934 48.6194 55.3973C48.5349 55.3012 48.3966 55.2531 48.2045 55.2531C48.1392 55.2531 48.0258 55.2608 47.8644 55.2762V56.5043C47.9682 56.5274 48.0911 56.5389 48.2333 56.5389Z" fill="white"></path>
  <path d="M51.0975 55.9912L50.9707 57.6979V57.721C50.9707 57.794 50.9976 57.842 51.0514 57.8651L51.4087 58.015L51.3511 58.5397H49.9161L49.8585 58.0266L50.1236 57.8651L50.4521 55.6394C50.4559 55.6125 50.4578 55.5799 50.4578 55.5414C50.4578 55.4953 50.4463 55.4607 50.4233 55.4376C50.404 55.4146 50.3656 55.3857 50.308 55.3511L50.0429 55.2012L50.0775 54.6535H51.7315L52.5556 57.3404L53.3739 54.6535H54.9184L54.9415 55.2589L54.5727 55.3511L54.8839 57.6114C54.8954 57.6883 54.9108 57.7479 54.93 57.7902C54.953 57.8324 55.003 57.9016 55.0798 57.9977L55.2008 58.1534L55.1663 58.5397H53.4489L53.397 58.0093L53.8696 57.8882L53.6736 55.9566L52.936 58.5628L51.9505 58.6493L51.0975 55.9912Z" fill="white"></path>
  <path d="M55.4265 57.9516L55.8472 57.8363V55.6279C55.8472 55.528 55.8395 55.4626 55.8241 55.4319C55.8087 55.3973 55.7684 55.3665 55.7031 55.3396L55.4149 55.1724L55.4322 54.6535H58.5616C58.5885 55.0571 58.6019 55.4511 58.6019 55.8355L58.1754 55.8643L57.7663 55.3569L56.896 55.3338V56.2737L58.1236 56.1699V57.0579L56.896 56.9253V57.8536L57.8527 57.8363L58.2965 57.3289L58.7229 57.3577C58.7076 57.7613 58.6787 58.1553 58.6365 58.5397H55.4553L55.4265 57.9516Z" fill="white"></path>
  <path d="M60.0429 56.0834L60.1409 57.5941C60.1448 57.6825 60.1544 57.7402 60.1697 57.7671C60.1851 57.794 60.2197 57.8228 60.2735 57.8536L60.5732 58.0554L60.5501 58.5397H59.0517L59.0229 57.9112L59.3341 57.8363L59.3571 55.5645C59.3571 55.4914 59.3514 55.4415 59.3399 55.4146C59.3283 55.3877 59.3014 55.3569 59.2592 55.3223L59.0459 55.1609L59.0863 54.6535H60.2792L62.0197 56.8849L61.939 55.5991C61.9352 55.5068 61.9256 55.4472 61.9102 55.4203C61.8948 55.3934 61.8602 55.3646 61.8064 55.3338L61.5068 55.1378L61.5241 54.6535H63.0109L63.034 55.2416L62.7401 55.3684L62.717 58.4878L62.0543 58.7069L60.0429 56.0834Z" fill="white"></path>
  <path d="M64.1638 57.9747L64.6652 57.8363V55.3396L64.1811 55.38L63.7546 55.8931L63.3339 55.8585C63.3339 55.5395 63.3493 55.1378 63.38 54.6535H66.9877C67.0185 55.1378 67.0338 55.5395 67.0338 55.8585L66.6189 55.8931L66.1867 55.38L65.7141 55.3396V57.6056C65.7141 57.6979 65.7198 57.7575 65.7314 57.7844C65.7429 57.8113 65.7756 57.8382 65.8293 57.8651L66.1867 58.0785L66.1636 58.5397H64.1926L64.1638 57.9747Z" fill="white"></path>
  <path d="M70.0848 58.6262C69.5008 58.6262 69.0513 58.4475 68.7362 58.09C68.4212 57.7325 68.2637 57.227 68.2637 56.5735C68.2637 56.1584 68.3386 55.8009 68.4884 55.5011C68.6421 55.1974 68.863 54.9667 69.1512 54.8091C69.4393 54.6477 69.7813 54.567 70.177 54.567C70.6265 54.567 71.0895 54.6688 71.5659 54.8726C71.5313 55.2185 71.4756 55.601 71.3988 56.02L70.9608 56.0488L70.5631 55.4665C70.3941 55.4165 70.2077 55.3915 70.0041 55.3915C69.8504 55.3915 69.7044 55.405 69.5661 55.4319C69.5046 55.551 69.4547 55.7086 69.4163 55.9047C69.3778 56.1007 69.3586 56.2987 69.3586 56.4986C69.3586 56.9253 69.4355 57.2424 69.5892 57.45C69.7467 57.6537 69.9945 57.7594 70.3326 57.7671C70.4671 57.7671 70.6361 57.7479 70.8398 57.7094C71.0472 57.6671 71.2489 57.6133 71.4449 57.548L71.6235 58.1822C71.4237 58.3129 71.1817 58.4206 70.8974 58.5051C70.6169 58.5859 70.346 58.6262 70.0848 58.6262Z" fill="white"></path>
  <path d="M73.8067 58.6205C73.1689 58.6205 72.6925 58.459 72.3774 58.1361C72.0662 57.8132 71.9106 57.3231 71.9106 56.6658C71.9106 56.2391 71.9894 55.8701 72.1469 55.5587C72.3044 55.2435 72.5292 55.0013 72.8212 54.8322C73.1132 54.6631 73.4609 54.5785 73.8643 54.5785C75.1475 54.5785 75.7891 55.2339 75.7891 56.5447C75.7891 56.9752 75.7104 57.3462 75.5529 57.6575C75.3953 57.9689 75.1667 58.2072 74.8671 58.3725C74.5712 58.5378 74.2178 58.6205 73.8067 58.6205ZM73.9277 57.8248C74.1467 57.8248 74.3561 57.769 74.5559 57.6575C74.5981 57.5384 74.6308 57.3904 74.6538 57.2136C74.6769 57.0329 74.6884 56.8561 74.6884 56.6831C74.6884 56.2564 74.6077 55.9335 74.4464 55.7144C74.2888 55.4953 74.0564 55.3857 73.749 55.3857C73.53 55.3857 73.3187 55.4261 73.1151 55.5068C73.0728 55.5799 73.0402 55.7009 73.0171 55.8701C72.9941 56.0354 72.9825 56.2256 72.9825 56.4409C72.9825 56.8868 73.0632 57.2289 73.2246 57.4673C73.3859 57.7056 73.6203 57.8248 73.9277 57.8248Z" fill="white"></path>
  <path d="M77.1833 55.9912L77.0565 57.6979V57.721C77.0565 57.794 77.0834 57.842 77.1372 57.8651L77.4945 58.015L77.4369 58.5397H76.0019L75.9443 58.0266L76.2094 57.8651L76.5379 55.6394C76.5417 55.6125 76.5436 55.5799 76.5436 55.5414C76.5436 55.4953 76.5321 55.4607 76.509 55.4376C76.4898 55.4146 76.4514 55.3857 76.3938 55.3511L76.1287 55.2012L76.1633 54.6535H77.8173L78.6414 57.3404L79.4597 54.6535H81.0042L81.0273 55.2589L80.6585 55.3511L80.9697 57.6114C80.9812 57.6883 80.9966 57.7479 81.0158 57.7902C81.0388 57.8324 81.0888 57.9016 81.1656 57.9977L81.2866 58.1534L81.252 58.5397H79.5347L79.4828 58.0093L79.9554 57.8882L79.7594 55.9566L79.0217 58.5628L78.0363 58.6493L77.1833 55.9912Z" fill="white"></path>
  <path d="M81.5136 57.9516L81.9343 57.8363V55.6394C81.9343 55.5395 81.9266 55.4741 81.9112 55.4434C81.8959 55.4088 81.8555 55.378 81.7902 55.3511L81.4905 55.1839L81.5251 54.7169C81.8171 54.6707 82.0937 54.6381 82.355 54.6189C82.6163 54.5958 82.8967 54.5843 83.1964 54.5843C83.6114 54.5843 83.9437 54.6285 84.1934 54.7169C84.447 54.8053 84.6314 54.9437 84.7467 55.132C84.8658 55.3204 84.9253 55.5702 84.9253 55.8816C84.9253 56.2852 84.7793 56.6024 84.4873 56.833C84.1992 57.0636 83.8035 57.179 83.3001 57.179L82.9832 57.1674V57.6056C82.9832 57.6979 82.9889 57.7575 83.0005 57.7844C83.0158 57.8113 83.0504 57.8382 83.1042 57.8651L83.4557 58.0727L83.4327 58.5397H81.5424L81.5136 57.9516ZM83.352 56.5389C83.5595 56.5389 83.7112 56.5178 83.8073 56.4755C83.8496 56.2872 83.8707 56.0892 83.8707 55.8816C83.8707 55.6548 83.8265 55.4934 83.7381 55.3973C83.6536 55.3012 83.5153 55.2531 83.3232 55.2531C83.2579 55.2531 83.1445 55.2608 82.9832 55.2762V56.5043C83.0869 56.5274 83.2099 56.5389 83.352 56.5389Z" fill="white"></path>
  <path d="M84.5499 58.0266L84.7285 57.917L86.0771 54.6477L87.0568 54.5612L88.2094 57.6748C88.2478 57.7748 88.2747 57.8401 88.2901 57.8709C88.3055 57.9016 88.3343 57.9439 88.3766 57.9977L88.4803 58.1303L88.4457 58.5397H86.8263L86.7687 57.992L87.1778 57.8882L86.9934 57.3058L85.8235 57.3231L85.6967 57.6864C85.6852 57.721 85.6794 57.7498 85.6794 57.7729C85.6794 57.7998 85.6833 57.8209 85.691 57.8363C85.7025 57.8478 85.7198 57.8574 85.7428 57.8651L86.1405 58.0323L86.0829 58.5397H84.5729L84.5499 58.0266ZM86.4344 55.5472L86.054 56.6543L86.7975 56.6888L86.4344 55.5472Z" fill="white"></path>
  <path d="M89.7419 56.0834L89.8399 57.5941C89.8437 57.6825 89.8533 57.7402 89.8687 57.7671C89.8841 57.794 89.9186 57.8228 89.9724 57.8536L90.2721 58.0554L90.2491 58.5397H88.7507L88.7219 57.9112L89.0331 57.8363L89.0561 55.5645C89.0561 55.4914 89.0503 55.4415 89.0388 55.4146C89.0273 55.3877 89.0004 55.3569 88.9581 55.3223L88.7449 55.1609L88.7852 54.6535H89.9782L91.7186 56.8849L91.638 55.5991C91.6341 55.5068 91.6245 55.4472 91.6091 55.4203C91.5938 55.3934 91.5592 55.3646 91.5054 55.3338L91.2057 55.1378L91.223 54.6535H92.7099L92.7329 55.2416L92.439 55.3684L92.416 58.4878L91.7532 58.7069L89.7419 56.0834Z" fill="white"></path>
  <path d="M93.056 57.9516L93.4767 57.8363V55.6279C93.4767 55.528 93.469 55.4626 93.4536 55.4319C93.4382 55.3973 93.3979 55.3665 93.3326 55.3396L93.0329 55.1666L93.0617 54.6535H94.9117L94.9347 55.2416L94.5198 55.3569V57.6056C94.5198 57.6979 94.5255 57.7575 94.5371 57.7844C94.5524 57.8113 94.5889 57.8382 94.6466 57.8651L94.9405 58.0439L94.9232 58.5397H93.0848L93.056 57.9516Z" fill="white"></path>
  <path d="M95.2615 57.9516L95.6822 57.8363V55.6279C95.6822 55.528 95.6745 55.4626 95.6591 55.4319C95.6437 55.3973 95.6034 55.3665 95.5381 55.3396L95.2499 55.1724L95.2672 54.6535H98.3966C98.4235 55.0571 98.4369 55.4511 98.4369 55.8355L98.0104 55.8643L97.6013 55.3569L96.731 55.3338V56.2737L97.9586 56.1699V57.0579L96.731 56.9253V57.8536L97.6877 57.8363L98.1315 57.3289L98.5579 57.3577C98.5426 57.7613 98.5137 58.1553 98.4715 58.5397H95.2903L95.2615 57.9516Z" fill="white"></path>
  <path d="M100.143 58.6089C99.7204 58.6089 99.292 58.5436 98.8579 58.4129C98.8771 58.0323 98.9078 57.6787 98.9501 57.3519L99.3938 57.2654L99.682 57.7556C99.9125 57.8363 100.116 57.8766 100.293 57.8766C100.354 57.8766 100.485 57.8593 100.685 57.8248C100.692 57.7479 100.696 57.696 100.696 57.6691C100.696 57.5768 100.681 57.5076 100.65 57.4615C100.619 57.4115 100.552 57.3577 100.448 57.3C100.345 57.2385 100.158 57.1482 99.8895 57.029C99.5591 56.8676 99.3208 56.6946 99.1749 56.5101C99.0289 56.3217 98.9558 56.1007 98.9558 55.847C98.9558 55.4511 99.0903 55.1416 99.3593 54.9187C99.6282 54.6957 99.997 54.5843 100.466 54.5843C100.692 54.5843 100.917 54.6073 101.14 54.6535C101.367 54.6957 101.565 54.7553 101.734 54.8322C101.726 55.0475 101.709 55.3146 101.682 55.6337L101.664 55.8816L101.244 55.945L100.806 55.3857C100.667 55.3434 100.495 55.3223 100.287 55.3223C100.156 55.3223 100.059 55.3338 99.9932 55.3569C99.974 55.4338 99.9644 55.4934 99.9644 55.5356C99.9644 55.6202 99.9855 55.6952 100.028 55.7605C100.07 55.822 100.145 55.8874 100.253 55.9566C100.36 56.0219 100.52 56.1046 100.731 56.2045C101.038 56.3506 101.271 56.4794 101.428 56.5908C101.586 56.7023 101.695 56.8195 101.757 56.9426C101.822 57.0617 101.855 57.2078 101.855 57.3808C101.855 57.7613 101.703 58.0612 101.399 58.2803C101.096 58.4994 100.677 58.6089 100.143 58.6089Z" fill="white"></path>
  <path d="M23.8323 47.2213L24.6948 48.9699L26.6235 49.2503L25.2279 50.6114L25.5574 52.5333L23.8323 51.6259L22.1072 52.5333L22.4366 50.6114L21.041 49.2503L22.9697 48.9699L23.8323 47.2213Z" fill="white"></path>
  <path d="M103.448 47.2213L104.311 48.9699L106.24 49.2503L104.844 50.6114L105.174 52.5333L103.448 51.6259L101.723 52.5333L102.053 50.6114L100.657 49.2503L102.586 48.9699L103.448 47.2213Z" fill="white"></path>
  <path fill-rule="evenodd" clip-rule="evenodd" d="M60.1107 19.0348L59.8388 19.0572L59.4823 19.0865L59.7563 22.4154L60.5013 22.354L60.4303 21.4921L60.2271 19.9292L61.2782 22.29L61.7787 22.2488L62.4297 19.7477L62.4847 21.3228L62.5557 22.1848L63.3029 22.1232L63.0289 18.7943L62.6701 18.8239L62.3982 18.8463L62.0531 18.8747L61.4515 21.3205L60.4558 19.0063L60.1107 19.0348ZM59.193 20.7307L59.2209 20.8772C59.2683 21.1266 59.2764 21.357 59.2451 21.5685C59.2153 21.7797 59.1506 21.9672 59.0511 22.1309C58.9531 22.2944 58.8249 22.4302 58.6665 22.5382C58.5093 22.6444 58.3264 22.7174 58.1177 22.7572C57.9089 22.797 57.7112 22.7965 57.5245 22.7558C57.3375 22.7136 57.1669 22.6348 57.0127 22.5195C56.86 22.4038 56.7302 22.2534 56.6233 22.0682C56.5165 21.8831 56.4393 21.6658 56.3919 21.4164L56.364 21.2699C56.3165 21.0205 56.3084 20.7901 56.3397 20.5786C56.3707 20.3657 56.4353 20.1774 56.5333 20.014C56.6328 19.8502 56.7619 19.7151 56.9206 19.6085C57.079 19.5005 57.2625 19.4266 57.4712 19.3868C57.68 19.347 57.8778 19.3482 58.0648 19.3904C58.2515 19.4311 58.4205 19.5095 58.5717 19.6254C58.7244 19.7411 58.8544 19.8923 58.9615 20.0789C59.0683 20.2641 59.1455 20.4813 59.193 20.7307ZM58.4798 21.0185L58.4511 20.8675C58.4193 20.7007 58.3763 20.5563 58.3219 20.4344C58.2673 20.3109 58.2031 20.211 58.1295 20.1348C58.0558 20.0585 57.9728 20.0066 57.8804 19.979C57.7878 19.95 57.6881 19.9456 57.5815 19.966C57.4704 19.9871 57.3778 20.0281 57.3038 20.089C57.2295 20.1483 57.1722 20.2269 57.1317 20.3249C57.0927 20.4227 57.0705 20.539 57.0651 20.6739C57.0609 20.807 57.0746 20.957 57.1064 21.1238L57.1351 21.2747C57.1666 21.44 57.2089 21.5845 57.262 21.7083C57.3164 21.8303 57.3805 21.9301 57.4545 22.0079C57.5284 22.0856 57.611 22.1392 57.7021 22.1685C57.7948 22.1976 57.8967 22.2015 58.0078 22.1803C58.1144 22.16 58.2047 22.1194 58.2787 22.0586C58.3542 21.9975 58.4121 21.9172 58.4523 21.8177C58.4925 21.7182 58.5147 21.6019 58.5189 21.4687C58.5243 21.3338 58.5113 21.1837 58.4798 21.0185ZM56.3225 21.9477L55.6143 22.1722C55.6462 22.2984 55.6526 22.4095 55.6332 22.5054C55.6139 22.6014 55.5685 22.6832 55.4969 22.7508C55.4248 22.817 55.3254 22.8701 55.1986 22.9103C55.0879 22.9454 54.9877 22.9556 54.898 22.9407C54.8083 22.9258 54.7259 22.8861 54.651 22.8216C54.5775 22.7567 54.5105 22.6664 54.4498 22.5509C54.3892 22.4354 54.3323 22.2938 54.2792 22.1261L54.2162 21.9271C54.1627 21.758 54.1289 21.6082 54.1149 21.4779C54.1004 21.3462 54.1052 21.2323 54.1294 21.1364C54.155 21.0401 54.1997 20.9609 54.2634 20.899C54.3287 20.8366 54.4123 20.7893 54.5143 20.7569C54.6542 20.7126 54.7733 20.6989 54.8717 20.7158C54.9701 20.7328 55.0533 20.7778 55.1213 20.8509C55.1889 20.9225 55.2452 21.0193 55.2903 21.1414L56.0007 20.9162C55.911 20.704 55.7874 20.529 55.63 20.3912C55.4739 20.253 55.2872 20.1646 55.0697 20.126C54.8523 20.0875 54.608 20.1111 54.337 20.1971C54.1359 20.2608 53.9651 20.3543 53.8245 20.4774C53.6839 20.6006 53.5766 20.7478 53.5025 20.9188C53.4284 21.0899 53.39 21.2802 53.3874 21.4896C53.3847 21.699 53.421 21.9225 53.4963 22.1601L53.5579 22.3548C53.6332 22.5924 53.7307 22.7965 53.8504 22.9671C53.9712 23.1358 54.1097 23.2692 54.2658 23.3673C54.4229 23.4634 54.5951 23.5212 54.7824 23.5404C54.9697 23.5596 55.1675 23.5362 55.3759 23.4702C55.6368 23.3875 55.8471 23.2695 56.007 23.1161C56.1664 22.9613 56.273 22.7839 56.3268 22.584C56.3815 22.3822 56.3801 22.17 56.3225 21.9477ZM52.3855 23.1865L51.8643 23.4565L52.2617 24.2246L52.7565 23.9683C52.8583 23.9155 52.9326 23.8564 52.9796 23.7907C53.0265 23.7251 53.0505 23.6567 53.0516 23.5855C53.0526 23.5144 53.0352 23.4442 52.9994 23.3749C52.9572 23.2934 52.9064 23.2302 52.847 23.1852C52.7889 23.1395 52.7216 23.1158 52.645 23.1141C52.5698 23.1118 52.4833 23.1359 52.3855 23.1865ZM52.0193 22.8131L51.6345 23.0124L51.2592 22.2871L51.6461 22.0867C51.756 22.0298 51.8523 21.9963 51.9349 21.9862C52.0181 21.9741 52.0901 21.9868 52.1508 22.0242C52.2115 22.0617 52.2646 22.1246 52.3103 22.2128C52.3504 22.2903 52.3678 22.3639 52.3626 22.4337C52.3568 22.5022 52.3256 22.5683 52.269 22.632C52.2139 22.6951 52.1306 22.7554 52.0193 22.8131ZM52.118 24.9499L52.5273 24.7379L53.0221 24.4817C53.2597 24.3586 53.4423 24.2227 53.5701 24.0738C53.6993 23.9242 53.7719 23.7635 53.788 23.5916C53.8033 23.4183 53.7611 23.2352 53.6613 23.0424C53.6009 22.9256 53.5185 22.8279 53.4141 22.7493C53.3098 22.6708 53.1841 22.6291 53.037 22.6243C52.9767 22.6215 52.913 22.6279 52.8459 22.6435C52.8684 22.618 52.8884 22.592 52.906 22.5656C52.9903 22.4393 53.0319 22.3101 53.0308 22.1781C53.031 22.0454 52.9998 21.9186 52.9372 21.7977C52.8656 21.6592 52.7776 21.5524 52.6733 21.4772C52.569 21.4021 52.4497 21.3562 52.3155 21.3396C52.1826 21.3223 52.0378 21.3336 51.8811 21.3734C51.7245 21.4133 51.5572 21.4792 51.3794 21.5713L50.3287 22.1155L51.8635 25.0818L52.118 24.9499ZM48.6233 22.8996L47.5564 23.6102L49.4063 26.3907L50.0285 25.9763L49.3602 24.9718L49.769 24.6996L50.9447 25.3661L51.6108 24.9225L51.5918 24.8938L50.248 24.1586C50.3011 24.0715 50.3425 23.9829 50.3721 23.8928C50.4159 23.7626 50.427 23.6275 50.4054 23.4875C50.3839 23.3475 50.3223 23.2011 50.2207 23.0483C50.0987 22.865 49.9542 22.7389 49.7873 22.6701C49.6203 22.6013 49.4373 22.5871 49.2385 22.6277C49.0409 22.6675 48.8358 22.7581 48.6233 22.8996ZM49.0388 24.4886L49.4854 24.1912C49.5783 24.1293 49.6443 24.0615 49.6833 23.9877C49.7224 23.9139 49.7373 23.837 49.728 23.7568C49.7191 23.6745 49.6876 23.5926 49.6334 23.5111C49.5775 23.4271 49.5133 23.3651 49.4408 23.3252C49.3684 23.2853 49.2904 23.2702 49.2069 23.2799C49.1238 23.2874 49.0364 23.3217 48.9448 23.3828L48.5001 23.6789L49.0388 24.4886ZM48.7682 26.1813L49.1227 26.6378L47.9205 27.5725L47.7196 27.7287L47.3303 28.0314L45.2818 25.3939L45.6711 25.0913L45.8721 24.9351L47.0761 23.999L47.432 24.4573L46.228 25.3933L46.6965 25.9965L47.7176 25.2026L48.0609 25.6446L47.0398 26.4385L47.566 27.116L48.7682 26.1813ZM44.989 28.2126L45.4067 27.8265C45.602 27.646 45.7398 27.4593 45.8199 27.2666C45.9001 27.0717 45.9233 26.8816 45.8895 26.6963C45.8569 26.5099 45.7675 26.3376 45.6212 26.1792C45.475 26.0208 45.3077 25.9151 45.1194 25.8622C44.9312 25.8071 44.7343 25.809 44.5286 25.868C44.324 25.9259 44.124 26.0451 43.9286 26.2257L42.9619 27.1192L45.2271 29.5727L45.7762 29.0652L44.989 28.2126ZM44.5953 27.7862L43.9046 27.038L44.3223 26.652C44.4132 26.5679 44.5033 26.519 44.5925 26.5053C44.6829 26.4904 44.769 26.5014 44.8509 26.5382C44.9328 26.5729 45.0059 26.625 45.0702 26.6947C45.1324 26.7621 45.175 26.8352 45.1978 26.914C45.2207 26.9907 45.2181 27.0701 45.19 27.1523C45.163 27.2335 45.104 27.3161 45.013 27.4002L44.5953 27.7862ZM42.0132 28.0857L42.5446 27.5597L44.0862 29.1188C44.269 29.3037 44.3836 29.4979 44.43 29.7014C44.4776 29.9039 44.4641 30.1055 44.3895 30.3063C44.3149 30.507 44.1868 30.6972 44.0054 30.8768C43.8228 31.0575 43.6302 31.1846 43.4277 31.2582C43.2263 31.3306 43.0236 31.343 42.8195 31.2954C42.6166 31.2467 42.4237 31.13 42.241 30.9451L40.6994 29.386L41.2324 28.8584L42.774 30.4176C42.8751 30.5198 42.973 30.5884 43.068 30.6236C43.1629 30.6565 43.2548 30.6592 43.3436 30.6315C43.4313 30.6028 43.5164 30.5476 43.599 30.4658C43.6816 30.3841 43.7372 30.3 43.7657 30.2137C43.7943 30.1252 43.7916 30.0343 43.7575 29.9411C43.7234 29.8458 43.6559 29.747 43.5548 29.6448L42.0132 28.0857ZM41.8372 31.9468C41.7975 31.9064 41.7562 31.8763 41.7131 31.8565C41.669 31.8355 41.6177 31.8269 41.5593 31.8307C41.5009 31.8346 41.4294 31.8512 41.3448 31.8808C41.2592 31.9092 41.155 31.9548 41.0323 32.0175C40.8912 32.0876 40.7507 32.1485 40.6108 32.2003C40.4709 32.2499 40.3344 32.2822 40.2013 32.2972C40.0682 32.3122 39.9413 32.3019 39.8206 32.2662C39.7009 32.2295 39.5897 32.1587 39.4868 32.054C39.3872 31.9525 39.3196 31.8389 39.2839 31.7132C39.2483 31.5874 39.2424 31.4559 39.2664 31.3188C39.2892 31.1806 39.3402 31.0426 39.4192 30.9049C39.4972 30.7661 39.6016 30.6323 39.7325 30.5037C39.9069 30.3323 40.0907 30.2128 40.2837 30.1453C40.4767 30.0756 40.6649 30.06 40.8483 30.0984C41.0307 30.1357 41.1936 30.2275 41.3372 30.3737L40.8072 30.8945C40.744 30.8302 40.6747 30.7868 40.5992 30.7645C40.5238 30.7401 40.4448 30.7404 40.3625 30.7657C40.2812 30.7898 40.2002 30.8415 40.1195 30.9208C40.041 30.998 39.9868 31.0749 39.9569 31.1514C39.9271 31.2257 39.9184 31.2965 39.9307 31.3637C39.9442 31.4297 39.9745 31.4868 40.0216 31.5348C40.0591 31.573 40.1032 31.5982 40.1539 31.6106C40.2046 31.6208 40.2624 31.6208 40.3274 31.6105C40.3924 31.5981 40.465 31.5761 40.5452 31.5443C40.6255 31.5126 40.7129 31.4717 40.8074 31.4217C40.9746 31.3367 41.1314 31.2705 41.2777 31.2232C41.4252 31.1747 41.5632 31.1484 41.6919 31.1441C41.8206 31.1399 41.9404 31.1604 42.0513 31.2057C42.1633 31.25 42.2681 31.3217 42.3655 31.421C42.4694 31.5269 42.5409 31.641 42.5798 31.7636C42.6197 31.8851 42.6294 32.0128 42.6088 32.1467C42.5881 32.2784 42.5389 32.4116 42.4609 32.5461C42.383 32.6806 42.278 32.8126 42.1461 32.9423C42.0261 33.0602 41.8928 33.1612 41.7462 33.2454C41.5984 33.3284 41.4455 33.3843 41.2874 33.4132C41.1304 33.441 40.9749 33.4331 40.8207 33.3896C40.6665 33.3439 40.5219 33.2523 40.387 33.1148L40.9202 32.5907C40.9909 32.6627 41.0613 32.7137 41.1312 32.7435C41.2002 32.7722 41.2687 32.7831 41.3369 32.7761C41.4061 32.7681 41.475 32.7433 41.5435 32.7017C41.6119 32.6602 41.6805 32.6056 41.7492 32.5381C41.8288 32.4599 41.8824 32.3857 41.9101 32.3157C41.9377 32.2435 41.9443 32.1759 41.9297 32.1131C41.9151 32.0502 41.8843 31.9948 41.8372 31.9468ZM65.4977 21.0146L64.9292 21.001L64.9015 22.1614L64.1542 22.1436L64.234 18.8044L65.5498 18.8359C65.8157 18.8422 66.0422 18.8958 66.2294 18.9967C66.4181 19.0976 66.5609 19.2333 66.6577 19.4039C66.7561 19.573 66.8028 19.7654 66.7976 19.9809C66.7925 20.1965 66.7368 20.3826 66.6306 20.5391C66.5259 20.6957 66.3771 20.8161 66.1839 20.9002C65.9923 20.9828 65.7636 21.0209 65.4977 21.0146ZM64.9674 19.4025L64.9431 20.4208L65.5116 20.4344C65.6353 20.4373 65.7352 20.419 65.811 20.3796C65.8884 20.3401 65.9456 20.2849 65.9824 20.2138C66.0209 20.1413 66.0412 20.0592 66.0434 19.9675C66.0456 19.8727 66.0294 19.7843 65.9946 19.7024C65.9615 19.619 65.9073 19.5512 65.8321 19.4989C65.7584 19.4466 65.6597 19.419 65.5359 19.4161L64.9674 19.4025ZM68.3682 19.1015L68.5597 19.1225L69.4294 22.5779L68.6362 22.491L68.4972 21.8065L67.3512 21.6809L67.068 22.3192L66.2749 22.2323L67.8668 19.0466L68.0514 19.0668L68.3682 19.1015ZM67.5973 21.1263L68.3764 21.2117L68.1199 19.9484L67.5973 21.1263ZM73.0358 19.9059L72.3343 23.1715L71.6058 23.0148L70.8262 20.6392L70.3728 22.7497L69.642 22.5926L70.3436 19.327L71.0743 19.4842L71.8561 21.8603L72.3095 19.7498L73.0358 19.9059ZM73.5375 23.6792L74.573 20.5038L73.8646 20.2726L72.8291 23.448L73.5375 23.6792ZM76.4162 24.1711L76.2099 24.7111L74.7878 24.1672L74.55 24.0763L74.0896 23.9001L75.2816 20.7802L75.7421 20.9563L75.9798 21.0472L77.4041 21.5919L77.1969 22.1341L75.7727 21.5894L75.5 22.3029L76.708 22.7649L76.5082 23.2878L75.3003 22.8258L74.9941 23.6272L76.4162 24.1711ZM78.3983 24.6946C78.3935 24.7418 78.3784 24.7907 78.353 24.8413C78.3229 24.9015 78.2804 24.9486 78.2257 24.9827C78.171 25.0169 78.105 25.0325 78.0278 25.0297C77.9526 25.0262 77.8651 24.9994 77.7654 24.9494C77.6793 24.9062 77.6055 24.8589 77.544 24.8076C77.4826 24.7562 77.4368 24.699 77.4068 24.6361C77.3782 24.5738 77.3663 24.5054 77.3712 24.4308C77.3767 24.3549 77.4021 24.2719 77.4473 24.1816L76.7791 23.8464C76.6928 24.0187 76.653 24.1852 76.6596 24.3459C76.6683 24.506 76.7112 24.6558 76.7883 24.7954C76.8668 24.9357 76.9692 25.0624 77.0955 25.1754C77.2225 25.287 77.3612 25.3805 77.5115 25.4559C77.6768 25.5389 77.8357 25.5955 77.9881 25.6257C78.1405 25.656 78.2824 25.6596 78.4137 25.6365C78.547 25.6127 78.6646 25.5622 78.7666 25.485C78.8699 25.4085 78.9548 25.304 79.0212 25.1714C79.0836 25.047 79.1176 24.9246 79.1232 24.8042C79.1301 24.6845 79.1108 24.5645 79.0651 24.444C79.0195 24.3236 78.9499 24.2015 78.8563 24.0776C78.7642 23.9543 78.6509 23.8273 78.5163 23.6965C78.4385 23.6233 78.3716 23.5538 78.3156 23.4881C78.2596 23.4223 78.2153 23.3607 78.1825 23.3032C78.1518 23.2451 78.1331 23.1903 78.1263 23.139C78.1216 23.087 78.1312 23.0371 78.1552 22.9893C78.1853 22.9291 78.2295 22.882 78.2876 22.8478C78.3471 22.8144 78.4169 22.7998 78.4968 22.804C78.5789 22.8075 78.6691 22.8339 78.7675 22.8833C78.8686 22.934 78.9437 22.9939 78.9929 23.0631C79.0434 23.1329 79.0693 23.2075 79.0705 23.2868C79.0739 23.3655 79.0553 23.4451 79.0149 23.5258L79.679 23.8589C79.7708 23.6757 79.8048 23.4918 79.7811 23.3071C79.7581 23.121 79.6824 22.9479 79.5541 22.7877C79.4278 22.6268 79.2553 22.4916 79.0367 22.3819C78.8727 22.2996 78.7125 22.244 78.556 22.2151C78.4001 22.1849 78.2532 22.1813 78.115 22.2044C77.9776 22.2261 77.8552 22.2742 77.7478 22.3486C77.6404 22.4231 77.5548 22.5238 77.4911 22.651C77.4253 22.7822 77.3944 22.9104 77.3984 23.0356C77.4037 23.1615 77.435 23.2849 77.4923 23.4061C77.5496 23.5272 77.6243 23.6459 77.7164 23.7623C77.8107 23.878 77.9138 23.9913 78.0257 24.1023C78.1248 24.1981 78.2016 24.282 78.2562 24.3539C78.3115 24.4244 78.3504 24.4867 78.3729 24.5407C78.3954 24.5948 78.4038 24.6461 78.3983 24.6946ZM78.9794 25.9352C79.0273 25.843 79.1001 25.7826 79.1976 25.754C79.2965 25.7262 79.3989 25.7398 79.5046 25.7948C79.6118 25.8506 79.681 25.9262 79.7123 26.0218C79.7449 26.1181 79.7373 26.2124 79.6893 26.3046C79.6421 26.3955 79.5697 26.4553 79.4721 26.4838C79.3759 26.5131 79.2743 26.4998 79.1672 26.4441C79.0614 26.389 78.9915 26.313 78.9575 26.216C78.9248 26.1197 78.9321 26.0261 78.9794 25.9352ZM82.4562 27.2412L81.8284 26.8437C81.7525 26.9494 81.6716 27.0258 81.5858 27.0728C81.5 27.1198 81.4082 27.1377 81.3104 27.1265C81.2134 27.1139 81.1087 27.0721 80.9963 27.0009C80.8982 26.9387 80.8259 26.8685 80.7795 26.7903C80.7331 26.7121 80.7104 26.6235 80.7115 26.5246C80.7138 26.4266 80.7396 26.3171 80.7889 26.1963C80.8382 26.0755 80.9099 25.9408 81.0039 25.7921L81.1155 25.6157C81.2103 25.4658 81.303 25.3436 81.3937 25.2489C81.4851 25.153 81.5753 25.0834 81.6641 25.0401C81.7543 24.9976 81.8436 24.9809 81.932 24.9898C82.0217 24.9996 82.1118 25.0331 82.2022 25.0903C82.3262 25.1688 82.4134 25.2512 82.4638 25.3374C82.5142 25.4236 82.5333 25.5163 82.5213 25.6154C82.51 25.7133 82.4722 25.8188 82.4079 25.9319L83.0376 26.3306C83.1421 26.1253 83.1964 25.918 83.2003 25.7088C83.2056 25.5003 83.1529 25.3005 83.0423 25.1092C82.9318 24.9179 82.7564 24.7462 82.5161 24.5941C82.3379 24.4812 82.1564 24.4106 81.9717 24.3824C81.787 24.3541 81.6053 24.3667 81.4268 24.4201C81.2483 24.4736 81.0781 24.5667 80.9163 24.6996C80.7545 24.8324 80.6069 25.0041 80.4737 25.2148L80.3645 25.3873C80.2313 25.5979 80.138 25.804 80.0847 26.0055C80.0335 26.2066 80.0206 26.3985 80.0462 26.5812C80.0738 26.7634 80.1406 26.9323 80.2465 27.0881C80.3524 27.2438 80.4977 27.3802 80.6824 27.4971C80.9136 27.6435 81.1393 27.7286 81.3596 27.7522C81.5806 27.7745 81.7849 27.7419 81.9724 27.6543C82.1619 27.5662 82.3232 27.4285 82.4562 27.2412ZM85.2472 28.8071L85.1532 28.9228C84.9931 29.1197 84.8221 29.2743 84.6402 29.3866C84.4596 29.4998 84.2746 29.571 84.0853 29.6003C83.8971 29.6306 83.7108 29.6199 83.5262 29.5682C83.3437 29.5164 83.1701 29.4234 83.0052 29.2892C82.8404 29.1551 82.7134 29.0035 82.6243 28.8344C82.5361 28.6641 82.4865 28.4827 82.4754 28.2904C82.4654 28.099 82.4969 27.9028 82.5696 27.7018C82.6424 27.5008 82.7588 27.3018 82.9189 27.1048L83.0129 26.9891C83.173 26.7922 83.344 26.6376 83.5259 26.5253C83.7087 26.4119 83.8942 26.3401 84.0823 26.3098C84.2716 26.2805 84.4581 26.2923 84.6417 26.3451C84.8263 26.3968 85.0011 26.4896 85.1659 26.6238C85.3307 26.7579 85.4572 26.9101 85.5454 27.0804C85.6345 27.2495 85.6835 27.4293 85.6922 27.6197C85.7021 27.8111 85.6702 28.0079 85.5965 28.2101C85.5237 28.4111 85.4073 28.6101 85.2472 28.8071ZM84.5679 28.4466L84.6649 28.3273C84.7719 28.1956 84.8546 28.0697 84.9128 27.9495C84.972 27.8282 85.0071 27.7148 85.018 27.6093C85.0288 27.5038 85.0151 27.4068 84.9766 27.3184C84.9391 27.2288 84.8783 27.1497 84.7941 27.0812C84.7063 27.0098 84.6154 26.9653 84.5212 26.9479C84.428 26.9292 84.3309 26.9359 84.2299 26.9681C84.1301 27.0012 84.0269 27.0591 83.9202 27.1419C83.8157 27.2244 83.7099 27.3315 83.6029 27.4632L83.5059 27.5825C83.3998 27.713 83.3166 27.8384 83.2562 27.9588C83.1979 28.0789 83.1629 28.1924 83.151 28.299C83.1392 28.4057 83.1514 28.5034 83.1877 28.592C83.2252 28.6817 83.2878 28.7622 83.3756 28.8336C83.4598 28.9021 83.5489 28.9451 83.6431 28.9626C83.7384 28.981 83.8371 28.9736 83.9391 28.9402C84.041 28.9069 84.1443 28.849 84.2488 28.7665C84.3555 28.6837 84.4618 28.5771 84.5679 28.4466ZM87.0816 28.3887L86.8927 28.1916L86.6452 27.9334L84.2356 30.2452L84.753 30.785L85.3769 30.1864L86.4611 29.043L85.2925 31.3479L85.6401 31.7105L87.9908 30.6389L86.8036 31.6749L86.1797 32.2735L86.6986 32.8149L89.1082 30.5031L88.859 30.2431L88.6702 30.0461L88.4305 29.7961L86.1539 30.8711L87.3212 28.6387L87.0816 28.3887Z" fill="white"></path>
  <path d="M56.4856 76.1315L54.9704 78.9363L54.3447 78.598L55.8599 75.7931L56.4856 76.1315Z" fill="white"></path>
  <path d="M59.4316 77.4167L58.2683 80.385L57.6061 80.1252L57.2372 77.7672L56.4854 79.6856L55.8211 79.425L56.9844 76.4567L57.6486 76.7173L58.0196 79.0761L58.7714 77.1577L59.4316 77.4167Z" fill="white"></path>
  <path d="M62.6344 80.5779L62.5725 81.1064L60.3857 80.85L60.4382 80.4019L61.5867 79.4386C61.6953 79.3397 61.7828 79.2514 61.8491 79.174C61.9169 79.0967 61.9679 79.0255 62.002 78.9604C62.0362 78.8939 62.0567 78.8316 62.0635 78.7736C62.0745 78.6793 62.0687 78.5978 62.0459 78.529C62.0245 78.4604 61.9876 78.4053 61.9352 78.3639C61.8828 78.3225 61.816 78.297 61.7348 78.2875C61.6479 78.2773 61.5706 78.291 61.503 78.3286C61.4354 78.3663 61.3803 78.423 61.3376 78.4989C61.2951 78.5733 61.268 78.6605 61.2563 78.7605L60.5737 78.6805C60.5963 78.4876 60.6632 78.3176 60.7745 78.1705C60.8859 78.0219 61.0305 77.9102 61.2082 77.8355C61.3861 77.7593 61.5866 77.7343 61.8098 77.7605C62.0387 77.7874 62.2265 77.8461 62.3731 77.9368C62.5196 78.0275 62.6249 78.1449 62.6888 78.2891C62.7527 78.4333 62.7735 78.6004 62.7513 78.7903C62.7387 78.8976 62.7092 78.9992 62.6627 79.0952C62.6176 79.1913 62.5575 79.285 62.4821 79.3761C62.4068 79.4672 62.3182 79.559 62.2163 79.6514C62.1146 79.7423 62.0006 79.8377 61.8743 79.9376L61.3323 80.4252L62.6344 80.5779Z" fill="white"></path>
  <path d="M65.7448 79.1112L65.7906 79.6765C65.8095 79.9093 65.7997 80.113 65.7612 80.2875C65.7241 80.4618 65.6613 80.6083 65.5728 80.7268C65.4858 80.8452 65.3776 80.9367 65.2481 81.0014C65.12 81.0645 64.9753 81.1026 64.8139 81.1158C64.6844 81.1263 64.5624 81.1193 64.4477 81.095C64.333 81.0706 64.2277 81.0271 64.1319 80.9646C64.0374 80.9005 63.9538 80.818 63.8812 80.7169C63.8086 80.6159 63.7489 80.4933 63.702 80.3492C63.6567 80.205 63.6264 80.0397 63.6113 79.8535L63.5655 79.2882C63.5464 79.0525 63.5554 78.8481 63.5926 78.6752C63.6313 78.5022 63.6948 78.3564 63.7833 78.2379C63.8718 78.1194 63.9801 78.0286 64.1082 77.9655C64.2377 77.9022 64.3832 77.864 64.5446 77.8509C64.6741 77.8404 64.7954 77.8474 64.9086 77.8719C65.0233 77.8963 65.1286 77.9397 65.2244 78.0023C65.3203 78.0648 65.4038 78.1466 65.4749 78.2477C65.5475 78.3488 65.6065 78.4714 65.6519 78.6156C65.6986 78.7583 65.7296 78.9235 65.7448 79.1112ZM65.1169 79.8169L65.0569 79.077C65.048 78.9679 65.0338 78.8738 65.0143 78.7949C64.996 78.7143 64.9729 78.6466 64.9451 78.5918C64.9187 78.5368 64.8873 78.4932 64.851 78.461C64.8147 78.4288 64.7741 78.4064 64.7292 78.394C64.6856 78.3799 64.6384 78.375 64.5875 78.3791C64.5235 78.3843 64.4671 78.4021 64.4183 78.4324C64.3695 78.4627 64.33 78.5077 64.2997 78.5673C64.2693 78.6254 64.2485 78.7025 64.2372 78.7986C64.2273 78.8932 64.2279 79.0081 64.2388 79.1434L64.2989 79.8833C64.3077 79.9925 64.3213 80.0873 64.3395 80.1678C64.3592 80.2482 64.3823 80.3167 64.4089 80.3731C64.4367 80.428 64.4689 80.4722 64.5053 80.5059C64.5416 80.5381 64.5822 80.5604 64.6271 80.5729C64.672 80.5854 64.7199 80.5895 64.7708 80.5854C64.8348 80.5802 64.8905 80.5632 64.938 80.5345C64.9853 80.5043 65.0241 80.4594 65.0544 80.3998C65.086 80.3386 65.1068 80.26 65.1165 80.1641C65.1278 80.0679 65.1279 79.9522 65.1169 79.8169Z" fill="white"></path>
  <path d="M68.7535 79.6935L68.8908 80.2076L66.7637 80.7763L66.6473 80.3405L67.3597 79.0213C67.4241 78.8892 67.4729 78.7749 67.506 78.6784C67.5406 78.5816 67.5617 78.4966 67.5693 78.4235C67.5766 78.349 67.5727 78.2836 67.5577 78.2272C67.5332 78.1355 67.4977 78.0619 67.4511 78.0063C67.406 77.9504 67.3514 77.9129 67.2874 77.8937C67.2234 77.8745 67.1519 77.8755 67.0729 77.8966C66.9884 77.9192 66.9216 77.9605 66.8727 78.0204C66.8237 78.0804 66.7934 78.1534 66.7817 78.2397C66.7696 78.3245 66.7766 78.4156 66.8026 78.5129L66.1386 78.6904C66.0885 78.5028 66.0881 78.3201 66.1372 78.1423C66.186 77.963 66.2792 77.8059 66.4168 77.6708C66.5541 77.5344 66.7313 77.4372 66.9483 77.3792C67.1711 77.3196 67.3673 77.3049 67.5369 77.3351C67.7066 77.3653 67.8477 77.4356 67.9603 77.5461C68.0728 77.6565 68.1538 77.8041 68.2031 77.9889C68.231 78.0932 68.241 78.1986 68.2332 78.305C68.2267 78.411 68.2053 78.5202 68.1689 78.6327C68.1325 78.7452 68.084 78.8632 68.0233 78.9867C67.9623 79.1087 67.8915 79.2395 67.8109 79.3789L67.487 80.0321L68.7535 79.6935Z" fill="white"></path>
  <path d="M69.7761 77.8444L70.1004 77.718C70.1928 77.682 70.2626 77.636 70.3097 77.58C70.3582 77.5235 70.385 77.4598 70.3903 77.3888C70.3969 77.3173 70.3846 77.2414 70.3533 77.1611C70.3263 77.0918 70.2886 77.0352 70.2402 76.9914C70.1918 76.9476 70.1337 76.9209 70.0657 76.9113C69.9986 76.8999 69.9216 76.9111 69.8346 76.945C69.772 76.9694 69.7172 77.0057 69.6702 77.0538C69.624 77.1 69.5925 77.1538 69.5757 77.2152C69.5584 77.2752 69.5624 77.3379 69.5878 77.4032L68.9495 77.652C68.8849 77.4861 68.8739 77.3251 68.9165 77.169C68.9604 77.0125 69.0444 76.8724 69.1685 76.7488C69.2935 76.6233 69.445 76.5258 69.6231 76.4564C69.8284 76.3764 70.0213 76.3388 70.2017 76.3436C70.3829 76.3466 70.541 76.3946 70.6759 76.4878C70.8117 76.579 70.9156 76.7171 70.9876 76.9021C71.0252 76.9986 71.0384 77.1008 71.0272 77.2086C71.0167 77.3145 70.9829 77.4186 70.9256 77.5208C70.8692 77.6212 70.7911 77.7143 70.6914 77.8001C70.5926 77.8841 70.4732 77.9534 70.3331 78.008L69.9049 78.175L69.7761 77.8444ZM69.9629 78.3239L69.8365 77.9995L70.2648 77.8325C70.4198 77.7721 70.5653 77.7357 70.7015 77.7234C70.8376 77.711 70.9615 77.7215 71.0731 77.7548C71.1847 77.788 71.2815 77.8435 71.3634 77.9212C71.4454 77.999 71.5091 78.0963 71.5547 78.2133C71.6087 78.352 71.6298 78.4864 71.6178 78.6164C71.6058 78.7464 71.5654 78.8679 71.4966 78.9809C71.4279 79.0939 71.3353 79.1958 71.2187 79.2867C71.1017 79.3762 70.9664 79.4509 70.8127 79.5108C70.689 79.559 70.5594 79.59 70.4238 79.6037C70.2882 79.6174 70.1572 79.6089 70.031 79.5782C69.9042 79.5462 69.7899 79.4881 69.6883 79.404C69.5861 79.3185 69.5058 79.2009 69.4475 79.0513L70.0858 78.8024C70.1129 78.8718 70.1549 78.9275 70.212 78.9694C70.2699 79.0095 70.3365 79.0337 70.4117 79.042C70.4878 79.0484 70.5632 79.037 70.638 79.0078C70.7277 78.9728 70.7975 78.9268 70.8473 78.8698C70.898 78.8109 70.9282 78.7458 70.9381 78.6746C70.9493 78.6029 70.9401 78.5289 70.9104 78.4527C70.8701 78.3494 70.8194 78.2735 70.7584 78.2253C70.6981 78.1751 70.6284 78.149 70.5493 78.147C70.4697 78.1435 70.3823 78.1604 70.2871 78.1975L69.9629 78.3239Z" fill="white"></path>
</svg>
