<?xml version="1.0" encoding="UTF-8"?>
<svg xmlns="http://www.w3.org/2000/svg" width="127" height="100" viewBox="0 0 127 100" fill="none">
  <path d="M63.4407 91.6301C86.4068 91.6301 105.024 73.0604 105.024 50.1534C105.024 27.2465 86.4068 8.67676 63.4407 8.67676C40.4746 8.67676 21.8569 27.2465 21.8569 50.1534C21.8569 73.0604 40.4746 91.6301 63.4407 91.6301Z" fill="white"></path>
  <path d="M63.4408 9.59126C72.8405 9.59742 81.9473 12.8593 89.2098 18.8211C96.4722 24.783 101.441 33.076 103.27 42.2873C105.098 51.4986 103.673 61.0583 99.238 69.3378C94.8026 77.6173 87.6311 84.1045 78.9451 87.6939C70.2591 91.2834 60.5961 91.7533 51.6023 89.0234C42.6085 86.2935 34.8404 80.5327 29.6212 72.7226C24.4021 64.9125 22.0549 55.5361 22.9795 46.191C23.9041 36.8458 28.0433 28.11 34.6919 21.4718C38.4617 17.6904 42.944 14.6928 47.88 12.6521C52.8161 10.6113 58.1079 9.56791 63.4499 9.58211M63.4499 7.75293C39.9772 7.75293 20.9507 26.7307 20.9507 50.129C20.9507 73.5272 39.9681 92.5568 63.4408 92.5568C86.9135 92.5568 105.94 73.5791 105.94 50.1808C105.94 26.7825 86.9135 7.76208 63.4408 7.76208L63.4499 7.75293Z" fill="#B6B6B6"></path>
  <path d="M63.4019 89.4656C85.1443 89.4656 102.767 71.8841 102.767 50.1961C102.767 28.5081 85.1443 10.9297 63.4019 10.9297C41.6594 10.9297 24.0366 28.5112 24.0366 50.1961C24.0366 71.881 41.6625 89.4656 63.4019 89.4656Z" stroke="#B6B6B6" stroke-width="2" stroke-miterlimit="10" stroke-dasharray="3 3"></path>
  <path d="M66.5378 50.5527H61.7163L62.5402 48.8028L63.2512 47.1626H65.0059L65.7169 48.8028L66.5378 50.5527Z" fill="#A1A1A1"></path>
  <path d="M69.6107 50.553H58.6556C58.3658 50.5538 58.0881 50.669 57.8829 50.8734C57.6777 51.0778 57.5617 51.3549 57.5601 51.6444V55.1961H70.6543V51.6444C70.6642 51.5027 70.6443 51.3605 70.5959 51.2269C70.5476 51.0933 70.4719 50.9713 70.3737 50.8686C70.2755 50.7658 70.1569 50.6847 70.0255 50.6304C69.8941 50.5761 69.7529 50.5497 69.6107 50.553Z" fill="#B6B6B6"></path>
  <mask id="mask0_584_27819" style="mask-type:luminance" maskUnits="userSpaceOnUse" x="62" y="47" width="4" height="3">
    <path d="M65.7211 48.803C65.2936 49.0288 64.8546 49.2323 64.4059 49.4127L64.1313 49.4676L63.8597 49.3578C63.4107 49.178 62.9717 48.9745 62.5444 48.7481L63.2555 47.1079H64.9521L65.7211 48.803Z" fill="white"></path>
  </mask>
  <g mask="url(#mask0_584_27819)">
    <path d="M67.2493 45.5835H61.021V50.9826H67.2493V45.5835Z" fill="#A1A1A1"></path>
  </g>
  <path d="M72.6756 28.9653H55.5868C55.4127 28.9677 55.2464 29.0378 55.1233 29.1608C55.0002 29.2838 54.93 29.4499 54.9276 29.6238C54.9235 29.7139 54.9374 29.8038 54.9684 29.8885C54.9995 29.9731 55.047 30.0507 55.1084 30.1168C55.1697 30.1829 55.2436 30.2362 55.3257 30.2735C55.4078 30.3108 55.4966 30.3314 55.5868 30.3342H72.6756C72.8491 30.331 73.0146 30.2605 73.1371 30.1376C73.2595 30.0147 73.3293 29.8491 73.3316 29.6757C73.3357 29.5859 73.322 29.4962 73.2911 29.4117C73.2603 29.3273 73.213 29.2498 73.152 29.1837C73.091 29.1177 73.0174 29.0644 72.9357 29.0269C72.8539 28.9894 72.7655 28.9685 72.6756 28.9653ZM50.9819 31.9713V34.212C50.9909 36.8135 51.771 39.3539 53.2238 41.5128C54.6766 43.6717 56.737 45.3524 59.1449 46.3426C62.3381 47.6555 65.9211 47.6555 69.1144 46.3426C71.5223 45.3524 73.5827 43.6717 75.0355 41.5128C76.4883 39.3539 77.2684 36.8135 77.2773 34.212V31.9713H50.9819ZM75.0894 34.212C75.09 36.7497 74.1978 39.2068 72.5688 41.1538C71.5393 42.3939 70.2504 43.3936 68.7926 44.0825C67.3349 44.7714 65.7438 45.1329 64.1312 45.1414C62.517 45.1449 60.9223 44.7888 59.4632 44.099C58.0041 43.4092 56.7174 42.403 55.6966 41.1538C54.0808 39.1992 53.1904 36.747 53.176 34.212V34.1572H75.0344V34.212H75.0894Z" fill="#B7B7B7"></path>
  <path d="M72.6801 30.3345V36.2336C72.6757 38.9213 71.8571 41.5447 70.332 43.7588C68.807 45.9729 66.6468 47.6741 64.1357 48.6385C61.6224 47.6619 59.4624 45.9507 57.9381 43.7283C56.4137 41.5059 55.5958 38.8758 55.5913 36.1818V30.3345H72.6801Z" fill="#B6B6B6"></path>
  <mask id="mask1_584_27819" style="mask-type:luminance" maskUnits="userSpaceOnUse" x="55" y="30" width="18" height="2">
    <path d="M72.6204 30.3345H55.5835V31.1546H72.6204V30.3345Z" fill="white"></path>
  </mask>
  <g mask="url(#mask1_584_27819)">
    <path d="M74.1485 28.8101H54.0601V32.6788H74.1485V28.8101Z" fill="#B6B6B6"></path>
  </g>
  <path d="M63.381 36.5537C63.381 36.5537 62.8897 36.5049 62.8897 36.9378V38.8615H66.1274V39.4377C66.1294 39.4776 66.1227 39.5174 66.1078 39.5545C66.093 39.5915 66.0703 39.6249 66.0413 39.6524C66.0123 39.6799 65.9778 39.7008 65.94 39.7138C65.9022 39.7267 65.862 39.7313 65.8223 39.7273H62.8928V42.2272H66.4326C66.4326 42.2272 68.5687 41.901 68.59 39.7273V36.5537H63.381ZM68.3978 33.438H62.0993C59.8198 33.9776 59.771 35.8769 59.771 35.8769V42.2424H62.2123V36.45C62.2112 36.3124 62.2567 36.1785 62.3415 36.07C62.4262 35.9615 62.5452 35.8848 62.6791 35.8525H68.4008L68.3978 33.438Z" fill="white"></path>
  <path opacity="0.5" d="M43.5866 80.4356L43.5531 80.4142C43.5531 80.4142 43.5653 80.4234 43.5866 80.4356ZM38.8964 76.6278L38.872 76.6035C38.872 76.6035 38.8811 76.6157 38.8964 76.6278ZM28.9116 51.2663V51.248C28.9116 51.248 28.9116 51.2571 28.9116 51.2693V51.2663ZM29.3968 46.0104C29.3968 45.9891 29.3968 45.9769 29.3968 45.9799C29.3968 45.983 29.3938 45.9952 29.3968 46.0135V46.0104Z" fill="#A1A1A1"></path>
  <path d="M62.6603 81.8228C59.6611 81.9574 56.6601 81.599 53.7772 80.7619C54.8086 79.4266 53.1058 78.0974 51.4732 76.8169L48.0524 74.2652C48.0127 74.2957 50.0665 76.3383 49.8834 78.1187C49.8168 78.5236 49.8282 78.9375 49.9169 79.3382C49.45 79.1217 49.0015 78.8992 48.5376 78.6614C49.7369 77.512 48.3789 75.8658 47.0729 74.3049C45.6936 72.7287 44.302 71.1831 44.299 71.18C44.2959 71.177 45.8248 73.5823 45.3182 75.3353C45.1819 75.727 45.1178 76.1402 45.129 76.5548C44.7232 76.2499 44.3264 75.9633 43.9419 75.6402C45.2907 74.689 44.3081 72.811 43.3316 71.0489C42.3063 69.2594 41.2474 67.5217 41.2474 67.5186C41.2474 67.5156 42.2788 70.1313 41.4671 71.805C41.2647 72.1747 41.1294 72.5772 41.0674 72.994C40.7317 72.6362 40.4062 72.2735 40.0909 71.9056C41.5343 71.1648 40.9728 69.1618 40.3594 67.2534C39.6789 65.3175 38.9465 63.5036 38.9526 63.4761C38.9587 63.4487 39.4989 66.1955 38.4125 67.7442C38.1486 68.0809 37.9424 68.459 37.8022 68.8631C37.5418 68.4566 37.2916 68.0501 37.0515 67.6436C38.5773 67.107 38.3911 65.0462 38.1196 63.095C37.7869 61.1012 37.378 59.2233 37.378 59.2019C37.378 59.1806 37.4665 61.9457 36.1391 63.3054C35.8285 63.6018 35.5669 63.9454 35.364 64.3236C35.245 64.0462 35.126 63.7688 35.0131 63.4883C34.9276 63.2719 34.8422 63.0554 34.7628 62.8359C36.31 62.5493 36.4473 60.5952 36.49 58.7416C36.49 56.8484 36.3802 55.0588 36.371 55.0405C36.3618 55.0223 36.0658 57.5801 34.6041 58.6989C34.2639 58.936 33.9641 59.2263 33.7161 59.5586C33.5636 58.9733 33.411 58.3879 33.3072 57.7965C34.833 57.7538 35.2572 55.9673 35.5593 54.2327C35.8614 52.498 35.9712 50.7907 35.956 50.7907C35.9407 50.7907 35.3457 53.0986 33.8199 53.9278C33.458 54.1089 33.1282 54.3478 32.8434 54.6351C32.7701 53.9684 32.7162 53.3008 32.6817 52.6321C34.1525 52.8089 34.7781 51.1993 35.2816 49.6353C35.5951 48.6025 35.8558 47.5545 36.0628 46.4952C36.0445 46.4952 35.2053 48.5622 33.6704 49.1292C33.3012 49.2501 32.9547 49.4314 32.645 49.6658C32.6633 49.0713 32.6939 48.4768 32.7366 47.8884C32.7366 47.7482 32.761 47.608 32.7701 47.4708C34.0976 47.8397 34.9246 46.4099 35.5593 45.0319C36.194 43.6539 36.6426 42.1936 36.6426 42.1906C36.6426 42.1875 35.6142 44.0197 34.1128 44.3459C33.7596 44.4065 33.4184 44.5238 33.1028 44.6935C33.2248 43.9161 33.3744 43.1417 33.5452 42.3704C34.7109 42.843 35.6325 41.6387 36.3588 40.4345C36.8434 39.5997 37.2835 38.7398 37.6771 37.8584C37.6771 37.8584 36.5236 39.4895 35.1046 39.5931C34.7992 39.6055 34.4976 39.6652 34.2105 39.7699C34.4424 38.9692 34.6987 38.1684 34.9795 37.3676C35.9682 37.8706 36.9203 36.8768 37.7015 35.8433C38.2484 35.0902 38.7517 34.3064 39.209 33.4958C39.209 33.4958 37.9639 34.9592 36.6517 34.8738C36.4092 34.8533 36.1651 34.8645 35.9255 34.9074C36.2489 34.131 36.5938 33.3526 36.96 32.5721L37.024 32.4197C37.8449 32.9257 38.794 32.1148 39.6087 31.2002C40.2104 30.5064 40.7757 29.7819 41.3023 29.0296C41.3023 29.0296 39.9597 30.3649 38.7848 30.1302C38.5443 30.0716 38.2959 30.0531 38.0494 30.0753C38.8653 28.3412 39.7823 26.6565 40.7958 25.0298C39.6514 26.7065 38.6353 28.3528 37.7442 29.9838C37.6388 29.6889 37.4896 29.4114 37.3017 29.1607C36.9264 28.6546 36.9172 27.8376 37.0515 27.1394C37.1359 26.705 37.2637 26.2802 37.433 25.8712C36.8268 26.8473 36.3421 27.8936 35.9896 28.9869C35.5227 30.5295 35.5379 31.9898 36.5999 32.1727C36.1757 33.0264 35.7882 33.883 35.4281 34.7336C35.2801 34.4959 35.1027 34.2777 34.9001 34.0842C34.4149 33.6239 34.2898 32.8069 34.3112 32.0965C34.3307 31.6536 34.3982 31.214 34.5126 30.7856C34.0216 31.8339 33.6658 32.9403 33.4537 34.0781C33.1913 35.639 33.3866 37.0963 34.4699 37.2152C34.1952 37.9997 33.944 38.7842 33.7161 39.5687C33.5342 39.3704 33.3294 39.1943 33.1058 39.0444C31.9279 38.2913 32.1598 35.9439 32.2026 35.7671C31.8318 36.8909 31.6092 38.0582 31.5404 39.2395C31.4763 40.8492 31.8669 42.3155 32.999 42.3277C32.999 42.3277 32.999 42.3277 32.999 42.346C32.8464 43.0635 32.7122 43.786 32.5962 44.5136C32.3786 44.3437 32.1421 44.1994 31.8913 44.0838C30.5517 43.474 30.4815 41.0351 30.5028 40.8431C30.2605 42.0526 30.1815 43.2892 30.2679 44.5197C30.4143 46.2026 31.0247 47.6872 32.2239 47.5287C32.169 48.2055 32.1303 48.8823 32.108 49.5591C31.8519 49.4037 31.5784 49.2789 31.2932 49.1872C29.8376 48.739 29.4165 46.3336 29.3951 46.0318C29.3068 47.3187 29.3909 48.6116 29.6453 49.8762C30.0054 51.6139 30.9209 53.1443 32.1446 52.7602C32.1771 53.3821 32.228 54.004 32.2972 54.6259C31.9948 54.4825 31.6746 54.3799 31.3451 54.3211C29.7308 54.0558 28.9526 51.5072 28.9038 51.2724C28.9882 52.6519 29.2623 54.0132 29.7186 55.318C30.3594 57.1258 31.5678 58.641 32.8159 57.9764C32.9349 58.5434 33.0662 59.1105 33.2157 59.6745C32.8576 59.5572 32.4846 59.4915 32.108 59.4794C30.3442 59.4306 29.1418 56.7539 29.1022 56.5893C29.3926 58.0419 29.8878 59.4461 30.573 60.7598C31.5465 62.6103 33.0875 64.0615 34.302 63.0767C34.4912 63.5767 34.6947 64.0716 34.9124 64.5614C34.5046 64.48 34.087 64.4605 33.6734 64.5035C31.7967 64.7108 30.0878 61.9853 30.0695 61.8847C30.5994 63.3818 31.348 64.7923 32.2911 66.0705C33.6337 67.8997 35.5288 69.2136 36.6273 67.9302C36.8715 68.3367 37.1258 68.7431 37.3902 69.1496C36.9729 69.1258 36.5544 69.1638 36.1482 69.2624C34.2776 69.738 32.0866 67.168 32.1232 67.1284C32.8881 68.561 33.8713 69.8662 35.0375 70.9971C36.6914 72.6281 38.8184 73.6586 39.7033 72.2166C40.0085 72.5885 40.3533 72.9574 40.6951 73.3171C40.2762 73.3533 39.8649 73.4509 39.4745 73.6067C37.7442 74.3445 35.303 72.3751 35.071 72.1312C36.0924 73.4353 37.3018 74.5809 38.6597 75.5304C40.6524 76.9084 42.9563 77.5425 43.6032 76.0273C43.9959 76.3485 44.4027 76.6533 44.8239 76.9419C44.3959 77.0414 43.9847 77.2026 43.6032 77.4206C42.0042 78.3717 39.1784 76.8261 38.8916 76.6157C40.1599 77.7442 41.5882 78.679 43.1302 79.39C45.4037 80.4235 47.8724 80.6491 48.2538 79.0851C48.7116 79.329 49.1693 79.5577 49.6575 79.7772C49.2505 79.9439 48.8693 80.1677 48.5254 80.4418C47.0759 81.6338 43.9481 80.6003 43.5819 80.4418C45.087 81.3451 46.7195 82.0172 48.4247 82.4356C50.9239 83.0453 53.4873 82.8197 53.6124 81.2527C56.5336 82.1079 59.577 82.4706 62.6176 82.3258L62.6603 81.8228Z" fill="#B6B6B6"></path>
  <path d="M75.2768 74.5698C75.354 74.4672 75.3938 74.3414 75.3897 74.2131C75.3897 74.1887 75.3897 74.143 75.3897 74.0729C75.3897 74.0028 75.3897 73.954 75.3897 73.9296C75.3937 73.8008 75.3527 73.6747 75.2738 73.5729C75.2359 73.5302 75.1886 73.497 75.1357 73.4758C75.0827 73.4546 75.0255 73.4461 74.9686 73.451C74.9118 73.4466 74.8547 73.4553 74.8018 73.4765C74.7489 73.4976 74.7016 73.5306 74.6635 73.5729C74.5856 73.6752 74.5457 73.8012 74.5505 73.9296V74.0729V74.2131C74.5461 74.3419 74.5871 74.4682 74.6665 74.5698C74.7052 74.6112 74.7527 74.6434 74.8055 74.6639C74.8584 74.6845 74.9151 74.693 74.9717 74.6887C75.0282 74.6932 75.0851 74.6849 75.1379 74.6643C75.1908 74.6437 75.2383 74.6114 75.2768 74.5698ZM74.3125 74.8411C74.232 74.7613 74.1682 74.6663 74.1247 74.5616C74.0813 74.457 74.059 74.3447 74.0592 74.2314V73.9113C74.0591 73.7977 74.0816 73.6852 74.1257 73.5805C74.1697 73.4758 74.2343 73.381 74.3156 73.3016C74.5064 73.1593 74.7381 73.0824 74.9762 73.0824C75.2143 73.0824 75.4461 73.1593 75.6369 73.3016C75.7182 73.381 75.7828 73.4758 75.8268 73.5805C75.8708 73.6852 75.8934 73.7977 75.8932 73.9113C75.8932 73.9387 75.8932 73.9936 75.8932 74.0729C75.8932 74.1521 75.8932 74.204 75.8932 74.2314C75.8942 74.3448 75.8722 74.4573 75.8287 74.562C75.7852 74.6668 75.721 74.7617 75.64 74.8411C75.448 74.9834 75.2153 75.0603 74.9762 75.0603C74.7372 75.0603 74.5045 74.9834 74.3125 74.8411ZM72.2191 74.8411C72.138 74.7618 72.0737 74.6669 72.0302 74.5621C71.9866 74.4573 71.9648 74.3448 71.9659 74.2314V74.0851V73.9387C71.9653 73.8254 71.9874 73.713 72.0309 73.6083C72.0744 73.5036 72.1384 73.4086 72.2191 73.329C72.3971 73.1748 72.6277 73.0951 72.863 73.1065C73.0314 73.1015 73.1986 73.136 73.3513 73.2071C73.4726 73.2632 73.5776 73.3492 73.6564 73.4571C73.7155 73.5407 73.7513 73.6386 73.7602 73.7406C73.7614 73.7524 73.7598 73.7644 73.7556 73.7755C73.7513 73.7866 73.7446 73.7966 73.7358 73.8046C73.7181 73.8202 73.6953 73.8289 73.6717 73.829H73.3482C73.3283 73.8351 73.3071 73.8351 73.2872 73.829C73.271 73.8113 73.2585 73.7906 73.2506 73.768C73.2235 73.6884 73.1736 73.6184 73.1072 73.5668C73.0391 73.5231 72.9591 73.5018 72.8783 73.5058C72.8219 73.4995 72.7647 73.5067 72.7117 73.5269C72.6586 73.547 72.6111 73.5795 72.5731 73.6217C72.4951 73.725 72.4552 73.8521 72.4602 73.9814V74.2375C72.4765 74.5546 72.6108 74.7131 72.863 74.7131C72.9447 74.716 73.0253 74.6948 73.0949 74.6521C73.1609 74.5994 73.2098 74.5283 73.2353 74.4479C73.2428 74.4259 73.2553 74.4061 73.2719 74.3899C73.2892 74.3762 73.311 74.3697 73.333 74.3716H73.6564C73.68 74.3718 73.7028 74.3804 73.7205 74.396C73.7293 74.4041 73.7361 74.414 73.7403 74.4251C73.7446 74.4363 73.7461 74.4482 73.7449 74.4601C73.7357 74.5587 73.701 74.6532 73.6442 74.7344C73.567 74.8453 73.4617 74.9337 73.3391 74.9905C73.1854 75.0656 73.0157 75.1022 72.8447 75.0972C72.6141 75.0948 72.3928 75.0055 72.2253 74.8472L72.2191 74.8411ZM71.0992 75.0027C71.0913 74.9947 71.0851 74.9851 71.0809 74.9747C71.0767 74.9642 71.0746 74.953 71.0748 74.9417V74.5698C71.0739 74.558 71.0756 74.5461 71.0797 74.5349C71.0838 74.5238 71.0903 74.5137 71.0987 74.5053C71.1071 74.4969 71.1172 74.4904 71.1284 74.4863C71.1395 74.4821 71.1514 74.4805 71.1633 74.4814H71.5325C71.5438 74.4812 71.555 74.4833 71.5655 74.4875C71.576 74.4917 71.5855 74.4979 71.5936 74.5058C71.6023 74.514 71.6092 74.524 71.6139 74.535C71.6186 74.546 71.621 74.5578 71.621 74.5698V74.9387C71.6212 74.95 71.6191 74.9612 71.6149 74.9716C71.6107 74.9821 71.6045 74.9916 71.5966 74.9997C71.5887 75.0088 71.5789 75.016 71.5678 75.0208C71.5567 75.0255 71.5446 75.0277 71.5325 75.0271H71.1633C71.1505 75.0296 71.1373 75.0293 71.1246 75.0261C71.112 75.023 71.1002 75.0171 71.0901 75.0088L71.0992 75.0027ZM69.4056 74.9814C69.2992 74.9386 69.2042 74.8718 69.1279 74.7863C69.0781 74.7337 69.047 74.6662 69.0394 74.5942C69.0385 74.5836 69.04 74.5729 69.0437 74.5629C69.0474 74.5529 69.0532 74.5438 69.0608 74.5363C69.0765 74.5213 69.0971 74.5126 69.1188 74.5119H69.4239C69.4343 74.5126 69.4445 74.5157 69.4535 74.521C69.4625 74.5263 69.4701 74.5336 69.4758 74.5424L69.5582 74.6125C69.6501 74.6901 69.7674 74.7314 69.8877 74.7283C69.9706 74.7319 70.0529 74.7129 70.1258 74.6735C70.1543 74.6566 70.1779 74.6325 70.1939 74.6036C70.21 74.5746 70.2181 74.5419 70.2173 74.5088C70.2188 74.4652 70.2035 74.4227 70.1746 74.3899C70.1319 74.3512 70.0807 74.323 70.0251 74.3076C69.9181 74.2716 69.8091 74.2421 69.6985 74.2192C69.5306 74.1947 69.3724 74.1251 69.2408 74.018C69.191 73.9733 69.1517 73.9182 69.1259 73.8565C69.1 73.7948 69.0882 73.7281 69.0913 73.6613C69.0924 73.5621 69.1232 73.4655 69.1798 73.3839C69.2468 73.2916 69.3375 73.2189 69.4422 73.1735C69.5727 73.1155 69.7145 73.0874 69.8572 73.0912C70.0034 73.0871 70.1488 73.1131 70.2845 73.1674C70.3886 73.2098 70.4824 73.2743 70.5591 73.3564C70.6113 73.409 70.6436 73.4779 70.6506 73.5516C70.6511 73.5617 70.6494 73.5718 70.6457 73.5812C70.642 73.5907 70.6364 73.5993 70.6293 73.6064C70.6219 73.6144 70.6129 73.6207 70.6029 73.6249C70.5929 73.6291 70.5821 73.6311 70.5713 73.6308H70.2967C70.285 73.6317 70.2733 73.6296 70.2627 73.6248C70.252 73.62 70.2427 73.6127 70.2356 73.6034C70.2067 73.5818 70.1792 73.5584 70.1532 73.5333C70.1142 73.5021 70.0711 73.4765 70.0251 73.4571C69.972 73.4348 69.9147 73.4243 69.8572 73.4266C69.7833 73.42 69.7095 73.4406 69.6497 73.4845C69.6263 73.5029 69.6074 73.5266 69.5947 73.5536C69.582 73.5806 69.5758 73.6102 69.5765 73.64C69.5744 73.6794 69.5863 73.7182 69.6101 73.7497C69.6502 73.7872 69.6981 73.8153 69.7504 73.832C69.8501 73.8651 69.9521 73.8906 70.0556 73.9082C70.495 73.9936 70.7147 74.1857 70.7147 74.4844C70.7155 74.5679 70.6952 74.6501 70.6557 74.7237C70.6162 74.7972 70.5589 74.8596 70.4889 74.9052C70.3011 75.0227 70.0815 75.0791 69.8603 75.0667C69.7018 75.073 69.5438 75.046 69.3964 74.9875L69.4056 74.9814ZM65.8627 75.0027C65.8548 74.9947 65.8486 74.9851 65.8444 74.9747C65.8402 74.9642 65.8382 74.953 65.8383 74.9417V73.2132C65.8384 73.1896 65.8471 73.1668 65.8627 73.1491C65.8807 73.1344 65.9035 73.1268 65.9268 73.1278H66.2137C66.2252 73.1268 66.2369 73.1282 66.2479 73.1319C66.2589 73.1355 66.2691 73.1414 66.2777 73.1491C66.286 73.1575 66.2925 73.1676 66.2967 73.1786C66.3009 73.1896 66.3027 73.2014 66.3021 73.2132V73.3503C66.3648 73.2702 66.4456 73.206 66.5379 73.1631C66.6302 73.1201 66.7314 73.0997 66.8331 73.1034C66.9493 73.0936 67.0658 73.1193 67.1671 73.177C67.2685 73.2347 67.3499 73.3217 67.4007 73.4266C67.4621 73.3278 67.5484 73.2469 67.6509 73.1918C67.757 73.1321 67.8771 73.1015 67.9988 73.1034C68.0906 73.1005 68.1818 73.1172 68.2666 73.1525C68.3513 73.1877 68.4275 73.2406 68.4901 73.3077C68.626 73.4749 68.6936 73.6872 68.6793 73.9022V74.9539C68.6795 74.9652 68.6774 74.9764 68.6732 74.9869C68.669 74.9973 68.6628 75.0069 68.6549 75.0149C68.647 75.0241 68.6372 75.0313 68.626 75.036C68.6149 75.0408 68.6029 75.0429 68.5908 75.0423H68.2857C68.2737 75.0423 68.2618 75.0399 68.2508 75.0352C68.2398 75.0305 68.2299 75.0236 68.2216 75.0149C68.2137 75.0069 68.2075 74.9973 68.2033 74.9869C68.1991 74.9764 68.197 74.9652 68.1972 74.9539V73.9326C68.2076 73.8135 68.1727 73.6949 68.0995 73.6003C68.0673 73.5658 68.028 73.5386 67.9843 73.5207C67.9406 73.5028 67.8935 73.4946 67.8462 73.4967C67.8006 73.4963 67.7554 73.5053 67.7134 73.5231C67.6714 73.541 67.6335 73.5673 67.6021 73.6003C67.527 73.694 67.4909 73.8131 67.5014 73.9326V74.9539C67.5016 74.9652 67.4995 74.9764 67.4953 74.9869C67.4911 74.9973 67.4849 75.0069 67.477 75.0149C67.4691 75.0241 67.4592 75.0313 67.4481 75.036C67.437 75.0408 67.425 75.0429 67.4129 75.0423H67.1078C67.0848 75.0409 67.0631 75.0311 67.0468 75.0148C67.0305 74.9986 67.0207 74.9769 67.0193 74.9539V73.9326C67.0306 73.8135 66.9956 73.6945 66.9216 73.6003C66.8888 73.5666 66.8494 73.5399 66.8058 73.5221C66.7622 73.5042 66.7154 73.4956 66.6683 73.4967C66.6227 73.4965 66.5776 73.5056 66.5356 73.5234C66.4936 73.5412 66.4557 73.5674 66.4242 73.6003C66.3491 73.694 66.313 73.8131 66.3235 73.9326V74.9539C66.3243 74.965 66.3227 74.9761 66.3191 74.9866C66.3154 74.9971 66.3096 75.0067 66.3021 75.0149C66.2939 75.0236 66.2839 75.0305 66.2729 75.0352C66.2619 75.0399 66.2501 75.0423 66.2381 75.0423H65.9329C65.9179 75.044 65.9028 75.0417 65.8889 75.0359C65.875 75.03 65.8628 75.0207 65.8536 75.0088L65.8627 75.0027ZM64.3369 75.0027C64.329 74.9947 64.3228 74.9851 64.3186 74.9747C64.3144 74.9642 64.3124 74.953 64.3125 74.9417V73.2193C64.3122 73.1947 64.3209 73.1708 64.3369 73.1522C64.3454 73.1439 64.3554 73.1375 64.3664 73.1333C64.3775 73.1291 64.3892 73.1272 64.401 73.1278H64.7062C64.7185 73.127 64.7308 73.1287 64.7423 73.1329C64.7539 73.1371 64.7644 73.1437 64.7733 73.1522C64.7894 73.1708 64.7981 73.1947 64.7977 73.2193V73.3686C64.8588 73.2879 64.939 73.2236 65.0312 73.1815C65.1234 73.1395 65.2246 73.121 65.3256 73.1278H65.4782C65.4898 73.1268 65.5014 73.1282 65.5125 73.1319C65.5235 73.1355 65.5336 73.1414 65.5423 73.1491C65.5506 73.1575 65.557 73.1676 65.5612 73.1786C65.5654 73.1896 65.5673 73.2014 65.5667 73.2132V73.4814C65.5677 73.4928 65.566 73.5042 65.5617 73.5148C65.5575 73.5254 65.5509 73.5349 65.5423 73.5424C65.5344 73.5516 65.5246 73.5588 65.5134 73.5635C65.5023 73.5683 65.4903 73.5705 65.4782 73.5699H65.1914C65.1419 73.5671 65.0923 73.5743 65.0456 73.591C64.999 73.6078 64.9562 73.6338 64.9198 73.6674C64.8853 73.7033 64.8585 73.7459 64.8412 73.7926C64.8239 73.8393 64.8163 73.889 64.8191 73.9387V74.9417C64.8201 74.9531 64.8183 74.9645 64.8141 74.9751C64.8099 74.9857 64.8032 74.9951 64.7947 75.0027C64.787 75.0113 64.7776 75.0182 64.7671 75.0229C64.7566 75.0276 64.7452 75.0301 64.7336 75.0301H64.3827C64.3594 75.0318 64.3363 75.0241 64.3186 75.0088L64.3369 75.0027ZM62.2863 75.0027C62.2784 74.9947 62.2722 74.9851 62.268 74.9747C62.2638 74.9642 62.2617 74.953 62.2619 74.9417V73.518H61.9567C61.9449 73.5189 61.9329 73.5173 61.9218 73.5132C61.9106 73.509 61.9005 73.5026 61.8921 73.4942C61.8837 73.4858 61.8772 73.4756 61.8731 73.4645C61.869 73.4534 61.8673 73.4415 61.8682 73.4296V73.2132C61.8685 73.1905 61.8772 73.1688 61.8926 73.1522C61.901 73.1439 61.9111 73.1375 61.9221 73.1333C61.9331 73.1291 61.9449 73.1272 61.9567 73.1278H62.2619V72.9815C62.2549 72.8906 62.2674 72.7993 62.2985 72.7137C62.3295 72.628 62.3784 72.5499 62.4419 72.4845C62.5951 72.3646 62.788 72.3069 62.982 72.323H63.7419C63.7535 72.322 63.7651 72.3234 63.7761 72.327C63.7871 72.3307 63.7973 72.3366 63.806 72.3443C63.8216 72.362 63.8303 72.3847 63.8304 72.4083V72.6248C63.8304 72.6367 63.8279 72.6486 63.8232 72.6596C63.8185 72.6706 63.8116 72.6805 63.8029 72.6888C63.7949 72.6967 63.7853 72.7029 63.7748 72.7071C63.7644 72.7113 63.7532 72.7133 63.7419 72.7132H63.0003C62.9637 72.7097 62.9268 72.7142 62.892 72.7263C62.8572 72.7384 62.8255 72.7579 62.7989 72.7833C62.7562 72.8471 62.7358 72.9232 62.741 72.9998V73.1278H63.7419C63.7535 73.1268 63.7651 73.1282 63.7761 73.1319C63.7871 73.1355 63.7973 73.1414 63.806 73.1491C63.8216 73.1668 63.8303 73.1896 63.8304 73.2132V74.9417C63.8305 74.953 63.8285 74.9642 63.8243 74.9747C63.8201 74.9851 63.8139 74.9947 63.806 75.0027C63.7981 75.0119 63.7882 75.0191 63.7771 75.0238C63.766 75.0286 63.7539 75.0307 63.7419 75.0301H63.4367C63.4137 75.0287 63.392 75.0189 63.3757 75.0027C63.3595 74.9864 63.3497 74.9647 63.3482 74.9417V73.518H62.7379V74.9417C62.7389 74.9531 62.7372 74.9645 62.7329 74.9751C62.7287 74.9857 62.722 74.9951 62.7135 75.0027C62.7056 75.0119 62.6957 75.0191 62.6846 75.0238C62.6735 75.0286 62.6615 75.0307 62.6494 75.0301H62.3443C62.3308 75.0328 62.3168 75.0322 62.3036 75.0285C62.2903 75.0248 62.2782 75.018 62.268 75.0088L62.2863 75.0027ZM60.9344 74.5424C61.0041 74.4465 61.0424 74.3315 61.0443 74.2131C61.0443 74.1826 61.0443 74.1369 61.0443 74.0729C61.0443 74.0089 61.0443 73.9601 61.0443 73.9296C61.0419 73.8182 61.0022 73.7108 60.9314 73.6247C60.8936 73.5817 60.8464 73.5478 60.7936 73.5256C60.7407 73.5034 60.6835 73.4935 60.6262 73.4967C60.3668 73.4967 60.2265 73.6583 60.2082 73.9814V74.2009C60.2265 74.5058 60.3668 74.6826 60.6262 74.6826C60.6851 74.6857 60.7439 74.6746 60.7975 74.6502C60.8512 74.6258 60.8982 74.5888 60.9344 74.5424ZM59.9183 74.8472C59.7763 74.6676 59.6999 74.445 59.7016 74.2162V73.9601C59.6995 73.7326 59.7748 73.5111 59.9152 73.3321C59.986 73.2517 60.0742 73.1885 60.173 73.1473C60.2719 73.1061 60.3789 73.088 60.4859 73.0943C60.5911 73.0898 60.696 73.1091 60.7927 73.1508C60.8894 73.1925 60.9754 73.2555 61.0443 73.3351V72.5211C61.0443 72.5091 61.0467 72.4973 61.0514 72.4863C61.0562 72.4753 61.0631 72.4654 61.0718 72.4571C61.08 72.4496 61.0896 72.4439 61.1001 72.4402C61.1106 72.4365 61.1217 72.435 61.1328 72.4358H61.4379C61.4495 72.4348 61.4612 72.4362 61.4722 72.4398C61.4832 72.4435 61.4934 72.4494 61.502 72.4571C61.5103 72.4655 61.5167 72.4755 61.5209 72.4866C61.5251 72.4976 61.527 72.5093 61.5264 72.5211V74.96C61.5274 74.9714 61.5257 74.9828 61.5215 74.9934C61.5172 75.004 61.5106 75.0134 61.502 75.021C61.4941 75.0301 61.4843 75.0374 61.4732 75.0421C61.4621 75.0469 61.45 75.049 61.4379 75.0484H61.1328C61.1098 75.047 61.0881 75.0372 61.0718 75.0209C61.0555 75.0047 61.0457 74.983 61.0443 74.96V74.8228C60.9726 74.9031 60.8851 74.9677 60.7873 75.0127C60.6896 75.0577 60.5835 75.0821 60.4759 75.0844C60.3683 75.0867 60.2613 75.0668 60.1617 75.026C60.0621 74.9852 59.9719 74.9244 59.8969 74.8472H59.9183ZM58.7495 74.5942C58.8267 74.4916 58.8665 74.3658 58.8624 74.2375C58.8624 74.2131 58.8624 74.1674 58.8624 74.0973C58.8624 74.0271 58.8624 73.9784 58.8624 73.954C58.866 73.8258 58.8262 73.7001 58.7495 73.5973C58.7115 73.5548 58.6642 73.5217 58.6113 73.5005C58.5583 73.4794 58.5012 73.4707 58.4444 73.4753C58.3876 73.4712 58.3306 73.48 58.2777 73.5012C58.2248 73.5223 58.1775 73.5552 58.1392 73.5973C58.0625 73.7001 58.0227 73.8258 58.0263 73.954V74.2375C58.0222 74.3658 58.062 74.4916 58.1392 74.5942C58.178 74.6354 58.2256 74.6675 58.2783 74.688C58.3311 74.7086 58.3878 74.7172 58.4444 74.7131C58.505 74.7171 58.5656 74.7062 58.621 74.6812C58.6764 74.6562 58.7247 74.6179 58.7617 74.5698L58.7495 74.5942ZM57.7852 74.8655C57.7047 74.7857 57.6409 74.6907 57.5974 74.586C57.5539 74.4813 57.5317 74.3691 57.5319 74.2558V73.9357C57.5317 73.8221 57.5543 73.7096 57.5984 73.6049C57.6424 73.5002 57.707 73.4053 57.7883 73.326C57.9737 73.1704 58.2118 73.0919 58.4535 73.1065C58.6933 73.0922 58.9294 73.1708 59.1126 73.326C59.194 73.4053 59.2585 73.5002 59.3026 73.6049C59.3466 73.7096 59.3692 73.8221 59.369 73.9357C59.369 73.9631 59.369 74.018 59.369 74.0973C59.369 74.1765 59.369 74.2284 59.369 74.2558C59.3692 74.3691 59.347 74.4813 59.3035 74.586C59.26 74.6907 59.1962 74.7857 59.1157 74.8655C58.9233 75.0081 58.69 75.085 58.4505 75.085C58.2109 75.085 57.9777 75.0081 57.7852 74.8655ZM56.5798 74.5942C56.6573 74.4919 56.6962 74.3656 56.6897 74.2375C56.6924 74.1908 56.6924 74.144 56.6897 74.0973C56.6924 74.0495 56.6924 74.0017 56.6897 73.954C56.6945 73.8256 56.6546 73.6995 56.5768 73.5973C56.539 73.5546 56.4917 73.5214 56.4387 73.5002C56.3857 73.479 56.3285 73.4705 56.2716 73.4753C56.2148 73.471 56.1578 73.4797 56.1049 73.5009C56.052 73.522 56.0046 73.555 55.9665 73.5973C55.8876 73.6991 55.8466 73.8252 55.8505 73.954V74.2375C55.846 74.3663 55.8871 74.4926 55.9665 74.5942C56.048 74.6739 56.1576 74.7185 56.2716 74.7185C56.3857 74.7185 56.4952 74.6739 56.5768 74.5942H56.5798ZM55.6155 74.8655C55.5345 74.7861 55.4703 74.6912 55.4268 74.5864C55.3833 74.4816 55.3613 74.3692 55.3623 74.2558V73.9357C55.3621 73.8221 55.3847 73.7096 55.4287 73.6049C55.4727 73.5002 55.5373 73.4053 55.6186 73.326C55.8094 73.1837 56.0412 73.1068 56.2793 73.1068C56.5174 73.1068 56.7491 73.1837 56.9399 73.326C57.0212 73.4053 57.0858 73.5002 57.1298 73.6049C57.1739 73.7096 57.1964 73.8221 57.1963 73.9357C57.1963 73.9631 57.1963 74.018 57.1963 74.0973C57.1963 74.1765 57.1963 74.2284 57.1963 74.2558C57.1965 74.3691 57.1742 74.4813 57.1308 74.586C57.0873 74.6907 57.0235 74.7857 56.943 74.8655C56.751 75.0078 56.5183 75.0847 56.2793 75.0847C56.0402 75.0847 55.8075 75.0078 55.6155 74.8655ZM54.3339 74.5119C54.4027 74.4188 54.442 74.3073 54.4468 74.1918C54.449 74.1522 54.449 74.1125 54.4468 74.0729C54.449 74.0343 54.449 73.9956 54.4468 73.957C54.442 73.8405 54.4027 73.728 54.3339 73.6339C54.2965 73.5901 54.2495 73.5555 54.1966 73.5328C54.1437 73.51 54.0862 73.4998 54.0287 73.5028C53.7632 73.5028 53.6259 73.6644 53.6107 73.9875V74.0729C53.6107 74.454 53.751 74.646 54.0318 74.646C54.0922 74.6492 54.1524 74.6375 54.2072 74.612C54.262 74.5865 54.3097 74.5479 54.3461 74.4997L54.3339 74.5119ZM53.513 75.7313C53.3967 75.6766 53.2976 75.5912 53.2262 75.4844C53.1781 75.4138 53.1497 75.3318 53.1438 75.2466C53.1432 75.2353 53.1451 75.224 53.1494 75.2135C53.1536 75.203 53.16 75.1935 53.1682 75.1856C53.1851 75.1711 53.2069 75.1635 53.2292 75.1643H53.5557C53.5762 75.1627 53.5966 75.1681 53.6137 75.1795C53.632 75.1955 53.6448 75.2168 53.6503 75.2405C53.6773 75.3035 53.7192 75.3589 53.7724 75.4021C53.8455 75.4527 53.934 75.4764 54.0226 75.4691C54.0816 75.4806 54.1425 75.4772 54.1999 75.4594C54.2573 75.4415 54.3093 75.4097 54.3514 75.3668C54.3934 75.3239 54.4242 75.2712 54.4408 75.2135C54.4575 75.1558 54.4595 75.0949 54.4468 75.0362V74.7863C54.2959 74.9359 54.0919 75.0199 53.8792 75.0199C53.6665 75.0199 53.4625 74.9359 53.3116 74.7863C53.1745 74.606 53.1024 74.3846 53.1072 74.1582V74.0576V73.9601C53.1049 73.7336 53.1779 73.5127 53.3147 73.3321C53.3848 73.251 53.4729 73.1873 53.572 73.146C53.671 73.1048 53.7782 73.087 53.8853 73.0943C54.0034 73.0914 54.1205 73.1165 54.2271 73.1674C54.3212 73.2133 54.4037 73.2801 54.4682 73.3625V73.2223C54.4677 73.2098 54.47 73.1974 54.4747 73.1858C54.4794 73.1743 54.4866 73.1638 54.4956 73.1552C54.504 73.147 54.5141 73.1405 54.5251 73.1363C54.5361 73.1321 54.5479 73.1303 54.5597 73.1308H54.8649C54.8766 73.1303 54.8884 73.1321 54.8995 73.1363C54.9105 73.1405 54.9205 73.147 54.9289 73.1552C54.945 73.1739 54.9537 73.1977 54.9534 73.2223V74.9844C54.9613 75.099 54.9453 75.214 54.9065 75.3221C54.8676 75.4302 54.8067 75.5291 54.7275 75.6124C54.6341 75.6932 54.5256 75.7547 54.4083 75.7934C54.291 75.8322 54.1672 75.8473 54.044 75.838C53.8649 75.8454 53.6868 75.8088 53.5252 75.7313H53.513Z" fill="#878787"></path>
  <path d="M112.724 58.1685H101.614V75.125H112.724L109.154 67.1619L112.724 58.1685ZM13.9663 58.1685H25.0771V75.125H13.9663L17.5336 67.1619L13.9663 58.1685Z" fill="#A3A1A1"></path>
  <path d="M64.3335 81.9638C67.3569 82.1001 70.3822 81.7417 73.2899 80.9028C72.2493 79.5614 73.9673 78.2261 75.6121 76.9396C77.3362 75.6592 79.0634 74.3818 79.0634 74.3757C79.0634 74.3696 77.0311 76.4579 77.2325 78.2444C77.2991 78.6493 77.2877 79.0632 77.1989 79.4639C77.6689 79.2505 78.1317 79.0249 78.5874 78.7871C77.3668 77.6347 78.7491 75.9854 80.0643 74.4184C81.4559 72.8392 82.8596 71.2874 82.8596 71.2813C82.8596 71.2752 81.3155 73.6928 81.8343 75.4519C81.9715 75.8434 82.0356 76.2567 82.0235 76.6713C82.4324 76.3665 82.8321 76.0799 83.2197 75.7567C81.8587 74.7995 82.8535 72.9154 83.83 71.1502C84.8645 69.3516 85.9325 67.6108 85.9325 67.6077C85.9325 67.6047 84.8919 70.2296 85.7098 71.9094C85.913 72.2789 86.0493 72.6814 86.1126 73.0983C86.4513 72.7416 86.7809 72.3789 87.0952 72.01C85.6426 71.2631 86.2102 69.2479 86.8266 67.3395C87.5132 65.4005 88.2517 63.5805 88.2426 63.553C88.2822 63.553 87.6933 66.2816 88.7888 67.8211C89.0524 68.158 89.2587 68.536 89.3991 68.94C89.6615 68.5335 89.9138 68.127 90.1559 67.7205C88.6057 67.184 88.8071 65.1139 89.0817 63.1476C89.4144 61.1507 89.8263 59.2667 89.8263 59.2453C89.8263 59.224 89.7409 61.9891 91.0775 63.361C91.3908 63.6575 91.6546 64.0023 91.8587 64.3823C91.9807 64.1048 92.0997 63.8244 92.2126 63.5439C92.3011 63.3274 92.3835 63.111 92.4659 62.8915C90.9066 62.5866 90.7662 60.6416 90.7235 58.7819C90.7235 56.8857 90.8364 55.09 90.8455 55.0717C90.8547 55.0535 91.1507 57.6204 92.6246 58.7301C92.9678 58.9693 93.2706 59.2615 93.5218 59.5959C93.6744 59.0075 93.8117 58.4191 93.9337 57.8247C92.3866 57.785 91.9655 55.9802 91.6634 54.2517C91.3613 52.5231 91.2606 50.8219 91.2758 50.8037C91.2911 50.7854 91.9044 53.1206 93.4394 53.9529C93.8039 54.134 94.1368 54.3729 94.425 54.6602C94.4983 53.9895 94.5532 53.3218 94.5898 52.6511C93.1037 52.8279 92.472 51.2152 91.9655 49.6452C91.6494 48.6095 91.3866 47.5584 91.1782 46.4959C91.1995 46.4959 92.0448 48.569 93.592 49.1391C93.963 49.26 94.3115 49.4413 94.6234 49.6757C94.6051 49.0659 94.5776 48.4836 94.5318 47.8922C94.5318 47.752 94.5105 47.6148 94.4983 47.4745C93.1586 47.8465 92.3256 46.4106 91.6878 45.0356C91.05 43.6607 90.5953 42.1882 90.5953 42.1852C90.5953 42.1821 91.6329 44.0143 93.1434 44.3466C93.4974 44.4095 93.8386 44.53 94.1535 44.7033C94.0253 43.9229 93.8788 43.1455 93.7049 42.3711C92.53 42.8467 91.5993 41.6364 90.8669 40.4291C90.3793 39.5924 89.9362 38.7304 89.5395 37.847C89.5547 37.847 90.7021 39.481 92.1333 39.5847C92.4458 39.5959 92.7546 39.6556 93.0488 39.7615C92.8128 38.9485 92.5534 38.1457 92.2706 37.3531C91.2728 37.8561 90.3146 36.8622 89.5242 35.8288C88.9715 35.0726 88.4621 34.2859 87.9984 33.4722C88.0137 33.4722 89.2587 34.9416 90.577 34.8562C90.8215 34.8341 91.0679 34.8454 91.3094 34.8898C90.9859 34.1093 90.6391 33.3289 90.2688 32.5484L90.2047 32.396C89.3777 32.9021 88.4195 32.0911 87.5987 31.1765C86.9914 30.4813 86.4209 29.7547 85.8898 28.9998C85.9081 28.9998 87.2447 30.3382 88.4287 30.1034C88.675 30.0489 88.9287 30.0355 89.1794 30.0638C88.3562 28.3246 87.4342 26.6339 86.4177 25C87.5682 26.6859 88.5935 28.3535 89.4998 29.9723C89.6063 29.6763 89.7565 29.3978 89.9453 29.1461C90.3237 28.6401 90.3329 27.82 90.1986 27.1188C90.1095 26.6832 89.9808 26.2567 89.8141 25.8445C90.4227 26.8252 90.9114 27.8754 91.2697 28.9724C91.7366 30.518 91.7244 31.9844 90.6594 32.1673C91.0866 33.024 91.4772 33.8807 91.8404 34.7373C91.9898 34.498 92.1692 34.2787 92.3744 34.0849C92.8626 33.6246 92.9847 32.8015 92.9664 32.0911C92.9453 31.6473 92.8778 31.2069 92.765 30.7772C93.2584 31.8285 93.6172 32.9378 93.833 34.0788C94.0955 35.6458 93.8971 37.1061 92.8047 37.225C93.0823 38.0116 93.3356 38.7951 93.5675 39.5847C93.7497 39.3866 93.9546 39.2106 94.1779 39.0603C95.3527 38.289 95.1208 35.9507 95.0933 35.7739C95.4677 36.9 95.6914 38.0707 95.7586 39.2554C95.8227 40.8712 95.4321 42.3406 94.2908 42.3528C94.2908 42.3528 94.2908 42.3528 94.2908 42.3711C94.4454 43.0906 94.5817 43.8152 94.6997 44.5448C94.9157 44.3699 95.1512 44.2206 95.4015 44.0997C96.7534 43.4717 96.8236 41.0328 96.8022 40.8499C97.0464 42.0633 97.1265 43.304 97.0402 44.5387C96.8907 46.2246 96.2773 47.7123 95.0689 47.5569C95.1239 48.2337 95.1635 48.9105 95.1849 49.5933C95.4426 49.4363 95.7182 49.3104 96.0058 49.2184C97.4736 48.7702 97.8947 46.3557 97.9191 46.0508C98.0102 47.3468 97.9261 48.6491 97.6689 49.9226C97.3027 51.6634 96.3811 53.1968 95.1483 52.8127C95.1116 53.4224 95.0628 54.0626 94.9926 54.6846C95.2988 54.5425 95.6218 54.4401 95.9539 54.3797C97.5834 54.1145 98.3646 51.5597 98.3951 51.3128C98.3109 52.6968 98.0346 54.0624 97.5743 55.3705C96.9304 57.1997 95.7097 58.7027 94.4525 58.0381C94.3335 58.6051 94.1992 59.1752 94.0497 59.7392C94.4109 59.6218 94.7869 59.5561 95.1666 59.5441C96.9426 59.4953 98.1571 56.8003 98.1937 56.6448C97.9046 58.1034 97.405 59.5124 96.7107 60.8276C95.7342 62.6842 94.1779 64.1414 92.9542 63.1537C92.765 63.6537 92.5616 64.1496 92.3439 64.6414C92.7547 64.5601 93.1754 64.5406 93.592 64.5835C95.4839 64.7908 97.2081 62.0592 97.2264 61.9556C96.6942 63.4599 95.9392 64.876 94.9865 66.1566C93.6347 67.9858 91.7244 69.3058 90.6167 68.0193C90.3685 68.438 90.1122 68.8445 89.8477 69.2388C90.268 69.2149 90.6896 69.2529 91.0988 69.3516C92.9847 69.8302 95.194 67.251 95.1574 67.2175C94.3763 68.6668 93.3723 69.9846 92.1821 71.1228C90.516 72.7569 88.3707 73.7904 87.4766 72.3423C87.1562 72.7173 86.8236 73.0831 86.4787 73.4459C86.9057 73.4847 87.3244 73.5874 87.7207 73.7507C89.4418 74.455 91.9228 72.4795 92.1486 72.2447C91.1202 73.55 89.9036 74.6955 88.5386 75.6439C86.5276 77.025 84.2053 77.6621 83.5523 76.1439C83.1556 76.464 82.7467 76.7719 82.3317 77.0737C82.7594 77.1739 83.1705 77.3351 83.5523 77.5524C85.1635 78.5066 88.0137 76.9427 88.3005 76.7445C87.0224 77.8786 85.5826 78.8167 84.0283 79.5279C81.7366 80.5644 79.2465 80.79 78.862 79.223C78.3982 79.4639 77.9252 79.6986 77.4461 79.9181C77.8491 80.0833 78.2271 80.304 78.5691 80.5736C80.0308 81.7687 83.1953 80.7321 83.5523 80.5736C82.04 81.4807 80.4005 82.1568 78.6881 82.5796C76.1675 83.1893 73.5859 82.9637 73.4638 81.3937C70.5191 82.2515 67.4523 82.6152 64.3884 82.4698L64.3335 81.9638Z" fill="#B6B6B6"></path>
  <path d="M107.23 52.3486L101.612 58.141V75.0975L107.23 69.5216V52.3486ZM19.5679 52.3486L25.198 58.388V75.1158L19.5679 69.5063V52.3486Z" fill="#8A8A8A"></path>
  <path d="M19.4429 69.4145H107.218L107.209 52.2446H19.4429V69.4145Z" fill="#A5A5A5"></path>
  <path d="M63.8933 12.9297L65.6937 16.5698L69.7188 17.152L66.8045 19.9995L67.4942 23.9962L63.8933 22.1091L60.2955 23.9962L60.9821 19.9995L58.0679 17.1673L62.0929 16.585L63.8933 12.9297Z" fill="#B6B6B6"></path>
  <path d="M52.7359 20.0236L51.6587 17.8408L50.5785 20.0236L48.1616 20.3742L49.9102 22.0723L49.4982 24.4716L51.6587 23.3375L53.8162 24.4716L53.4042 22.0723L55.1528 20.3742L52.7359 20.0236Z" fill="#B6B6B6"></path>
  <path d="M79.6263 20.3742L77.2094 20.0236L76.1322 17.8408L75.052 20.0236L72.6382 20.3742L74.3837 22.0723L73.9717 24.4716L76.1322 23.3375L78.2897 24.4716L77.8777 22.0723L79.6263 20.3742Z" fill="#B6B6B6"></path>
  <path d="M46.7331 25.7157L46.0862 24.4048L45.4392 25.7157L43.9897 25.9261L45.0364 26.9443L44.7893 28.3833L46.0862 27.7065L47.38 28.3833L47.1329 26.9443L48.1826 25.9261L46.7331 25.7157Z" fill="#B6B6B6"></path>
  <path d="M83.7998 25.9261L82.3503 25.7157L81.7034 24.4048L81.0564 25.7157L79.6069 25.9261L80.6567 26.9443L80.4095 28.3833L81.7034 27.7065L83.0003 28.3833L82.7531 26.9443L83.7998 25.9261Z" fill="#B6B6B6"></path>
  <path d="M45.0734 59.4672V56.446H44.0054V55.8149H46.9044V56.446H45.8333V59.4672H45.0734Z" fill="white"></path>
  <path d="M50.533 57.6442C50.533 58.8027 49.8494 59.5313 48.7692 59.5313C47.6889 59.5313 47.0054 58.8027 47.0054 57.6442C47.0054 56.4857 47.6859 55.751 48.7692 55.751C49.8525 55.751 50.533 56.4796 50.533 57.6442ZM47.7866 57.6442C47.7866 58.4063 48.168 58.8911 48.7692 58.8911C49.3703 58.8911 49.7487 58.4063 49.7487 57.6442C49.7487 56.882 49.3673 56.3912 48.7692 56.3912C48.1711 56.3912 47.7866 56.8881 47.7866 57.6442Z" fill="white"></path>
  <path d="M52.5468 55.8152C52.7145 55.8047 52.8826 55.8297 53.04 55.8885C53.1974 55.9474 53.3406 56.0389 53.4601 56.1569C53.5797 56.2749 53.6729 56.4168 53.7338 56.5733C53.7946 56.7298 53.8217 56.8974 53.8132 57.0651C53.8178 57.235 53.7869 57.4039 53.7224 57.5611C53.6578 57.7183 53.5611 57.8603 53.4384 57.978C53.3157 58.0957 53.1698 58.1865 53.0099 58.2445C52.8501 58.3026 52.6799 58.3266 52.5102 58.3151H51.7839V59.4674H51.021V55.8091L52.5468 55.8152ZM51.7839 57.7175H52.3393C52.4282 57.7236 52.5174 57.7114 52.6013 57.6816C52.6853 57.6518 52.7622 57.6051 52.8274 57.5443C52.8925 57.4836 52.9444 57.4101 52.9799 57.3284C53.0154 57.2468 53.0338 57.1587 53.0338 57.0697C53.0338 56.9807 53.0154 56.8926 52.9799 56.811C52.9444 56.7293 52.8925 56.6558 52.8274 56.5951C52.7622 56.5343 52.6853 56.4876 52.6013 56.4578C52.5174 56.428 52.4282 56.4158 52.3393 56.4219H51.7839V57.7175Z" fill="white"></path>
  <path d="M55.9786 58.4277C56.0152 58.7325 56.3295 58.9246 56.7323 58.9246C57.1351 58.9246 57.4189 58.7295 57.4189 58.4612C57.4189 58.1929 57.245 58.0923 56.8086 57.9948L56.3326 57.8911C55.6582 57.7478 55.3256 57.4033 55.3256 56.8698C55.3256 56.1961 55.9084 55.751 56.7232 55.751C57.5379 55.751 58.1086 56.19 58.1208 56.8515H57.4067C57.3793 56.5467 57.1016 56.3546 56.7262 56.3546C56.3509 56.3546 56.0946 56.5345 56.0946 56.8058C56.0946 57.0771 56.2746 57.1564 56.7049 57.254L57.1504 57.3454C57.8797 57.5039 58.2001 57.8179 58.2001 58.3728C58.2001 59.0831 57.6264 59.5313 56.7171 59.5313C55.8077 59.5313 55.2798 59.1136 55.2554 58.4277H55.9786Z" fill="white"></path>
  <path d="M62.072 57.6442C62.072 58.8027 61.3885 59.5313 60.3082 59.5313C59.228 59.5313 58.5444 58.8027 58.5444 57.6442C58.5444 56.4857 59.2249 55.751 60.3082 55.751C61.3915 55.751 62.072 56.4796 62.072 57.6442ZM59.3256 57.6442C59.3256 58.4063 59.7071 58.8911 60.3082 58.8911C60.9094 58.8911 61.2878 58.4063 61.2878 57.6442C61.2878 56.882 60.9063 56.3912 60.3082 56.3912C59.7101 56.3912 59.3256 56.8881 59.3256 57.6442Z" fill="white"></path>
  <path d="M62.5601 59.4674V55.8091H64.9525V56.4401H63.323V57.4188H64.8121V58.0285H63.323V59.4674H62.5601Z" fill="white"></path>
  <path d="M66.2935 59.4672V56.446H65.2163V55.8149H68.1214V56.446H67.0473V59.4672H66.2935Z" fill="white"></path>
  <path d="M70.0475 59.4674H69.3243L68.3569 55.8091H69.1503L69.724 58.4553H69.7454L70.4289 55.8091H71.0759L71.7594 58.4553H71.7777L72.3575 55.8091H73.1479L72.1806 59.4674H71.4573L70.7646 56.9737H70.7402L70.0475 59.4674Z" fill="white"></path>
  <path d="M75.329 58.5803H74.0595L73.7818 59.4674H72.9976L74.264 55.8091H75.1642L76.4367 59.4674H75.6219L75.329 58.5803ZM74.209 58.0102H75.1642L74.6942 56.5133H74.6698L74.209 58.0102Z" fill="white"></path>
  <path d="M77.5607 59.4674H76.8101V55.8091H78.3206C79.1598 55.8091 79.6419 56.2511 79.6419 56.9737C79.6514 57.1938 79.5925 57.4116 79.4735 57.5971C79.3544 57.7826 79.1809 57.9269 78.9767 58.0102L79.7487 59.4613H78.8821L78.2016 58.126H77.573L77.5607 59.4674ZM77.5607 57.5773H78.2321C78.3122 57.587 78.3935 57.5788 78.47 57.5534C78.5466 57.5279 78.6166 57.4859 78.6749 57.4302C78.7333 57.3745 78.7786 57.3066 78.8075 57.2314C78.8365 57.1561 78.8484 57.0754 78.8424 56.995C78.8458 56.9153 78.832 56.8357 78.8022 56.7617C78.7723 56.6877 78.727 56.6209 78.6692 56.5658C78.6114 56.5107 78.5426 56.4685 78.4672 56.4421C78.3918 56.4157 78.3117 56.4057 78.2321 56.4127H77.5668L77.5607 57.5773Z" fill="white"></path>
  <path d="M82.5533 59.4674H80.1304V55.8091H82.5533V56.4401H80.8963V57.3212H82.4587V57.9065H80.8963V58.8211H82.5533V59.4674Z" fill="white"></path>
  <path d="M33.0246 62.0342C34.1201 62.0342 34.767 62.6866 34.767 63.8451C34.767 65.0035 34.1201 65.6742 33.0246 65.6742H31.6147V62.0159L33.0246 62.0342ZM32.3807 65.0523H32.933C33.6166 65.0523 33.9858 64.6377 33.9858 63.8481C33.9858 63.0585 33.6074 62.6805 32.933 62.6805H32.3807V65.0523Z" fill="white"></path>
  <path d="M37.6753 65.6867H35.2554V62.0283H37.6753V62.6807H36.0183V63.5618H37.5837V64.1471H36.0183V65.0617H37.6753V65.6867Z" fill="white"></path>
  <path d="M39.226 65.6867L38.0054 62.0283H38.8598L39.6959 64.894H39.7143L40.5504 62.0283H41.3835L40.1628 65.6867H39.226Z" fill="white"></path>
  <path d="M44.1705 65.6867H41.7476V62.0283H44.1705V62.6807H42.5135V63.5618H44.0759V64.1471H42.5135V65.0617H44.1705V65.6867Z" fill="white"></path>
  <path d="M47.086 65.6864H44.7241V62.0281H45.487V65.0462H47.086V65.6864Z" fill="white"></path>
  <path d="M50.8034 63.8634C50.8034 65.0249 50.1229 65.7505 49.0396 65.7505C47.9563 65.7505 47.2788 65.0249 47.2788 63.8634C47.2788 62.7019 47.9563 61.9702 49.0396 61.9702C50.1229 61.9702 50.8034 62.6988 50.8034 63.8634ZM48.057 63.8634C48.057 64.6256 48.4415 65.1103 49.0396 65.1103C49.6377 65.1103 50.0222 64.6256 50.0222 63.8634C50.0222 63.1013 49.6377 62.6104 49.0396 62.6104C48.4415 62.6104 48.057 63.0952 48.057 63.8634Z" fill="white"></path>
  <path d="M52.8202 62.0344C52.988 62.0239 53.156 62.0489 53.3134 62.1078C53.4708 62.1667 53.614 62.2581 53.7336 62.3761C53.8531 62.4941 53.9464 62.636 54.0072 62.7926C54.0681 62.9491 54.0951 63.1167 54.0866 63.2844C54.0913 63.4545 54.0603 63.6237 53.9956 63.7811C53.9308 63.9386 53.8339 64.0807 53.7108 64.1985C53.5878 64.3162 53.4415 64.4069 53.2813 64.4647C53.121 64.5226 52.9505 64.5463 52.7805 64.5343H52.0604V65.6867H51.2944V62.0283L52.8202 62.0344ZM52.0604 63.9368H52.6158C52.7047 63.9429 52.7939 63.9306 52.8778 63.9008C52.9618 63.871 53.0387 63.8243 53.1039 63.7636C53.169 63.7028 53.2209 63.6293 53.2564 63.5477C53.2919 63.466 53.3103 63.378 53.3103 63.2889C53.3103 63.1999 53.2919 63.1118 53.2564 63.0302C53.2209 62.9485 53.169 62.8751 53.1039 62.8143C53.0387 62.7535 52.9618 62.7068 52.8778 62.677C52.7939 62.6472 52.7047 62.635 52.6158 62.6411H52.0604V63.9368Z" fill="white"></path>
  <path d="M58.4013 65.6867H57.7208V63.2234H57.6994L56.7076 65.6623H56.2255L55.2337 63.2234H55.2124V65.6867H54.5288V62.0283H55.4138L56.4543 64.6166H56.4727L57.5132 62.0283H58.3982L58.4013 65.6867Z" fill="white"></path>
  <path d="M61.4361 65.6867H59.0132V62.0283H61.4361V62.6807H59.7791V63.5618H61.3415V64.1471H59.7791V65.0617H61.4361V65.6867Z" fill="white"></path>
  <path d="M61.9897 65.6867V62.0283H62.6275L64.3334 64.4063H64.3547V62.0283H65.0871V65.6867H64.4524L62.7435 63.2905H62.7221V65.6806L61.9897 65.6867Z" fill="white"></path>
  <path d="M66.5829 65.6863V62.6804H65.521V62.0493H68.4291V62.6804H67.3519V65.7016L66.5829 65.6863Z" fill="white"></path>
  <path d="M69.8413 63.8602C69.8413 62.6834 70.5127 61.97 71.5715 61.97C71.9663 61.9422 72.3562 62.0709 72.6567 62.3283C72.9571 62.5857 73.1439 62.9509 73.1767 63.345H72.4321C72.4064 63.1368 72.304 62.9456 72.1449 62.8086C71.9859 62.6717 71.7815 62.5988 71.5715 62.6042C70.9948 62.6042 70.6225 63.0858 70.6225 63.8571C70.6225 64.6284 70.9887 65.1162 71.5746 65.1162C71.7791 65.127 71.9803 65.0615 72.1393 64.9325C72.2983 64.8036 72.4037 64.6203 72.4351 64.4181H73.1797C73.0943 65.2321 72.4687 65.7503 71.5715 65.7503C70.5066 65.7503 69.8413 65.037 69.8413 63.8602Z" fill="white"></path>
  <path d="M77.0642 63.8634C77.0642 65.0249 76.3807 65.7505 75.3004 65.7505C74.2202 65.7505 73.5366 65.0249 73.5366 63.8634C73.5366 62.7019 74.2171 61.9702 75.3004 61.9702C76.3837 61.9702 77.0642 62.6988 77.0642 63.8634ZM74.3178 63.8634C74.3178 64.6256 74.6993 65.1103 75.3004 65.1103C75.9016 65.1103 76.28 64.6256 76.28 63.8634C76.28 63.1013 75.8985 62.6104 75.3004 62.6104C74.7023 62.6104 74.3178 63.0952 74.3178 63.8634Z" fill="white"></path>
  <path d="M81.4186 65.6867H80.7381V63.2234H80.7167L79.725 65.6623H79.2459L78.2541 63.2234H78.2327V65.6867H77.5522V62.0283H78.4372L79.4747 64.6166H79.4961L80.5336 62.0283H81.4216L81.4186 65.6867Z" fill="white"></path>
  <path d="M83.5546 62.0344C83.7223 62.0239 83.8904 62.0489 84.0478 62.1078C84.2052 62.1667 84.3484 62.2581 84.4679 62.3761C84.5875 62.4941 84.6807 62.636 84.7416 62.7926C84.8024 62.9491 84.8295 63.1167 84.821 63.2844C84.8257 63.4545 84.7947 63.6237 84.7299 63.7811C84.6652 63.9386 84.5682 64.0807 84.4452 64.1985C84.3222 64.3162 84.1759 64.4069 84.0156 64.4647C83.8554 64.5226 83.6849 64.5463 83.5149 64.5343H82.7948V65.6867H82.0288V62.0283L83.5546 62.0344ZM82.7948 63.9368H83.3501C83.439 63.9429 83.5282 63.9306 83.6122 63.9008C83.6962 63.871 83.7731 63.8243 83.8382 63.7636C83.9034 63.7028 83.9553 63.6293 83.9908 63.5477C84.0263 63.466 84.0446 63.378 84.0446 63.2889C84.0446 63.1999 84.0263 63.1118 83.9908 63.0302C83.9553 62.9485 83.9034 62.8751 83.8382 62.8143C83.7731 62.7535 83.6962 62.7068 83.6122 62.677C83.5282 62.6472 83.439 62.635 83.3501 62.6411H82.7948V63.9368Z" fill="white"></path>
  <path d="M87.0504 64.8147H85.7657L85.488 65.7018H84.7007L85.9701 62.0435H86.8856L88.1551 65.7018H87.3433L87.0504 64.8147ZM85.9305 64.2446H86.8826L86.4126 62.7477H86.3943L85.9305 64.2446Z" fill="white"></path>
  <path d="M88.5054 65.6867V62.0283H89.1462L90.852 64.4063H90.8734V62.0283H91.6058V65.6867H90.971L89.2622 63.2966H89.2378V65.6867H88.5054Z" fill="white"></path>
  <path d="M93.2544 65.6864V64.3237L91.9819 62.0342H92.8181L93.6359 63.592H93.6542L94.472 62.0342H95.2929L94.0204 64.3237V65.6864H93.2544Z" fill="white"></path>
</svg>
